<?xml version="1.0" encoding="UTF-8" standalone="no"?>
<!DOCTYPE svg PUBLIC "-//W3C//DTD SVG 1.1//EN"
 "http://www.w3.org/Graphics/SVG/1.1/DTD/svg11.dtd">
<!-- Generated by graphviz version 2.43.0 (0)
 -->
<!-- Title: ArchitectureDiagram Pages: 1 -->
<svg width="380pt" height="227pt"
 viewBox="0.00 0.00 380.00 227.00" xmlns="http://www.w3.org/2000/svg" xmlns:xlink="http://www.w3.org/1999/xlink">
<g id="graph0" class="graph" transform="scale(1 1) rotate(0) translate(4 223)">
<title>ArchitectureDiagram</title>
<polygon fill="white" stroke="transparent" points="-4,4 -4,-223 376,-223 376,4 -4,4"/>
<text text-anchor="middle" x="186" y="-7.8" font-family="Times,serif" font-size="14.00">ArchitectureDiagram</text>
<g id="clust1" class="cluster">
<title>clusterArchitecture</title>
<polygon fill="lightyellow" stroke="#eedd82" points="8,-31 8,-155 196,-155 196,-31 8,-31"/>
</g>
<!-- net.nocono.mentalarithmetic.application -->
<g id="node1" class="node">
<title>net.nocono.mentalarithmetic.application</title>
<polygon fill="#eedd82" stroke="black" points="188,-147 16,-147 16,-143 12,-143 12,-139 16,-139 16,-119 12,-119 12,-115 16,-115 16,-111 188,-111 188,-147"/>
<polyline fill="none" stroke="black" points="16,-143 20,-143 20,-139 16,-139 "/>
<polyline fill="none" stroke="black" points="16,-119 20,-119 20,-115 16,-115 "/>
<text text-anchor="middle" x="102" y="-124" font-family="Times,serif" font-size="20.00">ビジネスアクション</text>
</g>
<!-- net.nocono.mentalarithmetic.domain -->
<g id="node2" class="node">
<title>net.nocono.mentalarithmetic.domain</title>
<polygon fill="#eedd82" stroke="black" points="161.5,-75 24.5,-75 24.5,-71 20.5,-71 20.5,-67 24.5,-67 24.5,-47 20.5,-47 20.5,-43 24.5,-43 24.5,-39 161.5,-39 161.5,-75"/>
<polyline fill="none" stroke="black" points="24.5,-71 28.5,-71 28.5,-67 24.5,-67 "/>
<polyline fill="none" stroke="black" points="24.5,-47 28.5,-47 28.5,-43 24.5,-43 "/>
<text text-anchor="middle" x="93" y="-52" font-family="Times,serif" font-size="20.00">ビジネスルール</text>
</g>
<!-- net.nocono.mentalarithmetic.application&#45;&gt;net.nocono.mentalarithmetic.domain -->
<g id="edge3" class="edge">
<title>net.nocono.mentalarithmetic.application&#45;&gt;net.nocono.mentalarithmetic.domain</title>
<path fill="none" stroke="black" d="M93,-110.83C93,-110.83 93,-85.41 93,-85.41"/>
<polygon fill="black" stroke="black" points="96.5,-85.41 93,-75.41 89.5,-85.41 96.5,-85.41"/>
</g>
<!-- org.springframework -->
<g id="node4" class="node">
<title>org.springframework</title>
<polygon fill="lightgrey" stroke="black" points="372,-75 204,-75 204,-71 200,-71 200,-67 204,-67 204,-47 200,-47 200,-43 204,-43 204,-39 372,-39 372,-75"/>
<polyline fill="none" stroke="black" points="204,-71 208,-71 208,-67 204,-67 "/>
<polyline fill="none" stroke="black" points="204,-47 208,-47 208,-43 204,-43 "/>
<text text-anchor="middle" x="288" y="-53.3" font-family="Times,serif" font-size="14.00">org.springframework</text>
</g>
<!-- net.nocono.mentalarithmetic.application&#45;&gt;org.springframework -->
<g id="edge5" class="edge">
<title>net.nocono.mentalarithmetic.application&#45;&gt;org.springframework</title>
<path fill="none" stroke="black" d="M174.75,-110.97C174.75,-91.42 174.75,-63 174.75,-63 174.75,-63 193.91,-63 193.91,-63"/>
<polygon fill="black" stroke="black" points="193.91,-66.5 203.91,-63 193.91,-59.5 193.91,-66.5"/>
</g>
<!-- net.nocono -->
<g id="node3" class="node">
<title>net.nocono</title>
<polygon fill="lightgrey" stroke="black" points="149.5,-219 54.5,-219 54.5,-215 50.5,-215 50.5,-211 54.5,-211 54.5,-191 50.5,-191 50.5,-187 54.5,-187 54.5,-183 149.5,-183 149.5,-219"/>
<polyline fill="none" stroke="black" points="54.5,-215 58.5,-215 58.5,-211 54.5,-211 "/>
<polyline fill="none" stroke="black" points="54.5,-191 58.5,-191 58.5,-187 54.5,-187 "/>
<text text-anchor="middle" x="102" y="-197.3" font-family="Times,serif" font-size="14.00">net.nocono</text>
</g>
<!-- net.nocono&#45;&gt;net.nocono.mentalarithmetic.application -->
<g id="edge1" class="edge">
<title>net.nocono&#45;&gt;net.nocono.mentalarithmetic.application</title>
<path fill="none" stroke="black" d="M102,-182.83C102,-182.83 102,-157.41 102,-157.41"/>
<polygon fill="black" stroke="black" points="105.5,-157.41 102,-147.41 98.5,-157.41 105.5,-157.41"/>
</g>
<!-- net.nocono&#45;&gt;net.nocono.mentalarithmetic.domain -->
<g id="edge4" class="edge">
<title>net.nocono&#45;&gt;net.nocono.mentalarithmetic.domain</title>
<path fill="none" stroke="black" d="M149.55,-195C172.87,-195 196,-195 196,-195 196,-195 196,-51 196,-51 196,-51 171.7,-51 171.7,-51"/>
<polygon fill="black" stroke="black" points="171.7,-47.5 161.7,-51 171.7,-54.5 171.7,-47.5"/>
</g>
<!-- net.nocono&#45;&gt;org.springframework -->
<g id="edge2" class="edge">
<title>net.nocono&#45;&gt;org.springframework</title>
<path fill="none" stroke="black" d="M149.9,-207C205.01,-207 288,-207 288,-207 288,-207 288,-85.09 288,-85.09"/>
<polygon fill="black" stroke="black" points="291.5,-85.09 288,-75.09 284.5,-85.09 291.5,-85.09"/>
</g>
</g>
</svg>
