<?xml version="1.0" encoding="UTF-8" standalone="no"?>
<!DOCTYPE svg PUBLIC "-//W3C//DTD SVG 1.1//EN"
 "http://www.w3.org/Graphics/SVG/1.1/DTD/svg11.dtd">
<!-- Generated by graphviz version 2.43.0 (0)
 -->
<!-- Title: BusinessRuleRelationDiagram Pages: 1 -->
<svg width="839pt" height="675pt"
 viewBox="0.00 0.00 839.00 675.00" xmlns="http://www.w3.org/2000/svg" xmlns:xlink="http://www.w3.org/1999/xlink">
<g id="graph0" class="graph" transform="scale(1 1) rotate(0) translate(4 671)">
<title>BusinessRuleRelationDiagram</title>
<polygon fill="white" stroke="transparent" points="-4,4 -4,-671 835,-671 835,4 -4,4"/>
<text text-anchor="middle" x="415.5" y="-7.8" font-family="Times,serif" font-size="14.00">BusinessRuleRelationDiagram</text>
<g id="clust1" class="cluster">
<title>cluster_net.nocono.mentalarithmetic.domain.model.answer</title>
<polygon fill="lemonchiffon" stroke="#eedd82" stroke-width="2" points="369,-423 369,-500 455,-500 455,-423 369,-423"/>
<text text-anchor="middle" x="412" y="-484.8" font-family="Times,serif" font-size="14.00">answer</text>
</g>
<g id="clust2" class="cluster">
<title>cluster_net.nocono.mentalarithmetic.domain.model.expression</title>
<polygon fill="lemonchiffon" stroke="#eedd82" stroke-width="2" points="280,-179 280,-330 604,-330 604,-179 280,-179"/>
<text text-anchor="middle" x="442" y="-314.8" font-family="Times,serif" font-size="14.00">expression</text>
</g>
<g id="clust3" class="cluster">
<title>cluster_net.nocono.mentalarithmetic.domain.model.expression.token</title>
<polygon fill="lemonchiffon" stroke="#eedd82" stroke-width="2" points="8,-31 8,-330 269,-330 269,-31 8,-31"/>
<text text-anchor="middle" x="138.5" y="-314.8" font-family="Times,serif" font-size="14.00">expression.token</text>
</g>
<g id="clust4" class="cluster">
<title>cluster_net.nocono.mentalarithmetic.domain.model.level</title>
<polygon fill="lemonchiffon" stroke="#eedd82" stroke-width="2" points="612,-253 612,-330 688,-330 688,-253 612,-253"/>
<text text-anchor="middle" x="650" y="-314.8" font-family="Times,serif" font-size="14.00">level</text>
</g>
<g id="clust5" class="cluster">
<title>cluster_net.nocono.mentalarithmetic.domain.model.question</title>
<polygon fill="lemonchiffon" stroke="#eedd82" stroke-width="2" points="432,-338 432,-415 528,-415 528,-338 432,-338"/>
<text text-anchor="middle" x="480" y="-399.8" font-family="Times,serif" font-size="14.00">question</text>
</g>
<g id="clust6" class="cluster">
<title>cluster_net.nocono.mentalarithmetic.domain.model.result</title>
<polygon fill="lemonchiffon" stroke="#eedd82" stroke-width="2" points="387,-508 387,-659 643,-659 643,-508 387,-508"/>
<text text-anchor="middle" x="515" y="-643.8" font-family="Times,serif" font-size="14.00">result</text>
</g>
<g id="clust7" class="cluster">
<title>cluster_net.nocono.mentalarithmetic.domain.type</title>
<polygon fill="lemonchiffon" stroke="#eedd82" stroke-width="2" points="507,-423 507,-500 823,-500 823,-423 507,-423"/>
<text text-anchor="middle" x="665" y="-484.8" font-family="Times,serif" font-size="14.00">net.nocono.mentalarithmetic.domain.type</text>
</g>
<!-- net.nocono.mentalarithmetic.domain.model.answer.Answer -->
<g id="node1" class="node">
<title>net.nocono.mentalarithmetic.domain.model.answer.Answer</title>
<polygon fill="#eedd82" stroke="black" points="447,-469 377,-469 377,-431 447,-431 447,-469"/>
<text text-anchor="middle" x="412" y="-453.8" font-family="Times,serif" font-size="14.00">解答</text>
<text text-anchor="middle" x="412" y="-438.8" font-family="Times,serif" font-size="14.00">Answer</text>
</g>
<!-- net.nocono.mentalarithmetic.domain.model.expression.CalculationResult -->
<g id="node2" class="node">
<title>net.nocono.mentalarithmetic.domain.model.expression.CalculationResult</title>
<polygon fill="#eedd82" stroke="black" points="431.5,-225 288.5,-225 288.5,-187 431.5,-187 431.5,-225"/>
<text text-anchor="middle" x="360" y="-209.8" font-family="Times,serif" font-size="14.00">計算結果</text>
<text text-anchor="middle" x="360" y="-194.8" font-family="Times,serif" font-size="14.00">CalculationResult</text>
</g>
<!-- net.nocono.mentalarithmetic.domain.model.answer.Answer&#45;&gt;net.nocono.mentalarithmetic.domain.model.expression.CalculationResult -->
<g id="edge9" class="edge">
<title>net.nocono.mentalarithmetic.domain.model.answer.Answer&#45;&gt;net.nocono.mentalarithmetic.domain.model.expression.CalculationResult</title>
<path fill="none" stroke="black" d="M413.32,-430.73C415.22,-395.22 416.27,-314.92 393,-253 390.49,-246.32 386.75,-239.74 382.68,-233.72"/>
<polygon fill="black" stroke="black" points="385.32,-231.39 376.59,-225.38 379.66,-235.52 385.32,-231.39"/>
</g>
<!-- net.nocono.mentalarithmetic.domain.model.expression.Expression -->
<g id="node3" class="node">
<title>net.nocono.mentalarithmetic.domain.model.expression.Expression</title>
<polygon fill="#eedd82" stroke="black" points="384,-299 288,-299 288,-261 384,-261 384,-299"/>
<text text-anchor="middle" x="336" y="-283.8" font-family="Times,serif" font-size="14.00">数式</text>
<text text-anchor="middle" x="336" y="-268.8" font-family="Times,serif" font-size="14.00">Expression</text>
</g>
<!-- net.nocono.mentalarithmetic.domain.model.answer.Answer&#45;&gt;net.nocono.mentalarithmetic.domain.model.expression.Expression -->
<g id="edge10" class="edge">
<title>net.nocono.mentalarithmetic.domain.model.answer.Answer&#45;&gt;net.nocono.mentalarithmetic.domain.model.expression.Expression</title>
<path fill="none" stroke="black" d="M403.72,-430.7C390.38,-401.21 364.05,-343 348.44,-308.5"/>
<polygon fill="black" stroke="black" points="351.46,-306.69 344.15,-299.02 345.09,-309.58 351.46,-306.69"/>
</g>
<!-- net.nocono.mentalarithmetic.domain.model.expression.token.ComparisonOperator -->
<g id="node5" class="node">
<title>net.nocono.mentalarithmetic.domain.model.expression.token.ComparisonOperator</title>
<polygon fill="#eedd82" stroke="black" points="261.5,-299 94.5,-299 94.5,-261 261.5,-261 261.5,-299"/>
<text text-anchor="middle" x="178" y="-283.8" font-family="Times,serif" font-size="14.00">比較演算子</text>
<text text-anchor="middle" x="178" y="-268.8" font-family="Times,serif" font-size="14.00">ComparisonOperator</text>
</g>
<!-- net.nocono.mentalarithmetic.domain.model.answer.Answer&#45;&gt;net.nocono.mentalarithmetic.domain.model.expression.token.ComparisonOperator -->
<g id="edge11" class="edge">
<title>net.nocono.mentalarithmetic.domain.model.answer.Answer&#45;&gt;net.nocono.mentalarithmetic.domain.model.expression.token.ComparisonOperator</title>
<path fill="none" stroke="black" d="M382.3,-430.88C374.33,-425.86 365.77,-420.32 358,-415 304.6,-378.4 244.68,-332.85 209.21,-305.39"/>
<polygon fill="black" stroke="black" points="211.21,-302.52 201.16,-299.15 206.92,-308.05 211.21,-302.52"/>
</g>
<!-- net.nocono.mentalarithmetic.domain.model.question.Question -->
<g id="node11" class="node">
<title>net.nocono.mentalarithmetic.domain.model.question.Question</title>
<polygon fill="#eedd82" stroke="black" points="520,-384 440,-384 440,-346 520,-346 520,-384"/>
<text text-anchor="middle" x="480" y="-368.8" font-family="Times,serif" font-size="14.00">問題</text>
<text text-anchor="middle" x="480" y="-353.8" font-family="Times,serif" font-size="14.00">Question</text>
</g>
<!-- net.nocono.mentalarithmetic.domain.model.answer.Answer&#45;&gt;net.nocono.mentalarithmetic.domain.model.question.Question -->
<g id="edge12" class="edge">
<title>net.nocono.mentalarithmetic.domain.model.answer.Answer&#45;&gt;net.nocono.mentalarithmetic.domain.model.question.Question</title>
<path fill="none" stroke="black" d="M426.75,-430.99C436.05,-419.65 448.2,-404.82 458.55,-392.18"/>
<polygon fill="black" stroke="black" points="461.41,-394.21 465.04,-384.26 455.99,-389.78 461.41,-394.21"/>
</g>
<!-- net.nocono.mentalarithmetic.domain.model.expression.Expression&#45;&gt;net.nocono.mentalarithmetic.domain.model.expression.CalculationResult -->
<g id="edge13" class="edge">
<title>net.nocono.mentalarithmetic.domain.model.expression.Expression&#45;&gt;net.nocono.mentalarithmetic.domain.model.expression.CalculationResult</title>
<path fill="none" stroke="black" d="M342.06,-260.83C344.65,-253.05 347.74,-243.77 350.62,-235.13"/>
<polygon fill="black" stroke="black" points="354.02,-236.01 353.86,-225.41 347.38,-233.79 354.02,-236.01"/>
</g>
<!-- net.nocono.mentalarithmetic.domain.model.expression.ExpressionLength -->
<g id="node4" class="node">
<title>net.nocono.mentalarithmetic.domain.model.expression.ExpressionLength</title>
<polygon fill="#eedd82" stroke="black" points="596,-225 450,-225 450,-187 596,-187 596,-225"/>
<text text-anchor="middle" x="523" y="-209.8" font-family="Times,serif" font-size="14.00">式の長さ</text>
<text text-anchor="middle" x="523" y="-194.8" font-family="Times,serif" font-size="14.00">ExpressionLength</text>
</g>
<!-- net.nocono.mentalarithmetic.domain.model.expression.Expression&#45;&gt;net.nocono.mentalarithmetic.domain.model.expression.ExpressionLength -->
<g id="edge14" class="edge">
<title>net.nocono.mentalarithmetic.domain.model.expression.Expression&#45;&gt;net.nocono.mentalarithmetic.domain.model.expression.ExpressionLength</title>
<path fill="none" stroke="black" d="M383.19,-260.83C408.53,-251.07 439.95,-238.98 466.58,-228.72"/>
<polygon fill="black" stroke="black" points="468.08,-231.9 476.15,-225.04 465.56,-225.36 468.08,-231.9"/>
</g>
<!-- net.nocono.mentalarithmetic.domain.model.expression.token.DigitInteger -->
<g id="node6" class="node">
<title>net.nocono.mentalarithmetic.domain.model.expression.token.DigitInteger</title>
<polygon fill="#eedd82" stroke="black" points="260.5,-151 115.5,-151 115.5,-113 260.5,-113 260.5,-151"/>
<text text-anchor="middle" x="188" y="-135.8" font-family="Times,serif" font-size="14.00">桁数を指定した整数</text>
<text text-anchor="middle" x="188" y="-120.8" font-family="Times,serif" font-size="14.00">DigitInteger</text>
</g>
<!-- net.nocono.mentalarithmetic.domain.model.expression.Expression&#45;&gt;net.nocono.mentalarithmetic.domain.model.expression.token.DigitInteger -->
<g id="edge15" class="edge">
<title>net.nocono.mentalarithmetic.domain.model.expression.Expression&#45;&gt;net.nocono.mentalarithmetic.domain.model.expression.token.DigitInteger</title>
<path fill="none" stroke="black" d="M297.35,-261C280.32,-251.82 260.85,-239.53 246,-225 226.86,-206.28 211.13,-180.07 200.9,-160.41"/>
<polygon fill="black" stroke="black" points="203.96,-158.71 196.33,-151.35 197.71,-161.86 203.96,-158.71"/>
</g>
<!-- net.nocono.mentalarithmetic.domain.model.expression.token.DigitLength -->
<g id="node7" class="node">
<title>net.nocono.mentalarithmetic.domain.model.expression.token.DigitLength</title>
<polygon fill="#eedd82" stroke="black" points="261,-77 159,-77 159,-39 261,-39 261,-77"/>
<text text-anchor="middle" x="210" y="-61.8" font-family="Times,serif" font-size="14.00">整数の桁数</text>
<text text-anchor="middle" x="210" y="-46.8" font-family="Times,serif" font-size="14.00">DigitLength</text>
</g>
<!-- net.nocono.mentalarithmetic.domain.model.expression.Expression&#45;&gt;net.nocono.mentalarithmetic.domain.model.expression.token.DigitLength -->
<g id="edge16" class="edge">
<title>net.nocono.mentalarithmetic.domain.model.expression.Expression&#45;&gt;net.nocono.mentalarithmetic.domain.model.expression.token.DigitLength</title>
<path fill="none" stroke="black" d="M337.02,-260.9C337.93,-228.23 335.55,-158.54 303,-113 293.83,-100.17 280.58,-89.92 266.95,-81.95"/>
<polygon fill="black" stroke="black" points="268.42,-78.77 257.97,-77.04 265.06,-84.91 268.42,-78.77"/>
</g>
<!-- net.nocono.mentalarithmetic.domain.model.expression.token.Operator -->
<g id="node8" class="node">
<title>net.nocono.mentalarithmetic.domain.model.expression.token.Operator</title>
<polygon fill="#eedd82" stroke="black" points="97.5,-151 16.5,-151 16.5,-113 97.5,-113 97.5,-151"/>
<text text-anchor="middle" x="57" y="-135.8" font-family="Times,serif" font-size="14.00">演算子</text>
<text text-anchor="middle" x="57" y="-120.8" font-family="Times,serif" font-size="14.00">Operator</text>
</g>
<!-- net.nocono.mentalarithmetic.domain.model.expression.Expression&#45;&gt;net.nocono.mentalarithmetic.domain.model.expression.token.Operator -->
<g id="edge17" class="edge">
<title>net.nocono.mentalarithmetic.domain.model.expression.Expression&#45;&gt;net.nocono.mentalarithmetic.domain.model.expression.token.Operator</title>
<path fill="none" stroke="black" d="M292.14,-260.87C258.33,-246.83 216.02,-229.11 208,-225 167.09,-204.05 122.38,-176.14 92.31,-156.57"/>
<polygon fill="black" stroke="black" points="94.14,-153.58 83.85,-151.04 90.31,-159.44 94.14,-153.58"/>
</g>
<!-- net.nocono.mentalarithmetic.domain.model.expression.token.Token -->
<g id="node9" class="node">
<title>net.nocono.mentalarithmetic.domain.model.expression.token.Token</title>
<polygon fill="#eedd82" stroke="black" points="141,-77 67,-77 67,-39 141,-39 141,-77"/>
<text text-anchor="middle" x="104" y="-61.8" font-family="Times,serif" font-size="14.00">トークン</text>
<text text-anchor="middle" x="104" y="-46.8" font-family="Times,serif" font-size="14.00">Token</text>
</g>
<!-- net.nocono.mentalarithmetic.domain.model.expression.Expression&#45;&gt;net.nocono.mentalarithmetic.domain.model.expression.token.Token -->
<g id="edge18" class="edge">
<title>net.nocono.mentalarithmetic.domain.model.expression.Expression&#45;&gt;net.nocono.mentalarithmetic.domain.model.expression.token.Token</title>
<path fill="none" stroke="black" d="M310.14,-260.89C298.89,-251.54 286.76,-239.13 280,-225 258.43,-179.92 301.59,-151.73 270,-113 236.73,-72.21 206.16,-92.6 150.9,-76.91"/>
<polygon fill="black" stroke="black" points="151.65,-73.47 141.06,-73.8 149.55,-80.15 151.65,-73.47"/>
</g>
<!-- net.nocono.mentalarithmetic.domain.model.expression.ExpressionLength&#45;&gt;net.nocono.mentalarithmetic.domain.model.expression.token.DigitInteger -->
<g id="edge22" class="edge">
<title>net.nocono.mentalarithmetic.domain.model.expression.ExpressionLength&#45;&gt;net.nocono.mentalarithmetic.domain.model.expression.token.DigitInteger</title>
<path fill="none" stroke="black" d="M473.21,-186.98C464.22,-184.08 454.88,-181.28 446,-179 388.05,-164.14 321.57,-152.41 270.61,-144.51"/>
<polygon fill="black" stroke="black" points="271.04,-141.04 260.63,-142.99 269.98,-147.96 271.04,-141.04"/>
</g>
<!-- net.nocono.mentalarithmetic.domain.model.expression.ExpressionLength&#45;&gt;net.nocono.mentalarithmetic.domain.model.expression.token.DigitLength -->
<g id="edge23" class="edge">
<title>net.nocono.mentalarithmetic.domain.model.expression.ExpressionLength&#45;&gt;net.nocono.mentalarithmetic.domain.model.expression.token.DigitLength</title>
<path fill="none" stroke="black" d="M505.34,-186.75C484.26,-165.98 447.06,-132.43 409,-113 365.5,-90.79 311.84,-76.92 271.21,-68.8"/>
<polygon fill="black" stroke="black" points="271.66,-65.32 261.17,-66.86 270.33,-72.2 271.66,-65.32"/>
</g>
<!-- net.nocono.mentalarithmetic.domain.model.expression.ExpressionLength&#45;&gt;net.nocono.mentalarithmetic.domain.model.expression.token.Operator -->
<g id="edge24" class="edge">
<title>net.nocono.mentalarithmetic.domain.model.expression.ExpressionLength&#45;&gt;net.nocono.mentalarithmetic.domain.model.expression.token.Operator</title>
<path fill="none" stroke="black" d="M475.44,-186.94C465.81,-183.85 455.67,-181 446,-179 300.71,-148.96 255.98,-182.17 107.59,-151.02"/>
<polygon fill="black" stroke="black" points="108.17,-147.56 97.66,-148.87 106.69,-154.4 108.17,-147.56"/>
</g>
<!-- net.nocono.mentalarithmetic.domain.model.expression.ExpressionLength&#45;&gt;net.nocono.mentalarithmetic.domain.model.expression.token.Token -->
<g id="edge25" class="edge">
<title>net.nocono.mentalarithmetic.domain.model.expression.ExpressionLength&#45;&gt;net.nocono.mentalarithmetic.domain.model.expression.token.Token</title>
<path fill="none" stroke="black" d="M485.18,-186.92C441.91,-166.78 368.57,-134.26 303,-113 239.53,-92.42 218.57,-97.27 151.09,-77.1"/>
<polygon fill="black" stroke="black" points="151.84,-73.67 141.25,-74.09 149.78,-80.36 151.84,-73.67"/>
</g>
<!-- net.nocono.mentalarithmetic.domain.model.expression.token.DigitInteger&#45;&gt;net.nocono.mentalarithmetic.domain.model.expression.token.DigitLength -->
<g id="edge19" class="edge">
<title>net.nocono.mentalarithmetic.domain.model.expression.token.DigitInteger&#45;&gt;net.nocono.mentalarithmetic.domain.model.expression.token.DigitLength</title>
<path fill="none" stroke="black" d="M193.55,-112.83C195.93,-105.05 198.76,-95.77 201.4,-87.13"/>
<polygon fill="black" stroke="black" points="204.8,-88 204.37,-77.41 198.1,-85.95 204.8,-88"/>
</g>
<!-- net.nocono.mentalarithmetic.domain.model.expression.token.DigitInteger&#45;&gt;net.nocono.mentalarithmetic.domain.model.expression.token.Token -->
<g id="edge20" class="edge">
<title>net.nocono.mentalarithmetic.domain.model.expression.token.DigitInteger&#45;&gt;net.nocono.mentalarithmetic.domain.model.expression.token.Token</title>
<path fill="none" stroke="black" d="M166.8,-112.83C156.56,-104.05 144.1,-93.37 132.99,-83.85"/>
<polygon fill="black" stroke="black" points="135.06,-81.01 125.19,-77.16 130.5,-86.33 135.06,-81.01"/>
</g>
<!-- net.nocono.mentalarithmetic.domain.model.expression.token.Operator&#45;&gt;net.nocono.mentalarithmetic.domain.model.expression.token.Token -->
<g id="edge21" class="edge">
<title>net.nocono.mentalarithmetic.domain.model.expression.token.Operator&#45;&gt;net.nocono.mentalarithmetic.domain.model.expression.token.Token</title>
<path fill="none" stroke="black" d="M68.86,-112.83C74.16,-104.71 80.52,-94.96 86.37,-86.01"/>
<polygon fill="black" stroke="black" points="89.44,-87.7 91.98,-77.41 83.58,-83.87 89.44,-87.7"/>
</g>
<!-- net.nocono.mentalarithmetic.domain.model.level.Level -->
<g id="node10" class="node">
<title>net.nocono.mentalarithmetic.domain.model.level.Level</title>
<polygon fill="#eedd82" stroke="black" points="679.5,-299 620.5,-299 620.5,-261 679.5,-261 679.5,-299"/>
<text text-anchor="middle" x="650" y="-283.8" font-family="Times,serif" font-size="14.00">難易度</text>
<text text-anchor="middle" x="650" y="-268.8" font-family="Times,serif" font-size="14.00">Level</text>
</g>
<!-- net.nocono.mentalarithmetic.domain.model.level.Level&#45;&gt;net.nocono.mentalarithmetic.domain.model.expression.ExpressionLength -->
<g id="edge7" class="edge">
<title>net.nocono.mentalarithmetic.domain.model.level.Level&#45;&gt;net.nocono.mentalarithmetic.domain.model.expression.ExpressionLength</title>
<path fill="none" stroke="black" d="M621.21,-260.87C616.81,-258.19 612.3,-255.49 608,-253 594.67,-245.28 579.97,-237.18 566.59,-229.96"/>
<polygon fill="black" stroke="black" points="568.05,-226.77 557.58,-225.13 564.74,-232.94 568.05,-226.77"/>
</g>
<!-- net.nocono.mentalarithmetic.domain.model.level.Level&#45;&gt;net.nocono.mentalarithmetic.domain.model.expression.token.DigitLength -->
<g id="edge8" class="edge">
<title>net.nocono.mentalarithmetic.domain.model.level.Level&#45;&gt;net.nocono.mentalarithmetic.domain.model.expression.token.DigitLength</title>
<path fill="none" stroke="black" d="M649.86,-260.8C648.73,-238.78 643.6,-201.83 623,-179 575.86,-126.76 374.28,-86.4 271.21,-68.74"/>
<polygon fill="black" stroke="black" points="271.69,-65.27 261.25,-67.05 270.52,-72.17 271.69,-65.27"/>
</g>
<!-- net.nocono.mentalarithmetic.domain.model.question.Question&#45;&gt;net.nocono.mentalarithmetic.domain.model.expression.CalculationResult -->
<g id="edge1" class="edge">
<title>net.nocono.mentalarithmetic.domain.model.question.Question&#45;&gt;net.nocono.mentalarithmetic.domain.model.expression.CalculationResult</title>
<path fill="none" stroke="black" d="M474.39,-345.85C466.47,-322.43 450.23,-281.34 426,-253 418.98,-244.79 410.19,-237.35 401.33,-230.96"/>
<polygon fill="black" stroke="black" points="403.09,-227.92 392.87,-225.16 399.13,-233.7 403.09,-227.92"/>
</g>
<!-- net.nocono.mentalarithmetic.domain.model.question.Question&#45;&gt;net.nocono.mentalarithmetic.domain.model.expression.Expression -->
<g id="edge2" class="edge">
<title>net.nocono.mentalarithmetic.domain.model.question.Question&#45;&gt;net.nocono.mentalarithmetic.domain.model.expression.Expression</title>
<path fill="none" stroke="black" d="M448.75,-345.99C427.58,-333.78 399.39,-317.54 376.49,-304.34"/>
<polygon fill="black" stroke="black" points="378.09,-301.22 367.68,-299.26 374.6,-307.29 378.09,-301.22"/>
</g>
<!-- net.nocono.mentalarithmetic.domain.model.question.Question&#45;&gt;net.nocono.mentalarithmetic.domain.model.expression.ExpressionLength -->
<g id="edge3" class="edge">
<title>net.nocono.mentalarithmetic.domain.model.question.Question&#45;&gt;net.nocono.mentalarithmetic.domain.model.expression.ExpressionLength</title>
<path fill="none" stroke="black" d="M484.93,-345.99C492.38,-318.81 506.55,-267.07 515.34,-234.96"/>
<polygon fill="black" stroke="black" points="518.73,-235.85 517.99,-225.28 511.98,-234 518.73,-235.85"/>
</g>
<!-- net.nocono.mentalarithmetic.domain.model.question.Question&#45;&gt;net.nocono.mentalarithmetic.domain.model.expression.token.ComparisonOperator -->
<g id="edge4" class="edge">
<title>net.nocono.mentalarithmetic.domain.model.question.Question&#45;&gt;net.nocono.mentalarithmetic.domain.model.expression.token.ComparisonOperator</title>
<path fill="none" stroke="black" d="M439.67,-360.85C397.9,-356.77 331.14,-347.93 276,-330 255.82,-323.44 234.62,-313.29 217.12,-303.93"/>
<polygon fill="black" stroke="black" points="218.78,-300.85 208.33,-299.13 215.43,-306.99 218.78,-300.85"/>
</g>
<!-- net.nocono.mentalarithmetic.domain.model.question.Question&#45;&gt;net.nocono.mentalarithmetic.domain.model.expression.token.DigitLength -->
<g id="edge5" class="edge">
<title>net.nocono.mentalarithmetic.domain.model.question.Question&#45;&gt;net.nocono.mentalarithmetic.domain.model.expression.token.DigitLength</title>
<path fill="none" stroke="black" d="M520.06,-363.46C575.19,-361.77 670.12,-355.18 692,-330 736.02,-279.34 730.61,-235.25 694,-179 647.95,-108.23 391.06,-75.64 271.38,-64.13"/>
<polygon fill="black" stroke="black" points="271.56,-60.63 261.28,-63.18 270.91,-67.6 271.56,-60.63"/>
</g>
<!-- net.nocono.mentalarithmetic.domain.model.question.Question&#45;&gt;net.nocono.mentalarithmetic.domain.model.level.Level -->
<g id="edge6" class="edge">
<title>net.nocono.mentalarithmetic.domain.model.question.Question&#45;&gt;net.nocono.mentalarithmetic.domain.model.level.Level</title>
<path fill="none" stroke="black" d="M520.26,-359.6C546.8,-355.25 581.42,-346.7 608,-330 617.25,-324.19 625.55,-315.7 632.27,-307.41"/>
<polygon fill="black" stroke="black" points="635.18,-309.37 638.46,-299.29 629.61,-305.13 635.18,-309.37"/>
</g>
<!-- net.nocono.mentalarithmetic.domain.model.result.AnswerTime -->
<g id="node12" class="node">
<title>net.nocono.mentalarithmetic.domain.model.result.AnswerTime</title>
<polygon fill="#eedd82" stroke="black" points="634.5,-554 529.5,-554 529.5,-516 634.5,-516 634.5,-554"/>
<text text-anchor="middle" x="582" y="-538.8" font-family="Times,serif" font-size="14.00">解答時間</text>
<text text-anchor="middle" x="582" y="-523.8" font-family="Times,serif" font-size="14.00">AnswerTime</text>
</g>
<!-- net.nocono.mentalarithmetic.domain.type.MilliSeconds -->
<g id="node15" class="node">
<title>net.nocono.mentalarithmetic.domain.type.MilliSeconds</title>
<polygon fill="#eedd82" stroke="black" points="636,-469 528,-469 528,-431 636,-431 636,-469"/>
<text text-anchor="middle" x="582" y="-453.8" font-family="Times,serif" font-size="14.00">ミリ秒</text>
<text text-anchor="middle" x="582" y="-438.8" font-family="Times,serif" font-size="14.00">MilliSeconds</text>
</g>
<!-- net.nocono.mentalarithmetic.domain.model.result.AnswerTime&#45;&gt;net.nocono.mentalarithmetic.domain.type.MilliSeconds -->
<g id="edge26" class="edge">
<title>net.nocono.mentalarithmetic.domain.model.result.AnswerTime&#45;&gt;net.nocono.mentalarithmetic.domain.type.MilliSeconds</title>
<path fill="none" stroke="black" d="M582,-515.99C582,-505.3 582,-491.5 582,-479.37"/>
<polygon fill="black" stroke="black" points="585.5,-479.26 582,-469.26 578.5,-479.26 585.5,-479.26"/>
</g>
<!-- net.nocono.mentalarithmetic.domain.model.result.CorrectResult -->
<g id="node13" class="node">
<title>net.nocono.mentalarithmetic.domain.model.result.CorrectResult</title>
<polygon fill="#eedd82" stroke="black" points="511,-554 395,-554 395,-516 511,-516 511,-554"/>
<text text-anchor="middle" x="453" y="-538.8" font-family="Times,serif" font-size="14.00">正解か不正解か</text>
<text text-anchor="middle" x="453" y="-523.8" font-family="Times,serif" font-size="14.00">CorrectResult</text>
</g>
<!-- net.nocono.mentalarithmetic.domain.model.result.CorrectResult&#45;&gt;net.nocono.mentalarithmetic.domain.model.answer.Answer -->
<g id="edge27" class="edge">
<title>net.nocono.mentalarithmetic.domain.model.result.CorrectResult&#45;&gt;net.nocono.mentalarithmetic.domain.model.answer.Answer</title>
<path fill="none" stroke="black" d="M444.1,-515.99C438.66,-504.97 431.59,-490.66 425.47,-478.27"/>
<polygon fill="black" stroke="black" points="428.59,-476.68 421.02,-469.26 422.31,-479.78 428.59,-476.68"/>
</g>
<!-- net.nocono.mentalarithmetic.domain.model.result.CorrectResult&#45;&gt;net.nocono.mentalarithmetic.domain.model.question.Question -->
<g id="edge28" class="edge">
<title>net.nocono.mentalarithmetic.domain.model.result.CorrectResult&#45;&gt;net.nocono.mentalarithmetic.domain.model.question.Question</title>
<path fill="none" stroke="black" d="M456.3,-515.66C457.2,-510.59 458.15,-505.08 459,-500 465.08,-463.5 471.61,-421.32 475.74,-394.19"/>
<polygon fill="black" stroke="black" points="479.22,-394.64 477.26,-384.22 472.29,-393.58 479.22,-394.64"/>
</g>
<!-- net.nocono.mentalarithmetic.domain.model.result.Result -->
<g id="node14" class="node">
<title>net.nocono.mentalarithmetic.domain.model.result.Result</title>
<polygon fill="#eedd82" stroke="black" points="548,-628 486,-628 486,-590 548,-590 548,-628"/>
<text text-anchor="middle" x="517" y="-612.8" font-family="Times,serif" font-size="14.00">結果</text>
<text text-anchor="middle" x="517" y="-597.8" font-family="Times,serif" font-size="14.00">Result</text>
</g>
<!-- net.nocono.mentalarithmetic.domain.model.result.Result&#45;&gt;net.nocono.mentalarithmetic.domain.model.result.AnswerTime -->
<g id="edge29" class="edge">
<title>net.nocono.mentalarithmetic.domain.model.result.Result&#45;&gt;net.nocono.mentalarithmetic.domain.model.result.AnswerTime</title>
<path fill="none" stroke="black" d="M533.4,-589.83C541.04,-581.37 550.27,-571.15 558.62,-561.9"/>
<polygon fill="black" stroke="black" points="561.27,-564.18 565.38,-554.41 556.08,-559.49 561.27,-564.18"/>
</g>
<!-- net.nocono.mentalarithmetic.domain.model.result.Result&#45;&gt;net.nocono.mentalarithmetic.domain.model.result.CorrectResult -->
<g id="edge30" class="edge">
<title>net.nocono.mentalarithmetic.domain.model.result.Result&#45;&gt;net.nocono.mentalarithmetic.domain.model.result.CorrectResult</title>
<path fill="none" stroke="black" d="M500.85,-589.83C493.33,-581.37 484.24,-571.15 476.02,-561.9"/>
<polygon fill="black" stroke="black" points="478.63,-559.56 469.37,-554.41 473.4,-564.21 478.63,-559.56"/>
</g>
</g>
</svg>
