<?xml version="1.0" encoding="UTF-8" standalone="no"?>
<!DOCTYPE svg PUBLIC "-//W3C//DTD SVG 1.1//EN"
 "http://www.w3.org/Graphics/SVG/1.1/DTD/svg11.dtd">
<!-- Generated by graphviz version 2.43.0 (0)
 -->
<!-- Title: OverconcentrationBusinessRuleDiagram Pages: 1 -->
<svg width="1566pt" height="554pt"
 viewBox="0.00 0.00 1566.00 554.07" xmlns="http://www.w3.org/2000/svg" xmlns:xlink="http://www.w3.org/1999/xlink">
<g id="graph0" class="graph" transform="scale(1 1) rotate(0) translate(4 550.07)">
<title>OverconcentrationBusinessRuleDiagram</title>
<polygon fill="white" stroke="transparent" points="-4,4 -4,-550.07 1562,-550.07 1562,4 -4,4"/>
<text text-anchor="middle" x="779" y="-7.8" font-family="Times,serif" font-size="14.00">OverconcentrationBusinessRuleDiagram</text>
<!-- net.nocono.mentalarithmetic.domain.model.answer.Answer -->
<g id="node1" class="node">
<title>net.nocono.mentalarithmetic.domain.model.answer.Answer</title>
<polygon fill="lemonchiffon" stroke="black" points="93,-434.07 23,-434.07 23,-396.07 93,-396.07 93,-434.07"/>
<text text-anchor="middle" x="58" y="-418.87" font-family="Times,serif" font-size="14.00">解答</text>
<text text-anchor="middle" x="58" y="-403.87" font-family="Times,serif" font-size="14.00">Answer</text>
</g>
<!-- net.nocono.mentalarithmetic.domain.model.expression.CalculationResult -->
<g id="node2" class="node">
<title>net.nocono.mentalarithmetic.domain.model.expression.CalculationResult</title>
<polygon fill="#eedd82" stroke="black" points="1009.5,-546.07 721.5,-546.07 721.5,-472.07 1009.5,-472.07 1009.5,-546.07"/>
<text text-anchor="middle" x="865.5" y="-518.07" font-family="Times,serif" font-size="30.00">計算結果</text>
<text text-anchor="middle" x="865.5" y="-485.07" font-family="Times,serif" font-size="30.00">CalculationResult</text>
</g>
<!-- net.nocono.mentalarithmetic.domain.model.answer.Answer&#45;&gt;net.nocono.mentalarithmetic.domain.model.expression.CalculationResult -->
<g id="edge8" class="edge">
<title>net.nocono.mentalarithmetic.domain.model.answer.Answer&#45;&gt;net.nocono.mentalarithmetic.domain.model.expression.CalculationResult</title>
<path fill="none" stroke="black" d="M93.33,-426.83C146.06,-444.29 250.5,-476.46 342,-490.07 465.29,-508.41 606.65,-512.55 711.23,-512.43"/>
<polygon fill="black" stroke="black" points="711.24,-515.93 721.23,-512.41 711.22,-508.93 711.24,-515.93"/>
</g>
<!-- net.nocono.mentalarithmetic.domain.model.expression.Expression -->
<g id="node3" class="node">
<title>net.nocono.mentalarithmetic.domain.model.expression.Expression</title>
<polygon fill="#eedd82" stroke="black" points="605,-351.07 419,-351.07 419,-277.07 605,-277.07 605,-351.07"/>
<text text-anchor="middle" x="512" y="-323.07" font-family="Times,serif" font-size="30.00">数式</text>
<text text-anchor="middle" x="512" y="-290.07" font-family="Times,serif" font-size="30.00">Expression</text>
</g>
<!-- net.nocono.mentalarithmetic.domain.model.answer.Answer&#45;&gt;net.nocono.mentalarithmetic.domain.model.expression.Expression -->
<g id="edge14" class="edge">
<title>net.nocono.mentalarithmetic.domain.model.answer.Answer&#45;&gt;net.nocono.mentalarithmetic.domain.model.expression.Expression</title>
<path fill="none" stroke="black" d="M93.04,-408.44C140.75,-399.06 230.18,-381.14 306,-364.07 339.52,-356.52 376,-347.79 408.77,-339.76"/>
<polygon fill="black" stroke="black" points="409.93,-343.08 418.81,-337.3 408.26,-336.28 409.93,-343.08"/>
</g>
<!-- net.nocono.mentalarithmetic.domain.model.expression.token.ComparisonOperator -->
<g id="node5" class="node">
<title>net.nocono.mentalarithmetic.domain.model.expression.token.ComparisonOperator</title>
<polygon fill="#eedd82" stroke="black" points="682,-481.07 342,-481.07 342,-407.07 682,-407.07 682,-481.07"/>
<text text-anchor="middle" x="512" y="-453.07" font-family="Times,serif" font-size="30.00">比較演算子</text>
<text text-anchor="middle" x="512" y="-420.07" font-family="Times,serif" font-size="30.00">ComparisonOperator</text>
</g>
<!-- net.nocono.mentalarithmetic.domain.model.answer.Answer&#45;&gt;net.nocono.mentalarithmetic.domain.model.expression.token.ComparisonOperator -->
<g id="edge24" class="edge">
<title>net.nocono.mentalarithmetic.domain.model.answer.Answer&#45;&gt;net.nocono.mentalarithmetic.domain.model.expression.token.ComparisonOperator</title>
<path fill="none" stroke="black" d="M93.34,-417.27C144.18,-420.53 243.01,-426.88 331.78,-432.57"/>
<polygon fill="black" stroke="black" points="331.79,-436.08 341.99,-433.23 332.24,-429.09 331.79,-436.08"/>
</g>
<!-- net.nocono.mentalarithmetic.domain.model.question.Question -->
<g id="node11" class="node">
<title>net.nocono.mentalarithmetic.domain.model.question.Question</title>
<polygon fill="#eedd82" stroke="black" points="306,-355.07 152,-355.07 152,-281.07 306,-281.07 306,-355.07"/>
<text text-anchor="middle" x="229" y="-327.07" font-family="Times,serif" font-size="30.00">問題</text>
<text text-anchor="middle" x="229" y="-294.07" font-family="Times,serif" font-size="30.00">Question</text>
</g>
<!-- net.nocono.mentalarithmetic.domain.model.answer.Answer&#45;&gt;net.nocono.mentalarithmetic.domain.model.question.Question -->
<g id="edge22" class="edge">
<title>net.nocono.mentalarithmetic.domain.model.answer.Answer&#45;&gt;net.nocono.mentalarithmetic.domain.model.question.Question</title>
<path fill="none" stroke="black" d="M92.39,-395.91C110.14,-385.72 132.72,-372.76 154.34,-360.35"/>
<polygon fill="black" stroke="black" points="156.27,-363.28 163.2,-355.26 152.78,-357.21 156.27,-363.28"/>
</g>
<!-- net.nocono.mentalarithmetic.domain.model.expression.Expression&#45;&gt;net.nocono.mentalarithmetic.domain.model.expression.CalculationResult -->
<g id="edge9" class="edge">
<title>net.nocono.mentalarithmetic.domain.model.expression.Expression&#45;&gt;net.nocono.mentalarithmetic.domain.model.expression.CalculationResult</title>
<path fill="none" stroke="black" d="M605.43,-326.09C632.77,-333.54 660.98,-345.59 682,-365.07 714.51,-395.19 686.13,-427.27 718,-458.07 720.91,-460.88 723.99,-463.54 727.2,-466.06"/>
<polygon fill="black" stroke="black" points="725.28,-468.99 735.44,-472.01 729.38,-463.32 725.28,-468.99"/>
</g>
<!-- net.nocono.mentalarithmetic.domain.model.expression.ExpressionLength -->
<g id="node4" class="node">
<title>net.nocono.mentalarithmetic.domain.model.expression.ExpressionLength</title>
<polygon fill="#eedd82" stroke="black" points="1013,-286.07 718,-286.07 718,-212.07 1013,-212.07 1013,-286.07"/>
<text text-anchor="middle" x="865.5" y="-258.07" font-family="Times,serif" font-size="30.00">式の長さ</text>
<text text-anchor="middle" x="865.5" y="-225.07" font-family="Times,serif" font-size="30.00">ExpressionLength</text>
</g>
<!-- net.nocono.mentalarithmetic.domain.model.expression.Expression&#45;&gt;net.nocono.mentalarithmetic.domain.model.expression.ExpressionLength -->
<g id="edge11" class="edge">
<title>net.nocono.mentalarithmetic.domain.model.expression.Expression&#45;&gt;net.nocono.mentalarithmetic.domain.model.expression.ExpressionLength</title>
<path fill="none" stroke="black" d="M605.35,-296.99C636.77,-291.18 672.82,-284.51 707.85,-278.04"/>
<polygon fill="black" stroke="black" points="708.5,-281.48 717.7,-276.22 707.23,-274.59 708.5,-281.48"/>
</g>
<!-- net.nocono.mentalarithmetic.domain.model.expression.token.DigitInteger -->
<g id="node6" class="node">
<title>net.nocono.mentalarithmetic.domain.model.expression.token.DigitInteger</title>
<polygon fill="#eedd82" stroke="black" points="1322,-286.07 1049,-286.07 1049,-212.07 1322,-212.07 1322,-286.07"/>
<text text-anchor="middle" x="1185.5" y="-258.07" font-family="Times,serif" font-size="30.00">桁数を指定した整数</text>
<text text-anchor="middle" x="1185.5" y="-225.07" font-family="Times,serif" font-size="30.00">DigitInteger</text>
</g>
<!-- net.nocono.mentalarithmetic.domain.model.expression.Expression&#45;&gt;net.nocono.mentalarithmetic.domain.model.expression.token.DigitInteger -->
<g id="edge20" class="edge">
<title>net.nocono.mentalarithmetic.domain.model.expression.Expression&#45;&gt;net.nocono.mentalarithmetic.domain.model.expression.token.DigitInteger</title>
<path fill="none" stroke="black" d="M605.27,-316.71C706.05,-318.18 871.92,-316.39 1013,-295.07 1024.91,-293.27 1037.17,-290.95 1049.41,-288.31"/>
<polygon fill="black" stroke="black" points="1050.21,-291.71 1059.21,-286.12 1048.69,-284.88 1050.21,-291.71"/>
</g>
<!-- net.nocono.mentalarithmetic.domain.model.expression.token.DigitLength -->
<g id="node7" class="node">
<title>net.nocono.mentalarithmetic.domain.model.expression.token.DigitLength</title>
<polygon fill="#eedd82" stroke="black" points="1558,-183.07 1358,-183.07 1358,-109.07 1558,-109.07 1558,-183.07"/>
<text text-anchor="middle" x="1458" y="-155.07" font-family="Times,serif" font-size="30.00">整数の桁数</text>
<text text-anchor="middle" x="1458" y="-122.07" font-family="Times,serif" font-size="30.00">DigitLength</text>
</g>
<!-- net.nocono.mentalarithmetic.domain.model.expression.Expression&#45;&gt;net.nocono.mentalarithmetic.domain.model.expression.token.DigitLength -->
<g id="edge1" class="edge">
<title>net.nocono.mentalarithmetic.domain.model.expression.Expression&#45;&gt;net.nocono.mentalarithmetic.domain.model.expression.token.DigitLength</title>
<path fill="none" stroke="black" d="M568.35,-276.82C608.23,-251.84 664.28,-220.44 718,-203.07 932.93,-133.58 1200.56,-132.59 1347.57,-138.83"/>
<polygon fill="black" stroke="black" points="1347.8,-142.34 1357.95,-139.29 1348.11,-135.35 1347.8,-142.34"/>
</g>
<!-- net.nocono.mentalarithmetic.domain.model.expression.token.Operator -->
<g id="node8" class="node">
<title>net.nocono.mentalarithmetic.domain.model.expression.token.Operator</title>
<polygon fill="#eedd82" stroke="black" points="1263,-416.07 1108,-416.07 1108,-342.07 1263,-342.07 1263,-416.07"/>
<text text-anchor="middle" x="1185.5" y="-388.07" font-family="Times,serif" font-size="30.00">演算子</text>
<text text-anchor="middle" x="1185.5" y="-355.07" font-family="Times,serif" font-size="30.00">Operator</text>
</g>
<!-- net.nocono.mentalarithmetic.domain.model.expression.Expression&#45;&gt;net.nocono.mentalarithmetic.domain.model.expression.token.Operator -->
<g id="edge6" class="edge">
<title>net.nocono.mentalarithmetic.domain.model.expression.Expression&#45;&gt;net.nocono.mentalarithmetic.domain.model.expression.token.Operator</title>
<path fill="none" stroke="black" d="M605.31,-323.01C735.34,-335.59 970.71,-358.38 1097.69,-370.67"/>
<polygon fill="black" stroke="black" points="1097.47,-374.16 1107.76,-371.64 1098.15,-367.19 1097.47,-374.16"/>
</g>
<!-- net.nocono.mentalarithmetic.domain.model.expression.token.Token -->
<g id="node9" class="node">
<title>net.nocono.mentalarithmetic.domain.model.expression.token.Token</title>
<polygon fill="#eedd82" stroke="black" points="1523.5,-383.07 1392.5,-383.07 1392.5,-309.07 1523.5,-309.07 1523.5,-383.07"/>
<text text-anchor="middle" x="1458" y="-355.07" font-family="Times,serif" font-size="30.00">トークン</text>
<text text-anchor="middle" x="1458" y="-322.07" font-family="Times,serif" font-size="30.00">Token</text>
</g>
<!-- net.nocono.mentalarithmetic.domain.model.expression.Expression&#45;&gt;net.nocono.mentalarithmetic.domain.model.expression.token.Token -->
<g id="edge16" class="edge">
<title>net.nocono.mentalarithmetic.domain.model.expression.Expression&#45;&gt;net.nocono.mentalarithmetic.domain.model.expression.token.Token</title>
<path fill="none" stroke="black" d="M605.17,-336.52C640.4,-344.87 680.99,-354.22 718,-362.07 982.03,-418.08 1061.5,-495.69 1322,-425.07 1349.31,-417.67 1376.75,-403.2 1399.69,-388.65"/>
<polygon fill="black" stroke="black" points="1401.78,-391.47 1408.25,-383.09 1397.96,-385.6 1401.78,-391.47"/>
</g>
<!-- net.nocono.mentalarithmetic.domain.model.expression.ExpressionLength&#45;&gt;net.nocono.mentalarithmetic.domain.model.expression.token.DigitInteger -->
<g id="edge21" class="edge">
<title>net.nocono.mentalarithmetic.domain.model.expression.ExpressionLength&#45;&gt;net.nocono.mentalarithmetic.domain.model.expression.token.DigitInteger</title>
<path fill="none" stroke="black" d="M1013.4,-249.07C1021.73,-249.07 1030.1,-249.07 1038.43,-249.07"/>
<polygon fill="black" stroke="black" points="1038.56,-252.57 1048.56,-249.07 1038.56,-245.57 1038.56,-252.57"/>
</g>
<!-- net.nocono.mentalarithmetic.domain.model.expression.ExpressionLength&#45;&gt;net.nocono.mentalarithmetic.domain.model.expression.token.DigitLength -->
<g id="edge2" class="edge">
<title>net.nocono.mentalarithmetic.domain.model.expression.ExpressionLength&#45;&gt;net.nocono.mentalarithmetic.domain.model.expression.token.DigitLength</title>
<path fill="none" stroke="black" d="M1007.14,-212.01C1021.24,-208.78 1035.37,-205.73 1049,-203.07 1149.57,-183.43 1265.37,-167.92 1347.84,-158.07"/>
<polygon fill="black" stroke="black" points="1348.47,-161.52 1357.99,-156.87 1347.64,-154.57 1348.47,-161.52"/>
</g>
<!-- net.nocono.mentalarithmetic.domain.model.expression.ExpressionLength&#45;&gt;net.nocono.mentalarithmetic.domain.model.expression.token.Operator -->
<g id="edge7" class="edge">
<title>net.nocono.mentalarithmetic.domain.model.expression.ExpressionLength&#45;&gt;net.nocono.mentalarithmetic.domain.model.expression.token.Operator</title>
<path fill="none" stroke="black" d="M949.73,-286.11C980.75,-299.65 1016.35,-314.87 1049,-328.07 1064.88,-334.49 1081.9,-341.1 1098.33,-347.36"/>
<polygon fill="black" stroke="black" points="1097.34,-350.72 1107.93,-350.99 1099.82,-344.17 1097.34,-350.72"/>
</g>
<!-- net.nocono.mentalarithmetic.domain.model.expression.ExpressionLength&#45;&gt;net.nocono.mentalarithmetic.domain.model.expression.token.Token -->
<g id="edge17" class="edge">
<title>net.nocono.mentalarithmetic.domain.model.expression.ExpressionLength&#45;&gt;net.nocono.mentalarithmetic.domain.model.expression.token.Token</title>
<path fill="none" stroke="black" d="M1006.11,-286.11C1020.54,-289.39 1035.03,-292.45 1049,-295.07 1111.15,-306.74 1282.68,-326.68 1382.44,-337.86"/>
<polygon fill="black" stroke="black" points="1382.13,-341.35 1392.45,-338.98 1382.9,-334.39 1382.13,-341.35"/>
</g>
<!-- net.nocono.mentalarithmetic.domain.model.expression.token.DigitInteger&#45;&gt;net.nocono.mentalarithmetic.domain.model.expression.token.DigitLength -->
<g id="edge3" class="edge">
<title>net.nocono.mentalarithmetic.domain.model.expression.token.DigitInteger&#45;&gt;net.nocono.mentalarithmetic.domain.model.expression.token.DigitLength</title>
<path fill="none" stroke="black" d="M1285.33,-211.97C1297.68,-207.31 1310.14,-202.59 1322,-198.07 1331.61,-194.41 1341.59,-190.6 1351.59,-186.76"/>
<polygon fill="black" stroke="black" points="1353.08,-189.94 1361.16,-183.09 1350.57,-183.4 1353.08,-189.94"/>
</g>
<!-- net.nocono.mentalarithmetic.domain.model.expression.token.DigitInteger&#45;&gt;net.nocono.mentalarithmetic.domain.model.expression.token.Token -->
<g id="edge18" class="edge">
<title>net.nocono.mentalarithmetic.domain.model.expression.token.DigitInteger&#45;&gt;net.nocono.mentalarithmetic.domain.model.expression.token.Token</title>
<path fill="none" stroke="black" d="M1289.92,-286.16C1320.88,-297.26 1354.19,-309.2 1382.86,-319.48"/>
<polygon fill="black" stroke="black" points="1381.8,-322.82 1392.4,-322.9 1384.16,-316.23 1381.8,-322.82"/>
</g>
<!-- net.nocono.mentalarithmetic.domain.model.expression.token.Operator&#45;&gt;net.nocono.mentalarithmetic.domain.model.expression.token.Token -->
<g id="edge19" class="edge">
<title>net.nocono.mentalarithmetic.domain.model.expression.token.Operator&#45;&gt;net.nocono.mentalarithmetic.domain.model.expression.token.Token</title>
<path fill="none" stroke="black" d="M1263.29,-369.7C1300.55,-365.16 1345.15,-359.72 1382.15,-355.2"/>
<polygon fill="black" stroke="black" points="1382.87,-358.64 1392.38,-353.95 1382.02,-351.69 1382.87,-358.64"/>
</g>
<!-- net.nocono.mentalarithmetic.domain.model.level.Level -->
<g id="node10" class="node">
<title>net.nocono.mentalarithmetic.domain.model.level.Level</title>
<polygon fill="lemonchiffon" stroke="black" points="541.5,-179.07 482.5,-179.07 482.5,-141.07 541.5,-141.07 541.5,-179.07"/>
<text text-anchor="middle" x="512" y="-163.87" font-family="Times,serif" font-size="14.00">難易度</text>
<text text-anchor="middle" x="512" y="-148.87" font-family="Times,serif" font-size="14.00">Level</text>
</g>
<!-- net.nocono.mentalarithmetic.domain.model.level.Level&#45;&gt;net.nocono.mentalarithmetic.domain.model.expression.ExpressionLength -->
<g id="edge12" class="edge">
<title>net.nocono.mentalarithmetic.domain.model.level.Level&#45;&gt;net.nocono.mentalarithmetic.domain.model.expression.ExpressionLength</title>
<path fill="none" stroke="black" d="M541.76,-167.35C578.57,-176.67 645.14,-193.53 708.3,-209.52"/>
<polygon fill="black" stroke="black" points="707.44,-212.91 717.99,-211.97 709.16,-206.13 707.44,-212.91"/>
</g>
<!-- net.nocono.mentalarithmetic.domain.model.level.Level&#45;&gt;net.nocono.mentalarithmetic.domain.model.expression.token.DigitLength -->
<g id="edge4" class="edge">
<title>net.nocono.mentalarithmetic.domain.model.level.Level&#45;&gt;net.nocono.mentalarithmetic.domain.model.expression.token.DigitLength</title>
<path fill="none" stroke="black" d="M541.73,-154.89C581.27,-148.05 654.75,-136.37 718,-132.07 985.83,-113.86 1053.91,-118.21 1322,-132.07 1330.37,-132.5 1339.02,-133.09 1347.72,-133.77"/>
<polygon fill="black" stroke="black" points="1347.67,-137.28 1357.93,-134.61 1348.25,-130.3 1347.67,-137.28"/>
</g>
<!-- net.nocono.mentalarithmetic.domain.model.question.Question&#45;&gt;net.nocono.mentalarithmetic.domain.model.expression.CalculationResult -->
<g id="edge10" class="edge">
<title>net.nocono.mentalarithmetic.domain.model.question.Question&#45;&gt;net.nocono.mentalarithmetic.domain.model.expression.CalculationResult</title>
<path fill="none" stroke="black" d="M306.03,-349.44C317.92,-353.51 330.19,-357.24 342,-360.07 415.94,-377.77 618.03,-356.99 682,-398.07 708.17,-414.87 693.87,-438.45 718,-458.07 721.72,-461.1 725.64,-463.95 729.7,-466.64"/>
<polygon fill="black" stroke="black" points="727.88,-469.63 738.22,-471.92 731.57,-463.68 727.88,-469.63"/>
</g>
<!-- net.nocono.mentalarithmetic.domain.model.question.Question&#45;&gt;net.nocono.mentalarithmetic.domain.model.expression.Expression -->
<g id="edge15" class="edge">
<title>net.nocono.mentalarithmetic.domain.model.question.Question&#45;&gt;net.nocono.mentalarithmetic.domain.model.expression.Expression</title>
<path fill="none" stroke="black" d="M306.04,-316.99C337.56,-316.54 374.61,-316.01 408.48,-315.53"/>
<polygon fill="black" stroke="black" points="408.93,-319.02 418.88,-315.38 408.83,-312.02 408.93,-319.02"/>
</g>
<!-- net.nocono.mentalarithmetic.domain.model.question.Question&#45;&gt;net.nocono.mentalarithmetic.domain.model.expression.ExpressionLength -->
<g id="edge13" class="edge">
<title>net.nocono.mentalarithmetic.domain.model.question.Question&#45;&gt;net.nocono.mentalarithmetic.domain.model.expression.ExpressionLength</title>
<path fill="none" stroke="black" d="M302.4,-280.96C315.3,-275.74 328.83,-271.13 342,-268.07 462.56,-240.08 602.92,-236.52 707.79,-239.3"/>
<polygon fill="black" stroke="black" points="707.73,-242.8 717.83,-239.59 707.93,-235.8 707.73,-242.8"/>
</g>
<!-- net.nocono.mentalarithmetic.domain.model.question.Question&#45;&gt;net.nocono.mentalarithmetic.domain.model.expression.token.ComparisonOperator -->
<g id="edge25" class="edge">
<title>net.nocono.mentalarithmetic.domain.model.question.Question&#45;&gt;net.nocono.mentalarithmetic.domain.model.expression.token.ComparisonOperator</title>
<path fill="none" stroke="black" d="M278.57,-355.19C297.6,-368.48 320.1,-382.72 342,-393.07 349.57,-396.65 357.44,-400.04 365.48,-403.25"/>
<polygon fill="black" stroke="black" points="364.38,-406.58 374.97,-406.93 366.91,-400.05 364.38,-406.58"/>
</g>
<!-- net.nocono.mentalarithmetic.domain.model.question.Question&#45;&gt;net.nocono.mentalarithmetic.domain.model.expression.token.DigitLength -->
<g id="edge5" class="edge">
<title>net.nocono.mentalarithmetic.domain.model.question.Question&#45;&gt;net.nocono.mentalarithmetic.domain.model.expression.token.DigitLength</title>
<path fill="none" stroke="black" d="M240.51,-281.05C255.22,-236.91 286.57,-164.97 342,-132.07 664.22,59.18 1136.57,-46.77 1347.85,-109.84"/>
<polygon fill="black" stroke="black" points="1347.12,-113.27 1357.71,-112.81 1349.14,-106.57 1347.12,-113.27"/>
</g>
<!-- net.nocono.mentalarithmetic.domain.model.result.CorrectResult -->
<g id="node12" class="node">
<title>net.nocono.mentalarithmetic.domain.model.result.CorrectResult</title>
<polygon fill="lemonchiffon" stroke="black" points="116,-337.07 0,-337.07 0,-299.07 116,-299.07 116,-337.07"/>
<text text-anchor="middle" x="58" y="-321.87" font-family="Times,serif" font-size="14.00">正解か不正解か</text>
<text text-anchor="middle" x="58" y="-306.87" font-family="Times,serif" font-size="14.00">CorrectResult</text>
</g>
<!-- net.nocono.mentalarithmetic.domain.model.result.CorrectResult&#45;&gt;net.nocono.mentalarithmetic.domain.model.question.Question -->
<g id="edge23" class="edge">
<title>net.nocono.mentalarithmetic.domain.model.result.CorrectResult&#45;&gt;net.nocono.mentalarithmetic.domain.model.question.Question</title>
<path fill="none" stroke="black" d="M116.22,-318.07C124.47,-318.07 133.12,-318.07 141.8,-318.07"/>
<polygon fill="black" stroke="black" points="141.97,-321.57 151.97,-318.07 141.97,-314.57 141.97,-321.57"/>
</g>
</g>
</svg>
