<?xml version="1.0" encoding="UTF-8" standalone="no"?>
<!DOCTYPE svg PUBLIC "-//W3C//DTD SVG 1.1//EN"
 "http://www.w3.org/Graphics/SVG/1.1/DTD/svg11.dtd">
<!-- Generated by graphviz version 2.43.0 (0)
 -->
<!-- Title: CategoryDiagram Pages: 1 -->
<svg width="638pt" height="591pt"
 viewBox="0.00 0.00 638.00 591.00" xmlns="http://www.w3.org/2000/svg" xmlns:xlink="http://www.w3.org/1999/xlink">
<g id="graph0" class="graph" transform="scale(1 1) rotate(0) translate(4 564)">
<title>CategoryDiagram</title>
<polygon fill="white" stroke="transparent" points="-4,27 -4,-564 634,-564 634,27 -4,27"/>
<text text-anchor="middle" x="315" y="15.2" font-family="Times,serif" font-size="14.00">CategoryDiagram</text>
<g id="clust1" class="cluster">
<title>cluster_net.nocono.mentalarithmetic.domain.model.level</title>
<polygon fill="none" stroke="lightgray" points="364.24,-415.64 364.24,-559.64 456.24,-559.64 456.24,-415.64 364.24,-415.64"/>
<text text-anchor="middle" x="410.24" y="-544.44" font-family="Times,serif" font-size="14.00">level</text>
</g>
<g id="clust2" class="cluster">
<title>cluster_net.nocono.mentalarithmetic.domain.model.result</title>
<polygon fill="none" stroke="lightgray" points="494.24,-416.14 494.24,-539.14 630.24,-539.14 630.24,-416.14 494.24,-416.14"/>
<text text-anchor="middle" x="562.24" y="-523.94" font-family="Times,serif" font-size="14.00">result</text>
</g>
<g id="clust3" class="cluster">
<title>cluster_net.nocono.mentalarithmetic.domain.model.expression</title>
<polygon fill="none" stroke="lightgray" points="0.24,0.36 0.24,-371.64 504.24,-371.64 504.24,0.36 0.24,0.36"/>
<text text-anchor="middle" x="252.24" y="-356.44" font-family="Times,serif" font-size="14.00">expression</text>
</g>
<g id="clust4" class="cluster">
<title>cluster_net.nocono.mentalarithmetic.domain.model.expression.token</title>
<polygon fill="none" stroke="lightgray" points="8.48,-7.78 8.48,-340.78 298.48,-340.78 298.48,-7.78 8.48,-7.78"/>
<text text-anchor="middle" x="153.48" y="-325.58" font-family="Times,serif" font-size="14.00">token</text>
</g>
<g id="clust5" class="cluster">
<title>cluster_net.nocono.mentalarithmetic.domain.model.answer</title>
<polygon fill="none" stroke="lightgray" points="234.24,-416.14 234.24,-539.14 324.24,-539.14 324.24,-416.14 234.24,-416.14"/>
<text text-anchor="middle" x="279.24" y="-523.94" font-family="Times,serif" font-size="14.00">answer</text>
</g>
<!-- net.nocono.mentalarithmetic.domain.model.level.Level -->
<g id="node1" class="node">
<title>net.nocono.mentalarithmetic.domain.model.level.Level</title>
<polygon fill="#eedd82" stroke="black" points="448.48,-528.78 372.48,-528.78 372.48,-423.78 448.48,-423.78 448.48,-528.78"/>
<text text-anchor="start" x="388.98" y="-511.08" font-family="Times,serif" font-size="14.00">難易度</text>
<text text-anchor="start" x="390.98" y="-496.08" font-family="Times,serif" font-size="14.00">Level</text>
<polygon fill="none" stroke="black" points="380.48,-469.28 380.48,-490.28 440.48,-490.28 440.48,-469.28 380.48,-469.28"/>
<text text-anchor="start" x="392.98" y="-476.08" font-family="Times,serif" font-size="14.00">Easy</text>
<polygon fill="none" stroke="black" points="380.48,-448.28 380.48,-469.28 440.48,-469.28 440.48,-448.28 380.48,-448.28"/>
<text text-anchor="start" x="383.48" y="-455.08" font-family="Times,serif" font-size="14.00">Normal</text>
<polygon fill="none" stroke="black" points="380.48,-427.28 380.48,-448.28 440.48,-448.28 440.48,-427.28 380.48,-427.28"/>
<text text-anchor="start" x="391.98" y="-434.08" font-family="Times,serif" font-size="14.00">Hard</text>
</g>
<!-- net.nocono.mentalarithmetic.domain.model.result.CorrectResult -->
<g id="node2" class="node">
<title>net.nocono.mentalarithmetic.domain.model.result.CorrectResult</title>
<polygon fill="lemonchiffon" stroke="black" points="622.48,-507.78 502.48,-507.78 502.48,-423.78 622.48,-423.78 622.48,-507.78"/>
<text text-anchor="start" x="512.48" y="-490.58" font-family="Times,serif" font-size="14.00">正解か不正解か</text>
<text text-anchor="start" x="512.48" y="-475.58" font-family="Times,serif" font-size="14.00">CorrectResult</text>
<polygon fill="none" stroke="black" points="510.48,-448.78 510.48,-469.78 614.48,-469.78 614.48,-448.78 510.48,-448.78"/>
<text text-anchor="start" x="547.98" y="-455.58" font-family="Times,serif" font-size="14.00">正解</text>
<polygon fill="none" stroke="black" points="510.48,-427.78 510.48,-448.78 614.48,-448.78 614.48,-427.78 510.48,-427.78"/>
<text text-anchor="start" x="540.98" y="-434.58" font-family="Times,serif" font-size="14.00">不正解</text>
</g>
<!-- net.nocono.mentalarithmetic.domain.model.expression.ExpressionLength -->
<g id="node3" class="node">
<title>net.nocono.mentalarithmetic.domain.model.expression.ExpressionLength</title>
<polygon fill="#eedd82" stroke="black" points="496.48,-91.28 346.48,-91.28 346.48,-7.28 496.48,-7.28 496.48,-91.28"/>
<text text-anchor="start" x="392.48" y="-74.08" font-family="Times,serif" font-size="14.00">式の長さ</text>
<text text-anchor="start" x="356.48" y="-59.08" font-family="Times,serif" font-size="14.00">ExpressionLength</text>
<polygon fill="none" stroke="black" points="354.48,-32.28 354.48,-53.28 488.48,-53.28 488.48,-32.28 354.48,-32.28"/>
<text text-anchor="start" x="395.48" y="-39.08" font-family="Times,serif" font-size="14.00">数字2個</text>
<polygon fill="none" stroke="black" points="354.48,-11.28 354.48,-32.28 488.48,-32.28 488.48,-11.28 354.48,-11.28"/>
<text text-anchor="start" x="395.48" y="-18.08" font-family="Times,serif" font-size="14.00">数字3個</text>
</g>
<!-- net.nocono.mentalarithmetic.domain.model.expression.token.ComparisonOperator -->
<g id="node4" class="node">
<title>net.nocono.mentalarithmetic.domain.model.expression.token.ComparisonOperator</title>
<polygon fill="#eedd82" stroke="black" points="187.21,-162.92 16.21,-162.92 16.21,-15.92 187.21,-15.92 187.21,-162.92"/>
<text text-anchor="start" x="66.21" y="-145.22" font-family="Times,serif" font-size="14.00">比較演算子</text>
<text text-anchor="start" x="26.71" y="-130.22" font-family="Times,serif" font-size="14.00">ComparisonOperator</text>
<polygon fill="none" stroke="black" points="24.71,-103.42 24.71,-124.42 179.71,-124.42 179.71,-103.42 24.71,-103.42"/>
<text text-anchor="start" x="73.21" y="-110.22" font-family="Times,serif" font-size="14.00">イコール</text>
<polygon fill="none" stroke="black" points="24.71,-82.42 24.71,-103.42 179.71,-103.42 179.71,-82.42 24.71,-82.42"/>
<text text-anchor="start" x="87.71" y="-89.22" font-family="Times,serif" font-size="14.00">以上</text>
<polygon fill="none" stroke="black" points="24.71,-61.42 24.71,-82.42 179.71,-82.42 179.71,-61.42 24.71,-61.42"/>
<text text-anchor="start" x="66.21" y="-68.22" font-family="Times,serif" font-size="14.00">より大きい</text>
<polygon fill="none" stroke="black" points="24.71,-40.42 24.71,-61.42 179.71,-61.42 179.71,-40.42 24.71,-40.42"/>
<text text-anchor="start" x="87.71" y="-47.22" font-family="Times,serif" font-size="14.00">以下</text>
<polygon fill="none" stroke="black" points="24.71,-19.42 24.71,-40.42 179.71,-40.42 179.71,-19.42 24.71,-19.42"/>
<text text-anchor="start" x="66.21" y="-26.22" font-family="Times,serif" font-size="14.00">より小さい</text>
</g>
<!-- net.nocono.mentalarithmetic.domain.model.expression.token.Operator -->
<g id="node5" class="node">
<title>net.nocono.mentalarithmetic.domain.model.expression.token.Operator</title>
<polygon fill="#eedd82" stroke="black" points="157.21,-309.42 72.21,-309.42 72.21,-183.42 157.21,-183.42 157.21,-309.42"/>
<text text-anchor="start" x="93.71" y="-292.22" font-family="Times,serif" font-size="14.00">演算子</text>
<text text-anchor="start" x="82.71" y="-277.22" font-family="Times,serif" font-size="14.00">Operator</text>
<polygon fill="none" stroke="black" points="80.71,-250.42 80.71,-271.42 149.71,-271.42 149.71,-250.42 80.71,-250.42"/>
<text text-anchor="start" x="100.71" y="-257.22" font-family="Times,serif" font-size="14.00">足す</text>
<polygon fill="none" stroke="black" points="80.71,-229.42 80.71,-250.42 149.71,-250.42 149.71,-229.42 80.71,-229.42"/>
<text text-anchor="start" x="100.71" y="-236.22" font-family="Times,serif" font-size="14.00">引く</text>
<polygon fill="none" stroke="black" points="80.71,-208.42 80.71,-229.42 149.71,-229.42 149.71,-208.42 80.71,-208.42"/>
<text text-anchor="start" x="93.71" y="-215.22" font-family="Times,serif" font-size="14.00">掛ける</text>
<polygon fill="none" stroke="black" points="80.71,-187.42 80.71,-208.42 149.71,-208.42 149.71,-187.42 80.71,-187.42"/>
<text text-anchor="start" x="100.71" y="-194.22" font-family="Times,serif" font-size="14.00">割る</text>
</g>
<!-- net.nocono.mentalarithmetic.domain.model.expression.token.DigitLength -->
<g id="node6" class="node">
<title>net.nocono.mentalarithmetic.domain.model.expression.token.DigitLength</title>
<polygon fill="#eedd82" stroke="black" points="290.71,-288.92 184.71,-288.92 184.71,-183.92 290.71,-183.92 290.71,-288.92"/>
<text text-anchor="start" x="201.71" y="-271.22" font-family="Times,serif" font-size="14.00">整数の桁数</text>
<text text-anchor="start" x="194.71" y="-256.22" font-family="Times,serif" font-size="14.00">DigitLength</text>
<polygon fill="none" stroke="black" points="192.71,-229.42 192.71,-250.42 282.71,-250.42 282.71,-229.42 192.71,-229.42"/>
<text text-anchor="start" x="223.21" y="-236.22" font-family="Times,serif" font-size="14.00">一桁</text>
<polygon fill="none" stroke="black" points="192.71,-208.42 192.71,-229.42 282.71,-229.42 282.71,-208.42 192.71,-208.42"/>
<text text-anchor="start" x="223.21" y="-215.22" font-family="Times,serif" font-size="14.00">二桁</text>
<polygon fill="none" stroke="black" points="192.71,-187.42 192.71,-208.42 282.71,-208.42 282.71,-187.42 192.71,-187.42"/>
<text text-anchor="start" x="223.21" y="-194.22" font-family="Times,serif" font-size="14.00">三桁</text>
</g>
<!-- net.nocono.mentalarithmetic.domain.model.answer.Answer -->
<g id="node7" class="node">
<title>net.nocono.mentalarithmetic.domain.model.answer.Answer</title>
<polygon fill="lemonchiffon" stroke="black" points="316.48,-507.78 242.48,-507.78 242.48,-423.78 316.48,-423.78 316.48,-507.78"/>
<text text-anchor="start" x="264.98" y="-490.58" font-family="Times,serif" font-size="14.00">解答</text>
<text text-anchor="start" x="252.48" y="-475.58" font-family="Times,serif" font-size="14.00">Answer</text>
<polygon fill="none" stroke="black" points="250.48,-448.78 250.48,-469.78 308.48,-469.78 308.48,-448.78 250.48,-448.78"/>
<text text-anchor="start" x="264.98" y="-455.58" font-family="Times,serif" font-size="14.00">マル</text>
<polygon fill="none" stroke="black" points="250.48,-427.78 250.48,-448.78 308.48,-448.78 308.48,-427.78 250.48,-427.78"/>
<text text-anchor="start" x="264.98" y="-434.58" font-family="Times,serif" font-size="14.00">バツ</text>
</g>
</g>
</svg>
