<?xml version="1.0" encoding="UTF-8" standalone="no"?>
<!DOCTYPE svg PUBLIC "-//W3C//DTD SVG 1.1//EN"
 "http://www.w3.org/Graphics/SVG/1.1/DTD/svg11.dtd">
<!-- Generated by graphviz version 2.43.0 (0)
 -->
<!-- Title: CategoryUsageDiagram Pages: 1 -->
<svg width="965pt" height="573pt"
 viewBox="0.00 0.00 965.27 572.74" xmlns="http://www.w3.org/2000/svg" xmlns:xlink="http://www.w3.org/1999/xlink">
<g id="graph0" class="graph" transform="scale(1 1) rotate(0) translate(4 568.74)">
<title>CategoryUsageDiagram</title>
<polygon fill="white" stroke="transparent" points="-4,4 -4,-568.74 961.27,-568.74 961.27,4 -4,4"/>
<text text-anchor="middle" x="478.63" y="-7.8" font-family="Times,serif" font-size="14.00">CategoryUsageDiagram</text>
<!-- net.nocono.mentalarithmetic.domain.model.answer.Answer -->
<g id="node1" class="node">
<title>net.nocono.mentalarithmetic.domain.model.answer.Answer</title>
<polygon fill="#eedd82" stroke="black" points="908.77,-437 842.77,-437 838.77,-433 838.77,-399 904.77,-399 908.77,-403 908.77,-437"/>
<polyline fill="none" stroke="black" points="904.77,-433 838.77,-433 "/>
<polyline fill="none" stroke="black" points="904.77,-433 904.77,-399 "/>
<polyline fill="none" stroke="black" points="904.77,-433 908.77,-437 "/>
<text text-anchor="middle" x="873.77" y="-421.8" font-family="Times,serif" font-size="14.00">解答</text>
<text text-anchor="middle" x="873.77" y="-406.8" font-family="Times,serif" font-size="14.00">Answer</text>
</g>
<!-- net.nocono.mentalarithmetic.domain.model.expression.token.ComparisonOperator -->
<g id="node3" class="node">
<title>net.nocono.mentalarithmetic.domain.model.expression.token.ComparisonOperator</title>
<polygon fill="lemonchiffon" stroke="black" points="957.27,-381 794.27,-381 790.27,-377 790.27,-343 953.27,-343 957.27,-347 957.27,-381"/>
<polyline fill="none" stroke="black" points="953.27,-377 790.27,-377 "/>
<polyline fill="none" stroke="black" points="953.27,-377 953.27,-343 "/>
<polyline fill="none" stroke="black" points="953.27,-377 957.27,-381 "/>
<text text-anchor="middle" x="873.77" y="-365.8" font-family="Times,serif" font-size="14.00">比較演算子</text>
<text text-anchor="middle" x="873.77" y="-350.8" font-family="Times,serif" font-size="14.00">ComparisonOperator</text>
</g>
<!-- net.nocono.mentalarithmetic.domain.model.answer.Answer&#45;&gt;net.nocono.mentalarithmetic.domain.model.expression.token.ComparisonOperator -->
<g id="edge12" class="edge">
<title>net.nocono.mentalarithmetic.domain.model.answer.Answer&#45;&gt;net.nocono.mentalarithmetic.domain.model.expression.token.ComparisonOperator</title>
<path fill="none" stroke="black" d="M873.77,-398.76C873.77,-396.3 873.77,-393.84 873.77,-391.38"/>
<polygon fill="black" stroke="black" points="877.27,-391.25 873.77,-381.25 870.27,-391.25 877.27,-391.25"/>
</g>
<!-- net.nocono.mentalarithmetic.domain.model.expression.Expression -->
<g id="node10" class="node">
<title>net.nocono.mentalarithmetic.domain.model.expression.Expression</title>
<polygon fill="white" stroke="black" points="573.27,-163 477.27,-163 477.27,-125 573.27,-125 573.27,-163"/>
<text text-anchor="middle" x="525.27" y="-147.8" font-family="Times,serif" font-size="14.00">数式</text>
<text text-anchor="middle" x="525.27" y="-132.8" font-family="Times,serif" font-size="14.00">Expression</text>
</g>
<!-- net.nocono.mentalarithmetic.domain.model.answer.Answer&#45;&gt;net.nocono.mentalarithmetic.domain.model.expression.Expression -->
<g id="edge14" class="edge">
<title>net.nocono.mentalarithmetic.domain.model.answer.Answer&#45;&gt;net.nocono.mentalarithmetic.domain.model.expression.Expression</title>
<path fill="none" stroke="black" d="M838.44,-409.88C823.05,-405.37 805.07,-398.85 790.27,-390 687.11,-328.35 590.32,-220.97 548.28,-171.01"/>
<polygon fill="black" stroke="black" points="550.87,-168.65 541.77,-163.21 545.49,-173.13 550.87,-168.65"/>
</g>
<!-- net.nocono.mentalarithmetic.domain.model.question.Question -->
<g id="node12" class="node">
<title>net.nocono.mentalarithmetic.domain.model.question.Question</title>
<polygon fill="white" stroke="black" points="441.27,-305 361.27,-305 361.27,-267 441.27,-267 441.27,-305"/>
<text text-anchor="middle" x="401.27" y="-289.8" font-family="Times,serif" font-size="14.00">問題</text>
<text text-anchor="middle" x="401.27" y="-274.8" font-family="Times,serif" font-size="14.00">Question</text>
</g>
<!-- net.nocono.mentalarithmetic.domain.model.answer.Answer&#45;&gt;net.nocono.mentalarithmetic.domain.model.question.Question -->
<g id="edge11" class="edge">
<title>net.nocono.mentalarithmetic.domain.model.answer.Answer&#45;&gt;net.nocono.mentalarithmetic.domain.model.question.Question</title>
<path fill="none" stroke="black" d="M838.52,-411.95C769.13,-399.19 607.47,-366.85 477.27,-321 467.82,-317.67 457.95,-313.56 448.59,-309.34"/>
<polygon fill="black" stroke="black" points="449.98,-306.12 439.44,-305.1 447.04,-312.48 449.98,-306.12"/>
</g>
<!-- net.nocono.mentalarithmetic.domain.model.expression.ExpressionLength -->
<g id="node2" class="node">
<title>net.nocono.mentalarithmetic.domain.model.expression.ExpressionLength</title>
<polygon fill="lemonchiffon" stroke="black" points="946.77,-173 804.77,-173 800.77,-169 800.77,-135 942.77,-135 946.77,-139 946.77,-173"/>
<polyline fill="none" stroke="black" points="942.77,-169 800.77,-169 "/>
<polyline fill="none" stroke="black" points="942.77,-169 942.77,-135 "/>
<polyline fill="none" stroke="black" points="942.77,-169 946.77,-173 "/>
<text text-anchor="middle" x="873.77" y="-157.8" font-family="Times,serif" font-size="14.00">式の長さ</text>
<text text-anchor="middle" x="873.77" y="-142.8" font-family="Times,serif" font-size="14.00">ExpressionLength</text>
</g>
<!-- net.nocono.mentalarithmetic.domain.model.expression.token.DigitLength -->
<g id="node4" class="node">
<title>net.nocono.mentalarithmetic.domain.model.expression.token.DigitLength</title>
<polygon fill="lemonchiffon" stroke="black" points="924.77,-61 826.77,-61 822.77,-57 822.77,-23 920.77,-23 924.77,-27 924.77,-61"/>
<polyline fill="none" stroke="black" points="920.77,-57 822.77,-57 "/>
<polyline fill="none" stroke="black" points="920.77,-57 920.77,-23 "/>
<polyline fill="none" stroke="black" points="920.77,-57 924.77,-61 "/>
<text text-anchor="middle" x="873.77" y="-45.8" font-family="Times,serif" font-size="14.00">整数の桁数</text>
<text text-anchor="middle" x="873.77" y="-30.8" font-family="Times,serif" font-size="14.00">DigitLength</text>
</g>
<!-- net.nocono.mentalarithmetic.domain.model.expression.ExpressionLength&#45;&gt;net.nocono.mentalarithmetic.domain.model.expression.token.DigitLength -->
<g id="edge17" class="edge">
<title>net.nocono.mentalarithmetic.domain.model.expression.ExpressionLength&#45;&gt;net.nocono.mentalarithmetic.domain.model.expression.token.DigitLength</title>
<path fill="none" stroke="black" d="M800.54,-140.88C789.13,-135.43 778.92,-127.77 772.27,-117 763.39,-102.63 763.39,-93.37 772.27,-79 781.29,-64.4 796.84,-55.51 813.09,-50.11"/>
<polygon fill="black" stroke="black" points="814.07,-53.47 822.7,-47.32 812.12,-46.75 814.07,-53.47"/>
</g>
<!-- net.nocono.mentalarithmetic.domain.model.expression.token.Operator -->
<g id="node5" class="node">
<title>net.nocono.mentalarithmetic.domain.model.expression.token.Operator</title>
<polygon fill="lemonchiffon" stroke="black" points="914.27,-117 837.27,-117 833.27,-113 833.27,-79 910.27,-79 914.27,-83 914.27,-117"/>
<polyline fill="none" stroke="black" points="910.27,-113 833.27,-113 "/>
<polyline fill="none" stroke="black" points="910.27,-113 910.27,-79 "/>
<polyline fill="none" stroke="black" points="910.27,-113 914.27,-117 "/>
<text text-anchor="middle" x="873.77" y="-101.8" font-family="Times,serif" font-size="14.00">演算子</text>
<text text-anchor="middle" x="873.77" y="-86.8" font-family="Times,serif" font-size="14.00">Operator</text>
</g>
<!-- net.nocono.mentalarithmetic.domain.model.expression.ExpressionLength&#45;&gt;net.nocono.mentalarithmetic.domain.model.expression.token.Operator -->
<g id="edge1" class="edge">
<title>net.nocono.mentalarithmetic.domain.model.expression.ExpressionLength&#45;&gt;net.nocono.mentalarithmetic.domain.model.expression.token.Operator</title>
<path fill="none" stroke="black" d="M873.77,-134.76C873.77,-132.3 873.77,-129.84 873.77,-127.38"/>
<polygon fill="black" stroke="black" points="877.27,-127.25 873.77,-117.25 870.27,-127.25 877.27,-127.25"/>
</g>
<!-- net.nocono.mentalarithmetic.domain.model.expression.token.DigitInteger -->
<g id="node11" class="node">
<title>net.nocono.mentalarithmetic.domain.model.expression.token.DigitInteger</title>
<polygon fill="white" stroke="black" points="754.27,-144 609.27,-144 609.27,-106 754.27,-106 754.27,-144"/>
<text text-anchor="middle" x="681.77" y="-128.8" font-family="Times,serif" font-size="14.00">桁数を指定した整数</text>
<text text-anchor="middle" x="681.77" y="-113.8" font-family="Times,serif" font-size="14.00">DigitInteger</text>
</g>
<!-- net.nocono.mentalarithmetic.domain.model.expression.ExpressionLength&#45;&gt;net.nocono.mentalarithmetic.domain.model.expression.token.DigitInteger -->
<g id="edge15" class="edge">
<title>net.nocono.mentalarithmetic.domain.model.expression.ExpressionLength&#45;&gt;net.nocono.mentalarithmetic.domain.model.expression.token.DigitInteger</title>
<path fill="none" stroke="black" d="M800.64,-142.99C788.79,-141.18 776.44,-139.3 764.37,-137.46"/>
<polygon fill="black" stroke="black" points="764.74,-133.97 754.33,-135.92 763.69,-140.89 764.74,-133.97"/>
</g>
<!-- net.nocono.mentalarithmetic.domain.model.level.Level -->
<g id="node6" class="node">
<title>net.nocono.mentalarithmetic.domain.model.level.Level</title>
<polygon fill="lemonchiffon" stroke="black" points="903.27,-229 848.27,-229 844.27,-225 844.27,-191 899.27,-191 903.27,-195 903.27,-229"/>
<polyline fill="none" stroke="black" points="899.27,-225 844.27,-225 "/>
<polyline fill="none" stroke="black" points="899.27,-225 899.27,-191 "/>
<polyline fill="none" stroke="black" points="899.27,-225 903.27,-229 "/>
<text text-anchor="middle" x="873.77" y="-213.8" font-family="Times,serif" font-size="14.00">難易度</text>
<text text-anchor="middle" x="873.77" y="-198.8" font-family="Times,serif" font-size="14.00">Level</text>
</g>
<!-- net.nocono.mentalarithmetic.domain.model.level.Level&#45;&gt;net.nocono.mentalarithmetic.domain.model.expression.ExpressionLength -->
<g id="edge9" class="edge">
<title>net.nocono.mentalarithmetic.domain.model.level.Level&#45;&gt;net.nocono.mentalarithmetic.domain.model.expression.ExpressionLength</title>
<path fill="none" stroke="black" d="M873.77,-190.76C873.77,-188.3 873.77,-185.84 873.77,-183.38"/>
<polygon fill="black" stroke="black" points="877.27,-183.25 873.77,-173.25 870.27,-183.25 877.27,-183.25"/>
</g>
<!-- net.nocono.mentalarithmetic.domain.model.level.Level&#45;&gt;net.nocono.mentalarithmetic.domain.model.expression.token.DigitLength -->
<g id="edge16" class="edge">
<title>net.nocono.mentalarithmetic.domain.model.level.Level&#45;&gt;net.nocono.mentalarithmetic.domain.model.expression.token.DigitLength</title>
<path fill="none" stroke="black" d="M844.07,-208.59C819.8,-205.64 787.16,-197.09 772.27,-173 750.31,-137.46 750.31,-114.54 772.27,-79 781.29,-64.4 796.84,-55.51 813.09,-50.11"/>
<polygon fill="black" stroke="black" points="814.07,-53.47 822.7,-47.32 812.12,-46.75 814.07,-53.47"/>
</g>
<!-- net.nocono.mentalarithmetic.domain.model.result.CorrectResult -->
<g id="node7" class="node">
<title>net.nocono.mentalarithmetic.domain.model.result.CorrectResult</title>
<polygon fill="#eedd82" stroke="black" points="931.77,-517 819.77,-517 815.77,-513 815.77,-479 927.77,-479 931.77,-483 931.77,-517"/>
<polyline fill="none" stroke="black" points="927.77,-513 815.77,-513 "/>
<polyline fill="none" stroke="black" points="927.77,-513 927.77,-479 "/>
<polyline fill="none" stroke="black" points="927.77,-513 931.77,-517 "/>
<text text-anchor="middle" x="873.77" y="-501.8" font-family="Times,serif" font-size="14.00">正解か不正解か</text>
<text text-anchor="middle" x="873.77" y="-486.8" font-family="Times,serif" font-size="14.00">CorrectResult</text>
</g>
<!-- net.nocono.mentalarithmetic.domain.model.result.CorrectResult&#45;&gt;net.nocono.mentalarithmetic.domain.model.answer.Answer -->
<g id="edge3" class="edge">
<title>net.nocono.mentalarithmetic.domain.model.result.CorrectResult&#45;&gt;net.nocono.mentalarithmetic.domain.model.answer.Answer</title>
<path fill="none" stroke="black" d="M873.77,-478.96C873.77,-468.37 873.77,-457.79 873.77,-447.21"/>
<polygon fill="black" stroke="black" points="877.27,-447.06 873.77,-437.06 870.27,-447.06 877.27,-447.06"/>
</g>
<!-- net.nocono.mentalarithmetic.domain.model.result.CorrectResult&#45;&gt;net.nocono.mentalarithmetic.domain.model.question.Question -->
<g id="edge21" class="edge">
<title>net.nocono.mentalarithmetic.domain.model.result.CorrectResult&#45;&gt;net.nocono.mentalarithmetic.domain.model.question.Question</title>
<path fill="none" stroke="black" d="M815.72,-483.12C736.34,-460.97 589.68,-414.78 477.27,-349 459.85,-338.8 442.46,-324.52 428.81,-312.13"/>
<polygon fill="black" stroke="black" points="430.95,-309.34 421.24,-305.1 426.19,-314.47 430.95,-309.34"/>
</g>
<!-- net.nocono.mentalarithmetic.application.service.MentalArithmeticService.ユーザーの解答の正誤を判定する(net.nocono.mentalarithmetic.domain.model.question.Question, net.nocono.mentalarithmetic.domain.model.answer.Answer) -->
<g id="node8" class="node">
<title>net.nocono.mentalarithmetic.application.service.MentalArithmeticService.ユーザーの解答の正誤を判定する(net.nocono.mentalarithmetic.domain.model.question.Question, net.nocono.mentalarithmetic.domain.model.answer.Answer)</title>
<g id="a_node8"><a xlink:title="MentalArithmeticService.ユーザーの解答の正誤を判定する(Question, Answer)">
<ellipse fill="#eedd82" stroke="black" cx="162.63" cy="-476" rx="162.77" ry="26.74"/>
<text text-anchor="middle" x="162.63" y="-479.8" font-family="Times,serif" font-size="14.00">MentalArithmeticService</text>
<text text-anchor="middle" x="162.63" y="-464.8" font-family="Times,serif" font-size="14.00">ユーザーの解答の正誤を判定する</text>
</a>
</g>
</g>
<!-- net.nocono.mentalarithmetic.application.service.MentalArithmeticService.ユーザーの解答の正誤を判定する(net.nocono.mentalarithmetic.domain.model.question.Question, net.nocono.mentalarithmetic.domain.model.answer.Answer)&#45;&gt;net.nocono.mentalarithmetic.domain.model.answer.Answer -->
<g id="edge22" class="edge">
<title>net.nocono.mentalarithmetic.application.service.MentalArithmeticService.ユーザーの解答の正誤を判定する(net.nocono.mentalarithmetic.domain.model.question.Question, net.nocono.mentalarithmetic.domain.model.answer.Answer)&#45;&gt;net.nocono.mentalarithmetic.domain.model.answer.Answer</title>
<path fill="none" stroke="black" d="M308.85,-464.12C471.65,-450.81 726.21,-429.99 828.26,-421.64"/>
<polygon fill="black" stroke="black" points="828.82,-425.11 838.51,-420.8 828.25,-418.13 828.82,-425.11"/>
</g>
<!-- net.nocono.mentalarithmetic.application.service.MentalArithmeticService.ユーザーの解答の正誤を判定する(net.nocono.mentalarithmetic.domain.model.question.Question, net.nocono.mentalarithmetic.domain.model.answer.Answer)&#45;&gt;net.nocono.mentalarithmetic.domain.model.result.CorrectResult -->
<g id="edge24" class="edge">
<title>net.nocono.mentalarithmetic.application.service.MentalArithmeticService.ユーザーの解答の正誤を判定する(net.nocono.mentalarithmetic.domain.model.question.Question, net.nocono.mentalarithmetic.domain.model.answer.Answer)&#45;&gt;net.nocono.mentalarithmetic.domain.model.result.CorrectResult</title>
<path fill="none" stroke="black" d="M234.28,-500.17C345.74,-534.89 568.77,-590.59 754.27,-551 780.98,-545.3 808.96,-533.12 831.02,-521.87"/>
<polygon fill="black" stroke="black" points="832.85,-524.86 840.09,-517.13 829.6,-518.66 832.85,-524.86"/>
</g>
<!-- net.nocono.mentalarithmetic.application.service.MentalArithmeticService.ユーザーの解答の正誤を判定する(net.nocono.mentalarithmetic.domain.model.question.Question, net.nocono.mentalarithmetic.domain.model.answer.Answer)&#45;&gt;net.nocono.mentalarithmetic.domain.model.question.Question -->
<g id="edge23" class="edge">
<title>net.nocono.mentalarithmetic.application.service.MentalArithmeticService.ユーザーの解答の正誤を判定する(net.nocono.mentalarithmetic.domain.model.question.Question, net.nocono.mentalarithmetic.domain.model.answer.Answer)&#45;&gt;net.nocono.mentalarithmetic.domain.model.question.Question</title>
<path fill="none" stroke="black" d="M196.54,-449.58C242.09,-413.01 323.8,-347.4 368.66,-311.38"/>
<polygon fill="black" stroke="black" points="370.98,-314.01 376.59,-305.02 366.6,-308.55 370.98,-314.01"/>
</g>
<!-- net.nocono.mentalarithmetic.application.service.MentalArithmeticService.出題する(net.nocono.mentalarithmetic.domain.model.level.Level) -->
<g id="node9" class="node">
<title>net.nocono.mentalarithmetic.application.service.MentalArithmeticService.出題する(net.nocono.mentalarithmetic.domain.model.level.Level)</title>
<g id="a_node9"><a xlink:title="MentalArithmeticService.出題する(Level)">
<ellipse fill="#eedd82" stroke="black" cx="162.63" cy="-248" rx="138.69" ry="26.74"/>
<text text-anchor="middle" x="162.63" y="-251.8" font-family="Times,serif" font-size="14.00">MentalArithmeticService</text>
<text text-anchor="middle" x="162.63" y="-236.8" font-family="Times,serif" font-size="14.00">出題する</text>
</a>
</g>
</g>
<!-- net.nocono.mentalarithmetic.application.service.MentalArithmeticService.出題する(net.nocono.mentalarithmetic.domain.model.level.Level)&#45;&gt;net.nocono.mentalarithmetic.domain.model.level.Level -->
<g id="edge25" class="edge">
<title>net.nocono.mentalarithmetic.application.service.MentalArithmeticService.出題する(net.nocono.mentalarithmetic.domain.model.level.Level)&#45;&gt;net.nocono.mentalarithmetic.domain.model.level.Level</title>
<path fill="none" stroke="black" d="M296.6,-240.87C461.63,-232.03 733.57,-217.46 833.97,-212.08"/>
<polygon fill="black" stroke="black" points="834.44,-215.56 844.24,-211.53 834.07,-208.57 834.44,-215.56"/>
</g>
<!-- net.nocono.mentalarithmetic.application.service.MentalArithmeticService.出題する(net.nocono.mentalarithmetic.domain.model.level.Level)&#45;&gt;net.nocono.mentalarithmetic.domain.model.question.Question -->
<g id="edge26" class="edge">
<title>net.nocono.mentalarithmetic.application.service.MentalArithmeticService.出題する(net.nocono.mentalarithmetic.domain.model.level.Level)&#45;&gt;net.nocono.mentalarithmetic.domain.model.question.Question</title>
<path fill="none" stroke="black" d="M269.84,-265.05C298.2,-269.61 327.5,-274.31 351.13,-278.11"/>
<polygon fill="black" stroke="black" points="350.8,-281.6 361.22,-279.73 351.91,-274.69 350.8,-281.6"/>
</g>
<!-- net.nocono.mentalarithmetic.domain.model.expression.Expression&#45;&gt;net.nocono.mentalarithmetic.domain.model.expression.ExpressionLength -->
<g id="edge20" class="edge">
<title>net.nocono.mentalarithmetic.domain.model.expression.Expression&#45;&gt;net.nocono.mentalarithmetic.domain.model.expression.ExpressionLength</title>
<path fill="none" stroke="black" d="M573.6,-149.99C585.24,-151.23 597.69,-152.35 609.27,-153 669.86,-156.39 738.41,-156.54 790.4,-155.89"/>
<polygon fill="black" stroke="black" points="790.62,-159.39 800.57,-155.75 790.53,-152.39 790.62,-159.39"/>
</g>
<!-- net.nocono.mentalarithmetic.domain.model.expression.Expression&#45;&gt;net.nocono.mentalarithmetic.domain.model.expression.token.DigitLength -->
<g id="edge18" class="edge">
<title>net.nocono.mentalarithmetic.domain.model.expression.Expression&#45;&gt;net.nocono.mentalarithmetic.domain.model.expression.token.DigitLength</title>
<path fill="none" stroke="black" d="M544.81,-124.71C560.49,-109.67 584.34,-89.6 609.27,-79 674.97,-51.07 757.37,-43.38 812.37,-41.67"/>
<polygon fill="black" stroke="black" points="812.74,-45.16 822.65,-41.41 812.56,-38.16 812.74,-45.16"/>
</g>
<!-- net.nocono.mentalarithmetic.domain.model.expression.Expression&#45;&gt;net.nocono.mentalarithmetic.domain.model.expression.token.Operator -->
<g id="edge13" class="edge">
<title>net.nocono.mentalarithmetic.domain.model.expression.Expression&#45;&gt;net.nocono.mentalarithmetic.domain.model.expression.token.Operator</title>
<path fill="none" stroke="black" d="M552.03,-124.79C567.7,-114.33 588.61,-102.44 609.27,-97 681.79,-77.89 769.48,-83.67 823.18,-90.29"/>
<polygon fill="black" stroke="black" points="822.76,-93.77 833.13,-91.58 823.66,-86.82 822.76,-93.77"/>
</g>
<!-- net.nocono.mentalarithmetic.domain.model.expression.Expression&#45;&gt;net.nocono.mentalarithmetic.domain.model.expression.token.DigitInteger -->
<g id="edge6" class="edge">
<title>net.nocono.mentalarithmetic.domain.model.expression.Expression&#45;&gt;net.nocono.mentalarithmetic.domain.model.expression.token.DigitInteger</title>
<path fill="none" stroke="black" d="M573.46,-138.2C581.65,-137.19 590.37,-136.12 599.17,-135.03"/>
<polygon fill="black" stroke="black" points="599.61,-138.51 609.11,-133.81 598.76,-131.56 599.61,-138.51"/>
</g>
<!-- net.nocono.mentalarithmetic.domain.model.expression.token.DigitInteger&#45;&gt;net.nocono.mentalarithmetic.domain.model.expression.token.DigitLength -->
<g id="edge19" class="edge">
<title>net.nocono.mentalarithmetic.domain.model.expression.token.DigitInteger&#45;&gt;net.nocono.mentalarithmetic.domain.model.expression.token.DigitLength</title>
<path fill="none" stroke="black" d="M717.02,-105.86C737.84,-94.63 765.17,-80.61 790.27,-70 797.6,-66.9 805.4,-63.89 813.17,-61.07"/>
<polygon fill="black" stroke="black" points="814.34,-64.37 822.6,-57.72 812,-57.77 814.34,-64.37"/>
</g>
<!-- net.nocono.mentalarithmetic.domain.model.question.Question&#45;&gt;net.nocono.mentalarithmetic.domain.model.expression.ExpressionLength -->
<g id="edge10" class="edge">
<title>net.nocono.mentalarithmetic.domain.model.question.Question&#45;&gt;net.nocono.mentalarithmetic.domain.model.expression.ExpressionLength</title>
<path fill="none" stroke="black" d="M441.57,-274.97C519.16,-253.21 693.28,-204.36 794.93,-175.84"/>
<polygon fill="black" stroke="black" points="796.16,-179.13 804.84,-173.06 794.27,-172.39 796.16,-179.13"/>
</g>
<!-- net.nocono.mentalarithmetic.domain.model.question.Question&#45;&gt;net.nocono.mentalarithmetic.domain.model.expression.token.ComparisonOperator -->
<g id="edge2" class="edge">
<title>net.nocono.mentalarithmetic.domain.model.question.Question&#45;&gt;net.nocono.mentalarithmetic.domain.model.expression.token.ComparisonOperator</title>
<path fill="none" stroke="black" d="M441.54,-293.55C453.05,-295.71 465.65,-298.01 477.27,-300 580.73,-317.76 699.78,-336.15 780.01,-348.24"/>
<polygon fill="black" stroke="black" points="779.68,-351.73 790.09,-349.75 780.72,-344.8 779.68,-351.73"/>
</g>
<!-- net.nocono.mentalarithmetic.domain.model.question.Question&#45;&gt;net.nocono.mentalarithmetic.domain.model.expression.token.DigitLength -->
<g id="edge7" class="edge">
<title>net.nocono.mentalarithmetic.domain.model.question.Question&#45;&gt;net.nocono.mentalarithmetic.domain.model.expression.token.DigitLength</title>
<path fill="none" stroke="black" d="M406.46,-267C414.77,-233.09 436.18,-161.48 477.27,-116 522.51,-65.94 544.03,-58.24 609.27,-41 677.2,-23.05 758.48,-27 812.63,-33.03"/>
<polygon fill="black" stroke="black" points="812.41,-36.53 822.75,-34.22 813.22,-29.58 812.41,-36.53"/>
</g>
<!-- net.nocono.mentalarithmetic.domain.model.question.Question&#45;&gt;net.nocono.mentalarithmetic.domain.model.level.Level -->
<g id="edge4" class="edge">
<title>net.nocono.mentalarithmetic.domain.model.question.Question&#45;&gt;net.nocono.mentalarithmetic.domain.model.level.Level</title>
<path fill="none" stroke="black" d="M441.48,-287.68C507.21,-289.53 643.33,-289.24 754.27,-262 782.46,-255.08 812.38,-241.9 835.1,-230.54"/>
<polygon fill="black" stroke="black" points="836.74,-233.63 844.06,-225.97 833.56,-227.4 836.74,-233.63"/>
</g>
<!-- net.nocono.mentalarithmetic.domain.model.question.Question&#45;&gt;net.nocono.mentalarithmetic.domain.model.expression.Expression -->
<g id="edge5" class="edge">
<title>net.nocono.mentalarithmetic.domain.model.question.Question&#45;&gt;net.nocono.mentalarithmetic.domain.model.expression.Expression</title>
<path fill="none" stroke="black" d="M418.72,-266.85C439.92,-242.18 476.88,-199.16 500.96,-171.13"/>
<polygon fill="black" stroke="black" points="503.82,-173.17 507.69,-163.3 498.52,-168.61 503.82,-173.17"/>
</g>
<!-- net.nocono.mentalarithmetic.domain.model.result.Result -->
<g id="node13" class="node">
<title>net.nocono.mentalarithmetic.domain.model.result.Result</title>
<polygon fill="white" stroke="black" points="712.77,-542 650.77,-542 650.77,-504 712.77,-504 712.77,-542"/>
<text text-anchor="middle" x="681.77" y="-526.8" font-family="Times,serif" font-size="14.00">結果</text>
<text text-anchor="middle" x="681.77" y="-511.8" font-family="Times,serif" font-size="14.00">Result</text>
</g>
<!-- net.nocono.mentalarithmetic.domain.model.result.Result&#45;&gt;net.nocono.mentalarithmetic.domain.model.result.CorrectResult -->
<g id="edge8" class="edge">
<title>net.nocono.mentalarithmetic.domain.model.result.Result&#45;&gt;net.nocono.mentalarithmetic.domain.model.result.CorrectResult</title>
<path fill="none" stroke="black" d="M712.88,-519.04C737.71,-515.77 773.87,-511.01 805.53,-506.85"/>
<polygon fill="black" stroke="black" points="806.17,-510.29 815.63,-505.52 805.26,-503.35 806.17,-510.29"/>
</g>
</g>
</svg>
