<?xml version="1.0" encoding="UTF-8" standalone="no"?>
<!DOCTYPE svg PUBLIC "-//W3C//DTD SVG 1.1//EN"
 "http://www.w3.org/Graphics/SVG/1.1/DTD/svg11.dtd">
<!-- Generated by graphviz version 2.43.0 (0)
 -->
<!-- Title: ComponentRelationDiagram Pages: 1 -->
<svg width="347pt" height="105pt"
 viewBox="0.00 0.00 347.00 105.00" xmlns="http://www.w3.org/2000/svg" xmlns:xlink="http://www.w3.org/1999/xlink">
<g id="graph0" class="graph" transform="scale(1 1) rotate(0) translate(4 78)">
<title>ComponentRelationDiagram</title>
<polygon fill="white" stroke="transparent" points="-4,27 -4,-78 343,-78 343,27 -4,27"/>
<text text-anchor="middle" x="169.5" y="15.2" font-family="Times,serif" font-size="14.00">ComponentRelationDiagram</text>
<!-- SPRING_SERVICE -->
<g id="node1" class="node">
<title>SPRING_SERVICE</title>
<polygon fill="#eedd82" stroke="black" points="130.62,-73.59 -0.38,-73.59 -0.38,-69.59 -4.38,-69.59 -4.38,-65.59 -0.38,-65.59 -0.38,-23.59 -4.38,-23.59 -4.38,-19.59 -0.38,-19.59 -0.38,-15.59 130.62,-15.59 130.62,-73.59"/>
<polyline fill="none" stroke="black" points="-0.38,-69.59 3.62,-69.59 3.62,-65.59 -0.38,-65.59 "/>
<polyline fill="none" stroke="black" points="-0.38,-23.59 3.62,-23.59 3.62,-19.59 -0.38,-19.59 "/>
<text text-anchor="middle" x="65.12" y="-37.09" font-family="Times,serif" font-size="30.00">Service</text>
</g>
<!-- net.nocono.mentalarithmetic.MentalArithmeticRunner -->
<g id="node2" class="node">
<title>net.nocono.mentalarithmetic.MentalArithmeticRunner</title>
<polygon fill="lightgrey" stroke="black" points="338.65,-36.29 143.65,-36.29 143.65,-0.29 338.65,-0.29 338.65,-36.29"/>
<text text-anchor="middle" x="241.15" y="-14.59" font-family="Times,serif" font-size="14.00">MentalArithmeticRunner</text>
</g>
<!-- net.nocono.mentalarithmetic.MentalArithmeticRunner&#45;&gt;SPRING_SERVICE -->
<g id="edge1" class="edge">
<title>net.nocono.mentalarithmetic.MentalArithmeticRunner&#45;&gt;SPRING_SERVICE</title>
<path fill="none" stroke="black" d="M143.61,-32.87C142.67,-33.01 141.74,-33.15 140.8,-33.29"/>
<polygon fill="black" stroke="black" points="140.26,-29.83 130.89,-34.77 141.3,-36.75 140.26,-29.83"/>
</g>
</g>
</svg>
