<?xml version="1.0" encoding="UTF-8" standalone="no"?>
<!DOCTYPE svg PUBLIC "-//W3C//DTD SVG 1.1//EN"
 "http://www.w3.org/Graphics/SVG/1.1/DTD/svg11.dtd">
<!-- Generated by graphviz version 2.43.0 (0)
 -->
<!-- Title: PackageRelationDiagram Pages: 1 -->
<svg width="534pt" height="473pt"
 viewBox="0.00 0.00 534.00 473.00" xmlns="http://www.w3.org/2000/svg" xmlns:xlink="http://www.w3.org/1999/xlink">
<g id="graph0" class="graph" transform="scale(1 1) rotate(0) translate(4 469)">
<title>PackageRelationDiagram</title>
<polygon fill="white" stroke="transparent" points="-4,4 -4,-469 530,-469 530,4 -4,4"/>
<text text-anchor="middle" x="263" y="-7.8" font-family="Times,serif" font-size="14.00">PackageRelationDiagram</text>
<g id="clust1" class="cluster">
<title>cluster_net.nocono.mentalarithmetic.domain.model.expression</title>
<polygon fill="lemonchiffon" stroke="#eedd82" stroke-width="2" points="37,-31 37,-123 131,-123 131,-31 37,-31"/>
<text text-anchor="middle" x="84" y="-107.8" font-family="Times,serif" font-size="14.00">数式</text>
<text text-anchor="middle" x="84" y="-92.8" font-family="Times,serif" font-size="14.00">expression</text>
</g>
<!-- summary -->
<g id="node1" class="node">
<title>summary</title>
<polygon fill="none" stroke="black" points="104,-465 0,-465 0,-427 110,-427 110,-459 104,-465"/>
<polyline fill="none" stroke="black" points="104,-465 104,-459 "/>
<polyline fill="none" stroke="black" points="110,-459 104,-459 "/>
<text text-anchor="start" x="8" y="-449.8" font-family="Times,serif" font-size="14.00">Packages: 7</text>
<text text-anchor="start" x="8" y="-434.8" font-family="Times,serif" font-size="14.00">Relations: 12</text>
</g>
<!-- net.nocono.mentalarithmetic.domain.model.result -->
<g id="node2" class="node">
<title>net.nocono.mentalarithmetic.domain.model.result</title>
<polygon fill="#eedd82" stroke="black" points="187.5,-465 128.5,-465 128.5,-427 187.5,-427 187.5,-465"/>
<text text-anchor="middle" x="158" y="-449.8" font-family="Times,serif" font-size="14.00">結果</text>
<text text-anchor="middle" x="158" y="-434.8" font-family="Times,serif" font-size="14.00">result</text>
</g>
<!-- net.nocono.mentalarithmetic.domain.model.question -->
<g id="node3" class="node">
<title>net.nocono.mentalarithmetic.domain.model.question</title>
<polygon fill="#eedd82" stroke="black" points="132,-317 54,-317 54,-279 132,-279 132,-317"/>
<text text-anchor="middle" x="93" y="-301.8" font-family="Times,serif" font-size="14.00">問題</text>
<text text-anchor="middle" x="93" y="-286.8" font-family="Times,serif" font-size="14.00">question</text>
</g>
<!-- net.nocono.mentalarithmetic.domain.model.result&#45;&gt;net.nocono.mentalarithmetic.domain.model.question -->
<g id="edge1" class="edge">
<title>net.nocono.mentalarithmetic.domain.model.result&#45;&gt;net.nocono.mentalarithmetic.domain.model.question</title>
<path fill="none" stroke="black" d="M140.26,-426.91C131.47,-417.02 121.41,-404.14 115,-391 105.15,-370.79 99.54,-345.89 96.46,-327.09"/>
<polygon fill="black" stroke="black" points="99.9,-326.45 94.96,-317.08 92.98,-327.48 99.9,-326.45"/>
</g>
<!-- net.nocono.mentalarithmetic.domain.type -->
<g id="node6" class="node">
<title>net.nocono.mentalarithmetic.domain.type</title>
<polygon fill="#eedd82" stroke="black" points="526,-391 210,-391 210,-353 526,-353 526,-391"/>
<text text-anchor="middle" x="368" y="-375.8" font-family="Times,serif" font-size="14.00">ビジネスルールを表現する基本型</text>
<text text-anchor="middle" x="368" y="-360.8" font-family="Times,serif" font-size="14.00">net.nocono.mentalarithmetic.domain.type</text>
</g>
<!-- net.nocono.mentalarithmetic.domain.model.result&#45;&gt;net.nocono.mentalarithmetic.domain.type -->
<g id="edge3" class="edge">
<title>net.nocono.mentalarithmetic.domain.model.result&#45;&gt;net.nocono.mentalarithmetic.domain.type</title>
<path fill="none" stroke="black" d="M187.64,-434.84C218.18,-424.37 266.69,-407.73 305.72,-394.35"/>
<polygon fill="black" stroke="black" points="307.09,-397.58 315.42,-391.03 304.82,-390.96 307.09,-397.58"/>
</g>
<!-- net.nocono.mentalarithmetic.domain.model.answer -->
<g id="node7" class="node">
<title>net.nocono.mentalarithmetic.domain.model.answer</title>
<polygon fill="#eedd82" stroke="black" points="192,-391 124,-391 124,-353 192,-353 192,-391"/>
<text text-anchor="middle" x="158" y="-375.8" font-family="Times,serif" font-size="14.00">解答</text>
<text text-anchor="middle" x="158" y="-360.8" font-family="Times,serif" font-size="14.00">answer</text>
</g>
<!-- net.nocono.mentalarithmetic.domain.model.result&#45;&gt;net.nocono.mentalarithmetic.domain.model.answer -->
<g id="edge9" class="edge">
<title>net.nocono.mentalarithmetic.domain.model.result&#45;&gt;net.nocono.mentalarithmetic.domain.model.answer</title>
<path fill="none" stroke="black" d="M158,-426.83C158,-419.13 158,-409.97 158,-401.42"/>
<polygon fill="black" stroke="black" points="161.5,-401.41 158,-391.41 154.5,-401.41 161.5,-401.41"/>
</g>
<!-- net.nocono.mentalarithmetic.domain.model.level -->
<g id="node4" class="node">
<title>net.nocono.mentalarithmetic.domain.model.level</title>
<polygon fill="#eedd82" stroke="black" points="93.5,-243 34.5,-243 34.5,-205 93.5,-205 93.5,-243"/>
<text text-anchor="middle" x="64" y="-227.8" font-family="Times,serif" font-size="14.00">難易度</text>
<text text-anchor="middle" x="64" y="-212.8" font-family="Times,serif" font-size="14.00">level</text>
</g>
<!-- net.nocono.mentalarithmetic.domain.model.question&#45;&gt;net.nocono.mentalarithmetic.domain.model.level -->
<g id="edge7" class="edge">
<title>net.nocono.mentalarithmetic.domain.model.question&#45;&gt;net.nocono.mentalarithmetic.domain.model.level</title>
<path fill="none" stroke="black" d="M85.68,-278.83C82.51,-270.96 78.73,-261.57 75.22,-252.85"/>
<polygon fill="black" stroke="black" points="78.4,-251.38 71.42,-243.41 71.91,-254 78.4,-251.38"/>
</g>
<!-- net.nocono.mentalarithmetic.domain.model.expression -->
<g id="node5" class="node">
<title>net.nocono.mentalarithmetic.domain.model.expression</title>
<polygon fill="#eedd82" stroke="black" points="169,-169 75,-169 75,-131 169,-131 169,-169"/>
<text text-anchor="middle" x="122" y="-153.8" font-family="Times,serif" font-size="14.00">数式</text>
<text text-anchor="middle" x="122" y="-138.8" font-family="Times,serif" font-size="14.00">expression</text>
</g>
<!-- net.nocono.mentalarithmetic.domain.model.question&#45;&gt;net.nocono.mentalarithmetic.domain.model.expression -->
<g id="edge4" class="edge">
<title>net.nocono.mentalarithmetic.domain.model.question&#45;&gt;net.nocono.mentalarithmetic.domain.model.expression</title>
<path fill="none" stroke="black" d="M96.61,-278.8C101.56,-253.89 110.5,-208.89 116.34,-179.49"/>
<polygon fill="black" stroke="black" points="119.82,-179.92 118.34,-169.43 112.96,-178.55 119.82,-179.92"/>
</g>
<!-- net.nocono.mentalarithmetic.domain.model.expression.token -->
<g id="node8" class="node">
<title>net.nocono.mentalarithmetic.domain.model.expression.token</title>
<polygon fill="#eedd82" stroke="black" points="121,-77 47,-77 47,-39 121,-39 121,-77"/>
<text text-anchor="middle" x="84" y="-61.8" font-family="Times,serif" font-size="14.00">トークン</text>
<text text-anchor="middle" x="84" y="-46.8" font-family="Times,serif" font-size="14.00">token</text>
</g>
<!-- net.nocono.mentalarithmetic.domain.model.question&#45;&gt;net.nocono.mentalarithmetic.domain.model.expression.token -->
<g id="edge12" class="edge">
<title>net.nocono.mentalarithmetic.domain.model.question&#45;&gt;net.nocono.mentalarithmetic.domain.model.expression.token</title>
<path fill="none" stroke="black" d="M58.91,-278.91C45.78,-270 32.21,-257.93 25,-243 -0.86,-189.44 37.39,-121.82 63.36,-85.3"/>
<polygon fill="black" stroke="black" points="66.25,-87.28 69.33,-77.14 60.6,-83.14 66.25,-87.28"/>
</g>
<!-- net.nocono.mentalarithmetic.domain.model.level&#45;&gt;net.nocono.mentalarithmetic.domain.model.expression -->
<g id="edge2" class="edge">
<title>net.nocono.mentalarithmetic.domain.model.level&#45;&gt;net.nocono.mentalarithmetic.domain.model.expression</title>
<path fill="none" stroke="black" d="M78.64,-204.83C85.32,-196.54 93.36,-186.56 100.69,-177.45"/>
<polygon fill="black" stroke="black" points="103.62,-179.4 107.17,-169.41 98.17,-175.01 103.62,-179.4"/>
</g>
<!-- net.nocono.mentalarithmetic.domain.model.level&#45;&gt;net.nocono.mentalarithmetic.domain.model.expression.token -->
<g id="edge11" class="edge">
<title>net.nocono.mentalarithmetic.domain.model.level&#45;&gt;net.nocono.mentalarithmetic.domain.model.expression.token</title>
<path fill="none" stroke="black" d="M63.21,-204.93C62.67,-186.31 62.58,-156.49 66,-131 67.97,-116.29 71.82,-100.24 75.45,-87.03"/>
<polygon fill="black" stroke="black" points="78.89,-87.71 78.27,-77.13 72.16,-85.78 78.89,-87.71"/>
</g>
<!-- net.nocono.mentalarithmetic.domain.model.expression&#45;&gt;net.nocono.mentalarithmetic.domain.model.expression.token -->
<g id="edge6" class="edge">
<title>net.nocono.mentalarithmetic.domain.model.expression&#45;&gt;net.nocono.mentalarithmetic.domain.model.expression.token</title>
<path fill="none" stroke="black" d="M114.31,-130.79C108.95,-118.1 101.71,-100.95 95.65,-86.59"/>
<polygon fill="black" stroke="black" points="98.79,-85.04 91.68,-77.19 92.34,-87.76 98.79,-85.04"/>
</g>
<!-- net.nocono.mentalarithmetic.domain.model.answer&#45;&gt;net.nocono.mentalarithmetic.domain.model.question -->
<g id="edge5" class="edge">
<title>net.nocono.mentalarithmetic.domain.model.answer&#45;&gt;net.nocono.mentalarithmetic.domain.model.question</title>
<path fill="none" stroke="black" d="M141.6,-352.83C133.96,-344.37 124.73,-334.15 116.38,-324.9"/>
<polygon fill="black" stroke="black" points="118.92,-322.49 109.62,-317.41 113.73,-327.18 118.92,-322.49"/>
</g>
<!-- net.nocono.mentalarithmetic.domain.model.answer&#45;&gt;net.nocono.mentalarithmetic.domain.model.expression -->
<g id="edge8" class="edge">
<title>net.nocono.mentalarithmetic.domain.model.answer&#45;&gt;net.nocono.mentalarithmetic.domain.model.expression</title>
<path fill="none" stroke="black" d="M155.05,-353C148.79,-314.72 134.11,-225.03 126.6,-179.14"/>
<polygon fill="black" stroke="black" points="130.06,-178.56 124.99,-169.25 123.15,-179.69 130.06,-178.56"/>
</g>
<!-- net.nocono.mentalarithmetic.domain.model.answer&#45;&gt;net.nocono.mentalarithmetic.domain.model.expression.token -->
<g id="edge10" class="edge">
<title>net.nocono.mentalarithmetic.domain.model.answer&#45;&gt;net.nocono.mentalarithmetic.domain.model.expression.token</title>
<path fill="none" stroke="black" d="M165.52,-352.96C181.66,-311.33 215.2,-206.36 178,-131 167.79,-110.31 148.46,-93.93 129.98,-82.05"/>
<polygon fill="black" stroke="black" points="131.66,-78.97 121.3,-76.74 128.01,-84.94 131.66,-78.97"/>
</g>
</g>
</svg>
