<?xml version="1.0" encoding="UTF-8" standalone="no"?>
<!DOCTYPE svg PUBLIC "-//W3C//DTD SVG 1.1//EN"
 "http://www.w3.org/Graphics/SVG/1.1/DTD/svg11.dtd">
<!-- Generated by graphviz version 2.43.0 (0)
 -->
<!-- Title: PackageRelationDiagram Pages: 1 -->
<svg width="456pt" height="143pt"
 viewBox="0.00 0.00 455.50 143.00" xmlns="http://www.w3.org/2000/svg" xmlns:xlink="http://www.w3.org/1999/xlink">
<g id="graph0" class="graph" transform="scale(1 1) rotate(0) translate(4 139)">
<title>PackageRelationDiagram</title>
<polygon fill="white" stroke="transparent" points="-4,4 -4,-139 451.5,-139 451.5,4 -4,4"/>
<text text-anchor="middle" x="223.75" y="-7.8" font-family="Times,serif" font-size="14.00">PackageRelationDiagram</text>
<!-- summary -->
<g id="node1" class="node">
<title>summary</title>
<polygon fill="none" stroke="black" points="95,-135 0,-135 0,-97 101,-97 101,-129 95,-135"/>
<polyline fill="none" stroke="black" points="95,-135 95,-129 "/>
<polyline fill="none" stroke="black" points="101,-129 95,-129 "/>
<text text-anchor="start" x="8" y="-119.8" font-family="Times,serif" font-size="14.00">Packages: 2</text>
<text text-anchor="start" x="8" y="-104.8" font-family="Times,serif" font-size="14.00">Relations: 1</text>
</g>
<!-- net.nocono.mentalarithmetic.domain.model -->
<g id="node2" class="node">
<title>net.nocono.mentalarithmetic.domain.model</title>
<polygon fill="#eedd82" stroke="black" points="447.5,-135 119.5,-135 119.5,-97 447.5,-97 447.5,-135"/>
<text text-anchor="middle" x="283.5" y="-119.8" font-family="Times,serif" font-size="14.00">ビジネスルールを表現する複合型</text>
<text text-anchor="middle" x="283.5" y="-104.8" font-family="Times,serif" font-size="14.00">net.nocono.mentalarithmetic.domain.model</text>
</g>
<!-- net.nocono.mentalarithmetic.domain.type -->
<g id="node3" class="node">
<title>net.nocono.mentalarithmetic.domain.type</title>
<polygon fill="#eedd82" stroke="black" points="441.5,-61 125.5,-61 125.5,-23 441.5,-23 441.5,-61"/>
<text text-anchor="middle" x="283.5" y="-45.8" font-family="Times,serif" font-size="14.00">ビジネスルールを表現する基本型</text>
<text text-anchor="middle" x="283.5" y="-30.8" font-family="Times,serif" font-size="14.00">net.nocono.mentalarithmetic.domain.type</text>
</g>
<!-- net.nocono.mentalarithmetic.domain.model&#45;&gt;net.nocono.mentalarithmetic.domain.type -->
<g id="edge1" class="edge">
<title>net.nocono.mentalarithmetic.domain.model&#45;&gt;net.nocono.mentalarithmetic.domain.type</title>
<path fill="none" stroke="black" d="M283.5,-96.83C283.5,-89.13 283.5,-79.97 283.5,-71.42"/>
<polygon fill="black" stroke="black" points="287,-71.41 283.5,-61.41 280,-71.41 287,-71.41"/>
</g>
</g>
</svg>
