<?xml version="1.0" encoding="UTF-8" standalone="no"?>
<!DOCTYPE svg PUBLIC "-//W3C//DTD SVG 1.1//EN"
 "http://www.w3.org/Graphics/SVG/1.1/DTD/svg11.dtd">
<!-- Generated by graphviz version 2.43.0 (0)
 -->
<!-- Title: PackageRelationDiagram Pages: 1 -->
<svg width="771pt" height="435pt"
 viewBox="0.00 0.00 770.50 435.00" xmlns="http://www.w3.org/2000/svg" xmlns:xlink="http://www.w3.org/1999/xlink">
<g id="graph0" class="graph" transform="scale(1 1) rotate(0) translate(4 431)">
<title>PackageRelationDiagram</title>
<polygon fill="white" stroke="transparent" points="-4,4 -4,-431 766.5,-431 766.5,4 -4,4"/>
<text text-anchor="middle" x="381.25" y="-7.8" font-family="Times,serif" font-size="14.00">PackageRelationDiagram</text>
<g id="clust1" class="cluster">
<title>cluster_net.nocono.mentalarithmetic.domain.model</title>
<polygon fill="lemonchiffon" stroke="#eedd82" stroke-width="2" points="109.5,-31 109.5,-419 437.5,-419 437.5,-31 109.5,-31"/>
<text text-anchor="middle" x="273.5" y="-403.8" font-family="Times,serif" font-size="14.00">ビジネスルールを表現する複合型</text>
<text text-anchor="middle" x="273.5" y="-388.8" font-family="Times,serif" font-size="14.00">net.nocono.mentalarithmetic.domain.model</text>
</g>
<!-- summary -->
<g id="node1" class="node">
<title>summary</title>
<polygon fill="none" stroke="black" points="95,-373 0,-373 0,-335 101,-335 101,-367 95,-373"/>
<polyline fill="none" stroke="black" points="95,-373 95,-367 "/>
<polyline fill="none" stroke="black" points="101,-367 95,-367 "/>
<text text-anchor="start" x="8" y="-357.8" font-family="Times,serif" font-size="14.00">Packages: 6</text>
<text text-anchor="start" x="8" y="-342.8" font-family="Times,serif" font-size="14.00">Relations: 8</text>
</g>
<!-- net.nocono.mentalarithmetic.domain.model.result -->
<g id="node2" class="node">
<title>net.nocono.mentalarithmetic.domain.model.result</title>
<polygon fill="#eedd82" stroke="black" points="424,-373 365,-373 365,-335 424,-335 424,-373"/>
<text text-anchor="middle" x="394.5" y="-357.8" font-family="Times,serif" font-size="14.00">結果</text>
<text text-anchor="middle" x="394.5" y="-342.8" font-family="Times,serif" font-size="14.00">result</text>
</g>
<!-- net.nocono.mentalarithmetic.domain.model.question -->
<g id="node3" class="node">
<title>net.nocono.mentalarithmetic.domain.model.question</title>
<polygon fill="#eedd82" stroke="black" points="380.5,-225 302.5,-225 302.5,-187 380.5,-187 380.5,-225"/>
<text text-anchor="middle" x="341.5" y="-209.8" font-family="Times,serif" font-size="14.00">問題</text>
<text text-anchor="middle" x="341.5" y="-194.8" font-family="Times,serif" font-size="14.00">question</text>
</g>
<!-- net.nocono.mentalarithmetic.domain.model.result&#45;&gt;net.nocono.mentalarithmetic.domain.model.question -->
<g id="edge1" class="edge">
<title>net.nocono.mentalarithmetic.domain.model.result&#45;&gt;net.nocono.mentalarithmetic.domain.model.question</title>
<path fill="none" stroke="black" d="M375.62,-334.73C366.76,-325 356.97,-312.3 351.5,-299 343.17,-278.76 340.87,-254 340.55,-235.27"/>
<polygon fill="black" stroke="black" points="344.05,-235.02 340.55,-225.01 337.05,-235.01 344.05,-235.02"/>
</g>
<!-- net.nocono.mentalarithmetic.domain.type -->
<g id="node6" class="node">
<title>net.nocono.mentalarithmetic.domain.type</title>
<polygon fill="#eedd82" stroke="black" points="762.5,-299 446.5,-299 446.5,-261 762.5,-261 762.5,-299"/>
<text text-anchor="middle" x="604.5" y="-283.8" font-family="Times,serif" font-size="14.00">ビジネスルールを表現する基本型</text>
<text text-anchor="middle" x="604.5" y="-268.8" font-family="Times,serif" font-size="14.00">net.nocono.mentalarithmetic.domain.type</text>
</g>
<!-- net.nocono.mentalarithmetic.domain.model.result&#45;&gt;net.nocono.mentalarithmetic.domain.type -->
<g id="edge3" class="edge">
<title>net.nocono.mentalarithmetic.domain.model.result&#45;&gt;net.nocono.mentalarithmetic.domain.type</title>
<path fill="none" stroke="black" d="M424.14,-342.84C454.68,-332.37 503.19,-315.73 542.22,-302.35"/>
<polygon fill="black" stroke="black" points="543.59,-305.58 551.92,-299.03 541.32,-298.96 543.59,-305.58"/>
</g>
<!-- net.nocono.mentalarithmetic.domain.model.answer -->
<g id="node7" class="node">
<title>net.nocono.mentalarithmetic.domain.model.answer</title>
<polygon fill="#eedd82" stroke="black" points="428.5,-299 360.5,-299 360.5,-261 428.5,-261 428.5,-299"/>
<text text-anchor="middle" x="394.5" y="-283.8" font-family="Times,serif" font-size="14.00">解答</text>
<text text-anchor="middle" x="394.5" y="-268.8" font-family="Times,serif" font-size="14.00">answer</text>
</g>
<!-- net.nocono.mentalarithmetic.domain.model.result&#45;&gt;net.nocono.mentalarithmetic.domain.model.answer -->
<g id="edge8" class="edge">
<title>net.nocono.mentalarithmetic.domain.model.result&#45;&gt;net.nocono.mentalarithmetic.domain.model.answer</title>
<path fill="none" stroke="black" d="M394.5,-334.83C394.5,-327.13 394.5,-317.97 394.5,-309.42"/>
<polygon fill="black" stroke="black" points="398,-309.41 394.5,-299.41 391,-309.41 398,-309.41"/>
</g>
<!-- net.nocono.mentalarithmetic.domain.model.level -->
<g id="node4" class="node">
<title>net.nocono.mentalarithmetic.domain.model.level</title>
<polygon fill="#eedd82" stroke="black" points="360,-151 301,-151 301,-113 360,-113 360,-151"/>
<text text-anchor="middle" x="330.5" y="-135.8" font-family="Times,serif" font-size="14.00">難易度</text>
<text text-anchor="middle" x="330.5" y="-120.8" font-family="Times,serif" font-size="14.00">level</text>
</g>
<!-- net.nocono.mentalarithmetic.domain.model.question&#45;&gt;net.nocono.mentalarithmetic.domain.model.level -->
<g id="edge6" class="edge">
<title>net.nocono.mentalarithmetic.domain.model.question&#45;&gt;net.nocono.mentalarithmetic.domain.model.level</title>
<path fill="none" stroke="black" d="M338.72,-186.83C337.55,-179.13 336.15,-169.97 334.84,-161.42"/>
<polygon fill="black" stroke="black" points="338.28,-160.77 333.31,-151.41 331.36,-161.83 338.28,-160.77"/>
</g>
<!-- net.nocono.mentalarithmetic.domain.model.expression -->
<g id="node5" class="node">
<title>net.nocono.mentalarithmetic.domain.model.expression</title>
<polygon fill="#eedd82" stroke="black" points="426.5,-77 332.5,-77 332.5,-39 426.5,-39 426.5,-77"/>
<text text-anchor="middle" x="379.5" y="-61.8" font-family="Times,serif" font-size="14.00">数式</text>
<text text-anchor="middle" x="379.5" y="-46.8" font-family="Times,serif" font-size="14.00">expression</text>
</g>
<!-- net.nocono.mentalarithmetic.domain.model.question&#45;&gt;net.nocono.mentalarithmetic.domain.model.expression -->
<g id="edge4" class="edge">
<title>net.nocono.mentalarithmetic.domain.model.question&#45;&gt;net.nocono.mentalarithmetic.domain.model.expression</title>
<path fill="none" stroke="black" d="M353.14,-186.73C359.03,-176.6 365.71,-163.54 369.5,-151 375.79,-130.17 378.22,-105.64 379.12,-87.14"/>
<polygon fill="black" stroke="black" points="382.62,-87.15 379.49,-77.02 375.63,-86.89 382.62,-87.15"/>
</g>
<!-- net.nocono.mentalarithmetic.domain.model.level&#45;&gt;net.nocono.mentalarithmetic.domain.model.expression -->
<g id="edge2" class="edge">
<title>net.nocono.mentalarithmetic.domain.model.level&#45;&gt;net.nocono.mentalarithmetic.domain.model.expression</title>
<path fill="none" stroke="black" d="M342.86,-112.83C348.45,-104.62 355.16,-94.76 361.31,-85.73"/>
<polygon fill="black" stroke="black" points="364.24,-87.65 366.97,-77.41 358.45,-83.71 364.24,-87.65"/>
</g>
<!-- net.nocono.mentalarithmetic.domain.model.answer&#45;&gt;net.nocono.mentalarithmetic.domain.model.question -->
<g id="edge5" class="edge">
<title>net.nocono.mentalarithmetic.domain.model.answer&#45;&gt;net.nocono.mentalarithmetic.domain.model.question</title>
<path fill="none" stroke="black" d="M381.13,-260.83C375.08,-252.62 367.82,-242.76 361.18,-233.73"/>
<polygon fill="black" stroke="black" points="363.8,-231.39 355.05,-225.41 358.16,-235.54 363.8,-231.39"/>
</g>
<!-- net.nocono.mentalarithmetic.domain.model.answer&#45;&gt;net.nocono.mentalarithmetic.domain.model.expression -->
<g id="edge7" class="edge">
<title>net.nocono.mentalarithmetic.domain.model.answer&#45;&gt;net.nocono.mentalarithmetic.domain.model.expression</title>
<path fill="none" stroke="black" d="M393.63,-260.66C392.72,-242.09 391.19,-212.54 389.5,-187 387.23,-152.75 384.07,-113.39 381.92,-87.46"/>
<polygon fill="black" stroke="black" points="385.38,-86.89 381.06,-77.22 378.41,-87.48 385.38,-86.89"/>
</g>
</g>
</svg>
