<?xml version="1.0" encoding="UTF-8" standalone="no"?>
<!DOCTYPE svg PUBLIC "-//W3C//DTD SVG 1.1//EN"
 "http://www.w3.org/Graphics/SVG/1.1/DTD/svg11.dtd">
<!-- Generated by graphviz version 2.48.0 (20210717.1556)
 -->
<!-- Title: アーキテクチャ図 Pages: 1 -->
<svg width="372pt" height="227pt"
 viewBox="0.00 0.00 371.50 227.00" xmlns="http://www.w3.org/2000/svg" xmlns:xlink="http://www.w3.org/1999/xlink">
<g id="graph0" class="graph" transform="scale(1 1) rotate(0) translate(4 223)">
<title>アーキテクチャ図</title>
<polygon fill="white" stroke="transparent" points="-4,4 -4,-223 367.5,-223 367.5,4 -4,4"/>
<text text-anchor="middle" x="181.75" y="-7.8" font-family="Times,serif" font-size="14.00">アーキテクチャ図</text>
<g id="clust1" class="cluster">
<title>clusterArchitecture</title>
<polygon fill="lightyellow" stroke="#eedd82" points="8,-31 8,-155 220,-155 220,-31 8,-31"/>
</g>
<!-- net.nocono.mentalarithmetic.application -->
<g id="node1" class="node">
<title>net.nocono.mentalarithmetic.application</title>
<polygon fill="#eedd82" stroke="black" points="211.5,-147 16.5,-147 16.5,-143 12.5,-143 12.5,-139 16.5,-139 16.5,-119 12.5,-119 12.5,-115 16.5,-115 16.5,-111 211.5,-111 211.5,-147"/>
<polyline fill="none" stroke="black" points="16.5,-143 20.5,-143 20.5,-139 16.5,-139 "/>
<polyline fill="none" stroke="black" points="16.5,-119 20.5,-119 20.5,-115 16.5,-115 "/>
<text text-anchor="middle" x="114" y="-124" font-family="Times,serif" font-size="20.00">ビジネスアクション</text>
</g>
<!-- net.nocono.mentalarithmetic.domain -->
<g id="node2" class="node">
<title>net.nocono.mentalarithmetic.domain</title>
<polygon fill="#eedd82" stroke="black" points="182,-75 26,-75 26,-71 22,-71 22,-67 26,-67 26,-47 22,-47 22,-43 26,-43 26,-39 182,-39 182,-75"/>
<polyline fill="none" stroke="black" points="26,-71 30,-71 30,-67 26,-67 "/>
<polyline fill="none" stroke="black" points="26,-47 30,-47 30,-43 26,-43 "/>
<text text-anchor="middle" x="104" y="-52" font-family="Times,serif" font-size="20.00">ビジネスルール</text>
</g>
<!-- net.nocono.mentalarithmetic.application&#45;&gt;net.nocono.mentalarithmetic.domain -->
<g id="edge3" class="edge">
<title>net.nocono.mentalarithmetic.application&#45;&gt;net.nocono.mentalarithmetic.domain</title>
<path fill="none" stroke="black" d="M104,-110.83C104,-110.83 104,-85.41 104,-85.41"/>
<polygon fill="black" stroke="black" points="107.5,-85.41 104,-75.41 100.5,-85.41 107.5,-85.41"/>
</g>
<!-- org.springframework -->
<g id="node4" class="node">
<title>org.springframework</title>
<polygon fill="lightgrey" stroke="black" points="363.5,-75 228.5,-75 228.5,-71 224.5,-71 224.5,-67 228.5,-67 228.5,-47 224.5,-47 224.5,-43 228.5,-43 228.5,-39 363.5,-39 363.5,-75"/>
<polyline fill="none" stroke="black" points="228.5,-71 232.5,-71 232.5,-67 228.5,-67 "/>
<polyline fill="none" stroke="black" points="228.5,-47 232.5,-47 232.5,-43 228.5,-43 "/>
<text text-anchor="middle" x="296" y="-53.3" font-family="Times,serif" font-size="14.00">org.springframework</text>
</g>
<!-- net.nocono.mentalarithmetic.application&#45;&gt;org.springframework -->
<g id="edge5" class="edge">
<title>net.nocono.mentalarithmetic.application&#45;&gt;org.springframework</title>
<path fill="none" stroke="black" d="M196.75,-110.97C196.75,-91.42 196.75,-63 196.75,-63 196.75,-63 218.43,-63 218.43,-63"/>
<polygon fill="black" stroke="black" points="218.43,-66.5 228.43,-63 218.43,-59.5 218.43,-66.5"/>
</g>
<!-- net.nocono -->
<g id="node3" class="node">
<title>net.nocono</title>
<polygon fill="lightgrey" stroke="black" points="153,-219 75,-219 75,-215 71,-215 71,-211 75,-211 75,-191 71,-191 71,-187 75,-187 75,-183 153,-183 153,-219"/>
<polyline fill="none" stroke="black" points="75,-215 79,-215 79,-211 75,-211 "/>
<polyline fill="none" stroke="black" points="75,-191 79,-191 79,-187 75,-187 "/>
<text text-anchor="middle" x="114" y="-197.3" font-family="Times,serif" font-size="14.00">net.nocono</text>
</g>
<!-- net.nocono&#45;&gt;net.nocono.mentalarithmetic.application -->
<g id="edge1" class="edge">
<title>net.nocono&#45;&gt;net.nocono.mentalarithmetic.application</title>
<path fill="none" stroke="black" d="M114,-182.83C114,-182.83 114,-157.41 114,-157.41"/>
<polygon fill="black" stroke="black" points="117.5,-157.41 114,-147.41 110.5,-157.41 117.5,-157.41"/>
</g>
<!-- net.nocono&#45;&gt;net.nocono.mentalarithmetic.domain -->
<g id="edge4" class="edge">
<title>net.nocono&#45;&gt;net.nocono.mentalarithmetic.domain</title>
<path fill="none" stroke="black" d="M153.17,-195C183.36,-195 220,-195 220,-195 220,-195 220,-51 220,-51 220,-51 192.02,-51 192.02,-51"/>
<polygon fill="black" stroke="black" points="192.02,-47.5 182.02,-51 192.02,-54.5 192.02,-47.5"/>
</g>
<!-- net.nocono&#45;&gt;org.springframework -->
<g id="edge2" class="edge">
<title>net.nocono&#45;&gt;org.springframework</title>
<path fill="none" stroke="black" d="M153.04,-207C206.52,-207 296,-207 296,-207 296,-207 296,-85.09 296,-85.09"/>
<polygon fill="black" stroke="black" points="299.5,-85.09 296,-75.09 292.5,-85.09 299.5,-85.09"/>
</g>
</g>
</svg>
