<?xml version="1.0" encoding="UTF-8" standalone="no"?>
<!DOCTYPE svg PUBLIC "-//W3C//DTD SVG 1.1//EN"
 "http://www.w3.org/Graphics/SVG/1.1/DTD/svg11.dtd">
<!-- Generated by graphviz version 2.48.0 (20210717.1556)
 -->
<!-- Title: ビジネスルール関連図 Pages: 1 -->
<svg width="1593pt" height="423pt"
 viewBox="0.00 0.00 1593.00 423.00" xmlns="http://www.w3.org/2000/svg" xmlns:xlink="http://www.w3.org/1999/xlink">
<g id="graph0" class="graph" transform="scale(1 1) rotate(0) translate(4 419)">
<title>ビジネスルール関連図</title>
<polygon fill="white" stroke="transparent" points="-4,4 -4,-419 1589,-419 1589,4 -4,4"/>
<text text-anchor="middle" x="792.5" y="-7.8" font-family="Times,serif" font-size="14.00">ビジネスルール関連図</text>
<g id="clust1" class="cluster">
<title>cluster_net.nocono.mentalarithmetic.domain.model</title>
<polygon fill="lemonchiffon" stroke="#eedd82" stroke-width="2" points="548,-31 548,-407 1167,-407 1167,-31 548,-31"/>
<text text-anchor="middle" x="857.5" y="-391.8" font-family="Times,serif" font-size="14.00">net.nocono.mentalarithmetic.domain.model</text>
</g>
<g id="clust2" class="cluster">
<title>cluster_net.nocono.mentalarithmetic.domain.type</title>
<polygon fill="lemonchiffon" stroke="#eedd82" stroke-width="2" points="290,-179 290,-256 540,-256 540,-179 290,-179"/>
<text text-anchor="middle" x="415" y="-240.8" font-family="Times,serif" font-size="14.00">net.nocono.mentalarithmetic.domain.type</text>
</g>
<g id="clust3" class="cluster">
<title>cluster_net.nocono.mentalarithmetic.domain.type.digit</title>
<polygon fill="lemonchiffon" stroke="#eedd82" stroke-width="2" points="1175,-105 1175,-256 1577,-256 1577,-105 1175,-105"/>
<text text-anchor="middle" x="1376" y="-240.8" font-family="Times,serif" font-size="14.00">digit</text>
</g>
<g id="clust4" class="cluster">
<title>cluster_net.nocono.mentalarithmetic.domain.type.operator</title>
<polygon fill="lemonchiffon" stroke="#eedd82" stroke-width="2" points="8,-31 8,-256 160,-256 160,-31 8,-31"/>
<text text-anchor="middle" x="84" y="-240.8" font-family="Times,serif" font-size="14.00">operator</text>
</g>
<!-- net.nocono.mentalarithmetic.domain.model.Answer -->
<g id="node1" class="node">
<title>net.nocono.mentalarithmetic.domain.model.Answer</title>
<polygon fill="#eedd82" stroke="black" points="1139,-225 1079,-225 1079,-187 1139,-187 1139,-225"/>
<text text-anchor="middle" x="1109" y="-209.8" font-family="Times,serif" font-size="14.00">解答</text>
<text text-anchor="middle" x="1109" y="-194.8" font-family="Times,serif" font-size="14.00">Answer</text>
</g>
<!-- net.nocono.mentalarithmetic.domain.model.CalculationResult -->
<g id="node2" class="node">
<title>net.nocono.mentalarithmetic.domain.model.CalculationResult</title>
<polygon fill="#eedd82" stroke="black" points="916.5,-77 799.5,-77 799.5,-39 916.5,-39 916.5,-77"/>
<text text-anchor="middle" x="858" y="-61.8" font-family="Times,serif" font-size="14.00">計算結果</text>
<text text-anchor="middle" x="858" y="-46.8" font-family="Times,serif" font-size="14.00">CalculationResult</text>
</g>
<!-- net.nocono.mentalarithmetic.domain.model.CorrectResult -->
<g id="node3" class="node">
<title>net.nocono.mentalarithmetic.domain.model.CorrectResult</title>
<polygon fill="#eedd82" stroke="black" points="1021,-225 907,-225 907,-187 1021,-187 1021,-225"/>
<text text-anchor="middle" x="964" y="-209.8" font-family="Times,serif" font-size="14.00">正解か不正解か</text>
<text text-anchor="middle" x="964" y="-194.8" font-family="Times,serif" font-size="14.00">CorrectResult</text>
</g>
<!-- net.nocono.mentalarithmetic.domain.model.Expression -->
<g id="node4" class="node">
<title>net.nocono.mentalarithmetic.domain.model.Expression</title>
<polygon fill="#eedd82" stroke="black" points="927.5,-151 848.5,-151 848.5,-113 927.5,-113 927.5,-151"/>
<text text-anchor="middle" x="888" y="-135.8" font-family="Times,serif" font-size="14.00">数式</text>
<text text-anchor="middle" x="888" y="-120.8" font-family="Times,serif" font-size="14.00">Expression</text>
</g>
<!-- net.nocono.mentalarithmetic.domain.model.Expression&#45;&gt;net.nocono.mentalarithmetic.domain.model.CalculationResult -->
<g id="edge22" class="edge">
<title>net.nocono.mentalarithmetic.domain.model.Expression&#45;&gt;net.nocono.mentalarithmetic.domain.model.CalculationResult</title>
<path fill="none" stroke="black" d="M880.43,-112.83C877.15,-104.96 873.24,-95.57 869.61,-86.85"/>
<polygon fill="black" stroke="black" points="872.75,-85.3 865.67,-77.41 866.29,-87.99 872.75,-85.3"/>
</g>
<!-- net.nocono.mentalarithmetic.domain.model.Level -->
<g id="node5" class="node">
<title>net.nocono.mentalarithmetic.domain.model.Level</title>
<polygon fill="#eedd82" stroke="black" points="826,-302 768,-302 768,-264 826,-264 826,-302"/>
<text text-anchor="middle" x="797" y="-286.8" font-family="Times,serif" font-size="14.00">難易度</text>
<text text-anchor="middle" x="797" y="-271.8" font-family="Times,serif" font-size="14.00">Level</text>
</g>
<!-- net.nocono.mentalarithmetic.domain.model.Level&#45;&gt;net.nocono.mentalarithmetic.domain.model.Expression -->
<g id="edge17" class="edge">
<title>net.nocono.mentalarithmetic.domain.model.Level&#45;&gt;net.nocono.mentalarithmetic.domain.model.Expression</title>
<path fill="none" stroke="black" d="M826.13,-273.76C835.35,-269.87 844.48,-264.21 851,-256 872.16,-229.33 870.9,-188.38 873.36,-161.15"/>
<polygon fill="black" stroke="black" points="876.85,-161.45 874.6,-151.1 869.91,-160.59 876.85,-161.45"/>
</g>
<!-- net.nocono.mentalarithmetic.domain.model.Level&#45;&gt;net.nocono.mentalarithmetic.domain.model.Expression -->
<g id="edge23" class="edge">
<title>net.nocono.mentalarithmetic.domain.model.Level&#45;&gt;net.nocono.mentalarithmetic.domain.model.Expression</title>
<path fill="none" stroke="black" d="M826.25,-279.05C841.33,-275.79 858.54,-269.19 869,-256 890.16,-229.33 888.9,-188.38 887.06,-161.15"/>
<polygon fill="black" stroke="black" points="890.55,-160.82 886.34,-151.1 883.56,-161.32 890.55,-160.82"/>
</g>
<!-- net.nocono.mentalarithmetic.domain.model.Level&#45;&gt;net.nocono.mentalarithmetic.domain.model.Expression -->
<g id="edge34" class="edge">
<title>net.nocono.mentalarithmetic.domain.model.Level&#45;&gt;net.nocono.mentalarithmetic.domain.model.Expression</title>
<path fill="none" stroke="black" d="M826.04,-281.36C846.77,-279.53 872.96,-273.7 887,-256 908.25,-229.21 906.89,-188.01 900.67,-160.79"/>
<polygon fill="black" stroke="black" points="904.05,-159.86 898.09,-151.1 897.28,-161.66 904.05,-159.86"/>
</g>
<!-- net.nocono.mentalarithmetic.domain.model.Level&#45;&gt;net.nocono.mentalarithmetic.domain.model.Expression -->
<g id="edge43" class="edge">
<title>net.nocono.mentalarithmetic.domain.model.Level&#45;&gt;net.nocono.mentalarithmetic.domain.model.Expression</title>
<path fill="none" stroke="black" d="M826.04,-282.03C854.03,-281.36 888.2,-277.17 905,-256 926.35,-229.09 924.88,-187.65 914.17,-160.43"/>
<polygon fill="black" stroke="black" points="917.22,-158.69 909.83,-151.1 910.87,-161.64 917.22,-158.69"/>
</g>
<!-- net.nocono.mentalarithmetic.domain.model.ThreeLengthExpression -->
<g id="node9" class="node">
<title>net.nocono.mentalarithmetic.domain.model.ThreeLengthExpression</title>
<polygon fill="#eedd82" stroke="black" points="707.5,-225 556.5,-225 556.5,-187 707.5,-187 707.5,-225"/>
<text text-anchor="middle" x="632" y="-209.8" font-family="Times,serif" font-size="14.00">数字が３個の数式</text>
<text text-anchor="middle" x="632" y="-194.8" font-family="Times,serif" font-size="14.00">ThreeLengthExpression</text>
</g>
<!-- net.nocono.mentalarithmetic.domain.model.Level&#45;&gt;net.nocono.mentalarithmetic.domain.model.ThreeLengthExpression -->
<g id="edge18" class="edge">
<title>net.nocono.mentalarithmetic.domain.model.Level&#45;&gt;net.nocono.mentalarithmetic.domain.model.ThreeLengthExpression</title>
<path fill="none" stroke="black" d="M767.95,-274.15C752.52,-269.59 733.41,-263.3 717,-256 700.63,-248.72 683.37,-239.15 668.7,-230.4"/>
<polygon fill="black" stroke="black" points="670.31,-227.28 659.94,-225.09 666.68,-233.27 670.31,-227.28"/>
</g>
<!-- net.nocono.mentalarithmetic.domain.model.TwoLengthExpression -->
<g id="node10" class="node">
<title>net.nocono.mentalarithmetic.domain.model.TwoLengthExpression</title>
<polygon fill="#eedd82" stroke="black" points="868.5,-225 725.5,-225 725.5,-187 868.5,-187 868.5,-225"/>
<text text-anchor="middle" x="797" y="-209.8" font-family="Times,serif" font-size="14.00">数字が２個の数式</text>
<text text-anchor="middle" x="797" y="-194.8" font-family="Times,serif" font-size="14.00">TwoLengthExpression</text>
</g>
<!-- net.nocono.mentalarithmetic.domain.model.Level&#45;&gt;net.nocono.mentalarithmetic.domain.model.TwoLengthExpression -->
<g id="edge24" class="edge">
<title>net.nocono.mentalarithmetic.domain.model.Level&#45;&gt;net.nocono.mentalarithmetic.domain.model.TwoLengthExpression</title>
<path fill="none" stroke="black" d="M791.12,-263.84C790.28,-255.34 790.05,-245.01 790.43,-235.5"/>
<polygon fill="black" stroke="black" points="793.94,-235.46 791.11,-225.25 786.95,-234.99 793.94,-235.46"/>
</g>
<!-- net.nocono.mentalarithmetic.domain.model.Level&#45;&gt;net.nocono.mentalarithmetic.domain.model.TwoLengthExpression -->
<g id="edge35" class="edge">
<title>net.nocono.mentalarithmetic.domain.model.Level&#45;&gt;net.nocono.mentalarithmetic.domain.model.TwoLengthExpression</title>
<path fill="none" stroke="black" d="M802.88,-263.84C803.72,-255.34 803.95,-245.01 803.57,-235.5"/>
<polygon fill="black" stroke="black" points="807.05,-234.99 802.89,-225.25 800.06,-235.46 807.05,-234.99"/>
</g>
<!-- net.nocono.mentalarithmetic.domain.type.digit.DigitInteger -->
<g id="node12" class="node">
<title>net.nocono.mentalarithmetic.domain.type.digit.DigitInteger</title>
<polygon fill="#eedd82" stroke="black" points="1325,-151 1183,-151 1183,-113 1325,-113 1325,-151"/>
<text text-anchor="middle" x="1254" y="-135.8" font-family="Times,serif" font-size="14.00">桁数を指定した整数</text>
<text text-anchor="middle" x="1254" y="-120.8" font-family="Times,serif" font-size="14.00">DigitInteger</text>
</g>
<!-- net.nocono.mentalarithmetic.domain.model.Level&#45;&gt;net.nocono.mentalarithmetic.domain.type.digit.DigitInteger -->
<g id="edge19" class="edge">
<title>net.nocono.mentalarithmetic.domain.model.Level&#45;&gt;net.nocono.mentalarithmetic.domain.type.digit.DigitInteger</title>
<path fill="none" stroke="black" d="M767.81,-280.74C658.11,-275.68 278.06,-257.11 277,-256 253.42,-231.19 253.19,-203.58 277,-179 311.23,-143.67 1113.18,-157.02 1162,-151 1165.47,-150.57 1169.01,-150.07 1172.59,-149.51"/>
<polygon fill="black" stroke="black" points="1173.44,-152.91 1182.72,-147.79 1172.27,-146.01 1173.44,-152.91"/>
</g>
<!-- net.nocono.mentalarithmetic.domain.model.Level&#45;&gt;net.nocono.mentalarithmetic.domain.type.digit.DigitInteger -->
<g id="edge36" class="edge">
<title>net.nocono.mentalarithmetic.domain.model.Level&#45;&gt;net.nocono.mentalarithmetic.domain.type.digit.DigitInteger</title>
<path fill="none" stroke="black" d="M767.89,-280.41C660.79,-274.93 296.04,-257.09 295,-256 271.42,-231.19 271.19,-203.58 295,-179 327.83,-145.12 1066.68,-156 1172.63,-151.35"/>
<polygon fill="black" stroke="black" points="1172.91,-154.84 1182.65,-150.66 1172.43,-147.85 1172.91,-154.84"/>
</g>
<!-- net.nocono.mentalarithmetic.domain.type.digit.SingleDigitInteger -->
<g id="node13" class="node">
<title>net.nocono.mentalarithmetic.domain.type.digit.SingleDigitInteger</title>
<polygon fill="#eedd82" stroke="black" points="1568.5,-225 1447.5,-225 1447.5,-187 1568.5,-187 1568.5,-225"/>
<text text-anchor="middle" x="1508" y="-209.8" font-family="Times,serif" font-size="14.00">一桁の整数</text>
<text text-anchor="middle" x="1508" y="-194.8" font-family="Times,serif" font-size="14.00">SingleDigitInteger</text>
</g>
<!-- net.nocono.mentalarithmetic.domain.model.Level&#45;&gt;net.nocono.mentalarithmetic.domain.type.digit.SingleDigitInteger -->
<g id="edge25" class="edge">
<title>net.nocono.mentalarithmetic.domain.model.Level&#45;&gt;net.nocono.mentalarithmetic.domain.type.digit.SingleDigitInteger</title>
<path fill="none" stroke="black" d="M826.34,-274.14C842.12,-270.3 861.98,-266.06 880,-264 910.8,-260.47 1408.5,-265.53 1438,-256 1453.6,-250.96 1468.77,-241.14 1480.98,-231.61"/>
<polygon fill="black" stroke="black" points="1483.4,-234.15 1488.93,-225.12 1478.97,-228.73 1483.4,-234.15"/>
</g>
<!-- net.nocono.mentalarithmetic.domain.type.digit.ThreeDigitInteger -->
<g id="node14" class="node">
<title>net.nocono.mentalarithmetic.domain.type.digit.ThreeDigitInteger</title>
<polygon fill="#eedd82" stroke="black" points="1429,-225 1311,-225 1311,-187 1429,-187 1429,-225"/>
<text text-anchor="middle" x="1370" y="-209.8" font-family="Times,serif" font-size="14.00">三桁の整数</text>
<text text-anchor="middle" x="1370" y="-194.8" font-family="Times,serif" font-size="14.00">ThreeDigitInteger</text>
</g>
<!-- net.nocono.mentalarithmetic.domain.model.Level&#45;&gt;net.nocono.mentalarithmetic.domain.type.digit.ThreeDigitInteger -->
<g id="edge20" class="edge">
<title>net.nocono.mentalarithmetic.domain.model.Level&#45;&gt;net.nocono.mentalarithmetic.domain.type.digit.ThreeDigitInteger</title>
<path fill="none" stroke="black" d="M826.34,-274.18C842.12,-270.34 861.99,-266.1 880,-264 926.58,-258.56 1257.51,-270.83 1302,-256 1317.25,-250.92 1332.01,-241.09 1343.85,-231.57"/>
<polygon fill="black" stroke="black" points="1346.16,-234.2 1351.56,-225.08 1341.65,-228.84 1346.16,-234.2"/>
</g>
<!-- net.nocono.mentalarithmetic.domain.type.digit.TwoDigitInteger -->
<g id="node15" class="node">
<title>net.nocono.mentalarithmetic.domain.type.digit.TwoDigitInteger</title>
<polygon fill="#eedd82" stroke="black" points="1293,-225 1183,-225 1183,-187 1293,-187 1293,-225"/>
<text text-anchor="middle" x="1238" y="-209.8" font-family="Times,serif" font-size="14.00">二桁の整数</text>
<text text-anchor="middle" x="1238" y="-194.8" font-family="Times,serif" font-size="14.00">TwoDigitInteger</text>
</g>
<!-- net.nocono.mentalarithmetic.domain.model.Level&#45;&gt;net.nocono.mentalarithmetic.domain.type.digit.TwoDigitInteger -->
<g id="edge37" class="edge">
<title>net.nocono.mentalarithmetic.domain.model.Level&#45;&gt;net.nocono.mentalarithmetic.domain.type.digit.TwoDigitInteger</title>
<path fill="none" stroke="black" d="M826.35,-274.24C842.13,-270.42 862,-266.18 880,-264 912.11,-260.11 1140.39,-266.47 1171,-256 1185.92,-250.9 1200.33,-241.2 1211.94,-231.77"/>
<polygon fill="black" stroke="black" points="1214.52,-234.17 1219.86,-225.03 1209.98,-228.85 1214.52,-234.17"/>
</g>
<!-- net.nocono.mentalarithmetic.domain.type.operator.Operator -->
<g id="node17" class="node">
<title>net.nocono.mentalarithmetic.domain.type.operator.Operator</title>
<polygon fill="#eedd82" stroke="black" points="150,-151 84,-151 84,-113 150,-113 150,-151"/>
<text text-anchor="middle" x="117" y="-135.8" font-family="Times,serif" font-size="14.00">演算子</text>
<text text-anchor="middle" x="117" y="-120.8" font-family="Times,serif" font-size="14.00">Operator</text>
</g>
<!-- net.nocono.mentalarithmetic.domain.model.Level&#45;&gt;net.nocono.mentalarithmetic.domain.type.operator.Operator -->
<g id="edge21" class="edge">
<title>net.nocono.mentalarithmetic.domain.model.Level&#45;&gt;net.nocono.mentalarithmetic.domain.type.operator.Operator</title>
<path fill="none" stroke="black" d="M767.79,-280.87C653.26,-275.9 246.38,-256.15 246,-256 218.86,-245.39 160.04,-191.72 131.37,-158.88"/>
<polygon fill="black" stroke="black" points="133.87,-156.42 124.76,-151.02 128.51,-160.92 133.87,-156.42"/>
</g>
<!-- net.nocono.mentalarithmetic.domain.model.Level&#45;&gt;net.nocono.mentalarithmetic.domain.type.operator.Operator -->
<g id="edge26" class="edge">
<title>net.nocono.mentalarithmetic.domain.model.Level&#45;&gt;net.nocono.mentalarithmetic.domain.type.operator.Operator</title>
<path fill="none" stroke="black" d="M767.99,-280.59C656.84,-275.2 264.37,-256.14 264,-256 236.63,-245.3 177.04,-190.8 142.73,-158.05"/>
<polygon fill="black" stroke="black" points="145.04,-155.41 135.4,-151.02 140.2,-160.46 145.04,-155.41"/>
</g>
<!-- net.nocono.mentalarithmetic.domain.model.Level&#45;&gt;net.nocono.mentalarithmetic.domain.type.operator.Operator -->
<g id="edge38" class="edge">
<title>net.nocono.mentalarithmetic.domain.model.Level&#45;&gt;net.nocono.mentalarithmetic.domain.type.operator.Operator</title>
<path fill="none" stroke="black" d="M767.73,-280.22C658.06,-274.38 282.36,-256.14 282,-256 254.46,-245.23 194.29,-190.11 154.06,-157.43"/>
<polygon fill="black" stroke="black" points="156.04,-154.53 146.04,-151.02 151.66,-160 156.04,-154.53"/>
</g>
<!-- net.nocono.mentalarithmetic.domain.model.Question -->
<g id="node6" class="node">
<title>net.nocono.mentalarithmetic.domain.model.Question</title>
<polygon fill="#eedd82" stroke="black" points="1035.5,-302 968.5,-302 968.5,-264 1035.5,-264 1035.5,-302"/>
<text text-anchor="middle" x="1002" y="-286.8" font-family="Times,serif" font-size="14.00">問題</text>
<text text-anchor="middle" x="1002" y="-271.8" font-family="Times,serif" font-size="14.00">Question</text>
</g>
<!-- net.nocono.mentalarithmetic.domain.model.Question&#45;&gt;net.nocono.mentalarithmetic.domain.model.Answer -->
<g id="edge29" class="edge">
<title>net.nocono.mentalarithmetic.domain.model.Question&#45;&gt;net.nocono.mentalarithmetic.domain.model.Answer</title>
<path fill="none" stroke="black" d="M1035.82,-271.27C1045.7,-267.3 1056.21,-262.21 1065,-256 1073.96,-249.67 1082.39,-241.19 1089.43,-233.07"/>
<polygon fill="black" stroke="black" points="1092.29,-235.1 1095.96,-225.17 1086.89,-230.64 1092.29,-235.1"/>
</g>
<!-- net.nocono.mentalarithmetic.domain.model.Question&#45;&gt;net.nocono.mentalarithmetic.domain.model.CalculationResult -->
<g id="edge30" class="edge">
<title>net.nocono.mentalarithmetic.domain.model.Question&#45;&gt;net.nocono.mentalarithmetic.domain.model.CalculationResult</title>
<path fill="none" stroke="black" d="M1035.16,-263.84C1037.46,-261.48 1039.46,-258.87 1041,-256 1057.15,-225.83 1056.69,-209.42 1041,-179 1016.42,-131.34 963.32,-99.76 920.61,-81.01"/>
<polygon fill="black" stroke="black" points="921.97,-77.78 911.4,-77.09 919.23,-84.23 921.97,-77.78"/>
</g>
<!-- net.nocono.mentalarithmetic.domain.model.Question&#45;&gt;net.nocono.mentalarithmetic.domain.model.CorrectResult -->
<g id="edge31" class="edge">
<title>net.nocono.mentalarithmetic.domain.model.Question&#45;&gt;net.nocono.mentalarithmetic.domain.model.CorrectResult</title>
<path fill="none" stroke="black" d="M992.8,-263.84C988.31,-254.97 982.81,-244.12 977.82,-234.27"/>
<polygon fill="black" stroke="black" points="980.89,-232.59 973.25,-225.25 974.64,-235.75 980.89,-232.59"/>
</g>
<!-- net.nocono.mentalarithmetic.domain.model.Question&#45;&gt;net.nocono.mentalarithmetic.domain.model.Expression -->
<g id="edge32" class="edge">
<title>net.nocono.mentalarithmetic.domain.model.Question&#45;&gt;net.nocono.mentalarithmetic.domain.model.Expression</title>
<path fill="none" stroke="black" d="M1025.15,-263.86C1027.09,-261.43 1028.78,-258.8 1030,-256 1043.68,-224.63 1050.13,-206.68 1030,-179 1009.1,-150.25 969.83,-139.11 937.88,-134.95"/>
<polygon fill="black" stroke="black" points="938.12,-131.46 927.8,-133.83 937.35,-138.41 938.12,-131.46"/>
</g>
<!-- net.nocono.mentalarithmetic.domain.type.operator.ComparisonOperator -->
<g id="node16" class="node">
<title>net.nocono.mentalarithmetic.domain.type.operator.ComparisonOperator</title>
<polygon fill="#eedd82" stroke="black" points="151.5,-225 16.5,-225 16.5,-187 151.5,-187 151.5,-225"/>
<text text-anchor="middle" x="84" y="-209.8" font-family="Times,serif" font-size="14.00">比較演算子</text>
<text text-anchor="middle" x="84" y="-194.8" font-family="Times,serif" font-size="14.00">ComparisonOperator</text>
</g>
<!-- net.nocono.mentalarithmetic.domain.model.Question&#45;&gt;net.nocono.mentalarithmetic.domain.type.operator.ComparisonOperator -->
<g id="edge33" class="edge">
<title>net.nocono.mentalarithmetic.domain.model.Question&#45;&gt;net.nocono.mentalarithmetic.domain.type.operator.ComparisonOperator</title>
<path fill="none" stroke="black" d="M968.26,-268.15C962.9,-266.45 957.36,-264.97 952,-264 879.17,-250.84 359.43,-265.23 286,-256 241.14,-250.36 191.8,-238.5 153.11,-227.87"/>
<polygon fill="black" stroke="black" points="153.58,-224.36 143.01,-225.05 151.7,-231.11 153.58,-224.36"/>
</g>
<!-- net.nocono.mentalarithmetic.domain.model.QuestionGenerator -->
<g id="node7" class="node">
<title>net.nocono.mentalarithmetic.domain.model.QuestionGenerator</title>
<polygon fill="#eedd82" stroke="black" points="941.5,-376 818.5,-376 818.5,-338 941.5,-338 941.5,-376"/>
<text text-anchor="middle" x="880" y="-360.8" font-family="Times,serif" font-size="14.00">質問生成</text>
<text text-anchor="middle" x="880" y="-345.8" font-family="Times,serif" font-size="14.00">QuestionGenerator</text>
</g>
<!-- net.nocono.mentalarithmetic.domain.model.QuestionGenerator&#45;&gt;net.nocono.mentalarithmetic.domain.model.Expression -->
<g id="edge39" class="edge">
<title>net.nocono.mentalarithmetic.domain.model.QuestionGenerator&#45;&gt;net.nocono.mentalarithmetic.domain.model.Expression</title>
<path fill="none" stroke="black" d="M941.79,-353.01C1006.16,-346.15 1103.68,-324.33 1148,-256 1166.62,-227.29 1169.99,-205.22 1148,-179 1121.7,-147.64 1005.57,-137.65 937.74,-134.47"/>
<polygon fill="black" stroke="black" points="937.83,-130.97 927.69,-134.03 937.53,-137.97 937.83,-130.97"/>
</g>
<!-- net.nocono.mentalarithmetic.domain.model.QuestionGenerator&#45;&gt;net.nocono.mentalarithmetic.domain.model.Level -->
<g id="edge40" class="edge">
<title>net.nocono.mentalarithmetic.domain.model.QuestionGenerator&#45;&gt;net.nocono.mentalarithmetic.domain.model.Level</title>
<path fill="none" stroke="black" d="M859.06,-337.83C848.93,-329.05 836.62,-318.37 825.65,-308.85"/>
<polygon fill="black" stroke="black" points="827.79,-306.07 817.94,-302.16 823.2,-311.36 827.79,-306.07"/>
</g>
<!-- net.nocono.mentalarithmetic.domain.model.QuestionGenerator&#45;&gt;net.nocono.mentalarithmetic.domain.model.Question -->
<g id="edge41" class="edge">
<title>net.nocono.mentalarithmetic.domain.model.QuestionGenerator&#45;&gt;net.nocono.mentalarithmetic.domain.model.Question</title>
<path fill="none" stroke="black" d="M910.79,-337.83C926.39,-328.62 945.52,-317.33 962.23,-307.47"/>
<polygon fill="black" stroke="black" points="964.39,-310.26 971.22,-302.16 960.83,-304.23 964.39,-310.26"/>
</g>
<!-- net.nocono.mentalarithmetic.domain.model.QuestionGenerator&#45;&gt;net.nocono.mentalarithmetic.domain.type.operator.ComparisonOperator -->
<g id="edge42" class="edge">
<title>net.nocono.mentalarithmetic.domain.model.QuestionGenerator&#45;&gt;net.nocono.mentalarithmetic.domain.type.operator.ComparisonOperator</title>
<path fill="none" stroke="black" d="M818.12,-355.77C691.5,-353.49 395.28,-338.9 164,-256 147.11,-249.95 129.95,-240.03 115.87,-230.7"/>
<polygon fill="black" stroke="black" points="117.77,-227.76 107.54,-225 113.82,-233.54 117.77,-227.76"/>
</g>
<!-- net.nocono.mentalarithmetic.domain.model.Result -->
<g id="node8" class="node">
<title>net.nocono.mentalarithmetic.domain.model.Result</title>
<polygon fill="#eedd82" stroke="black" points="943,-302 889,-302 889,-264 943,-264 943,-302"/>
<text text-anchor="middle" x="916" y="-286.8" font-family="Times,serif" font-size="14.00">結果</text>
<text text-anchor="middle" x="916" y="-271.8" font-family="Times,serif" font-size="14.00">Result</text>
</g>
<!-- net.nocono.mentalarithmetic.domain.model.Result&#45;&gt;net.nocono.mentalarithmetic.domain.model.CorrectResult -->
<g id="edge27" class="edge">
<title>net.nocono.mentalarithmetic.domain.model.Result&#45;&gt;net.nocono.mentalarithmetic.domain.model.CorrectResult</title>
<path fill="none" stroke="black" d="M927.62,-263.84C933.35,-254.88 940.39,-243.89 946.74,-233.97"/>
<polygon fill="black" stroke="black" points="949.88,-235.56 952.32,-225.25 943.98,-231.78 949.88,-235.56"/>
</g>
<!-- net.nocono.mentalarithmetic.domain.type.MilliSeconds -->
<g id="node11" class="node">
<title>net.nocono.mentalarithmetic.domain.type.MilliSeconds</title>
<polygon fill="#eedd82" stroke="black" points="531.5,-225 440.5,-225 440.5,-187 531.5,-187 531.5,-225"/>
<text text-anchor="middle" x="486" y="-209.8" font-family="Times,serif" font-size="14.00">ミリ秒</text>
<text text-anchor="middle" x="486" y="-194.8" font-family="Times,serif" font-size="14.00">MilliSeconds</text>
</g>
<!-- net.nocono.mentalarithmetic.domain.model.Result&#45;&gt;net.nocono.mentalarithmetic.domain.type.MilliSeconds -->
<g id="edge28" class="edge">
<title>net.nocono.mentalarithmetic.domain.model.Result&#45;&gt;net.nocono.mentalarithmetic.domain.type.MilliSeconds</title>
<path fill="none" stroke="black" d="M888.86,-274.61C873.23,-270.69 853.16,-266.25 835,-264 802.9,-260.03 574.22,-267.53 544,-256 530.98,-251.03 518.82,-241.81 509.03,-232.69"/>
<polygon fill="black" stroke="black" points="511.3,-230.01 501.72,-225.49 506.39,-235 511.3,-230.01"/>
</g>
<!-- net.nocono.mentalarithmetic.domain.model.ThreeLengthExpression&#45;&gt;net.nocono.mentalarithmetic.domain.model.CalculationResult -->
<g id="edge13" class="edge">
<title>net.nocono.mentalarithmetic.domain.model.ThreeLengthExpression&#45;&gt;net.nocono.mentalarithmetic.domain.model.CalculationResult</title>
<path fill="none" stroke="black" d="M660.17,-186.8C700.88,-160.5 776.21,-111.84 821.25,-82.74"/>
<polygon fill="black" stroke="black" points="823.33,-85.56 829.83,-77.2 819.54,-79.68 823.33,-85.56"/>
</g>
<!-- net.nocono.mentalarithmetic.domain.model.ThreeLengthExpression&#45;&gt;net.nocono.mentalarithmetic.domain.model.Expression -->
<g id="edge14" class="edge">
<title>net.nocono.mentalarithmetic.domain.model.ThreeLengthExpression&#45;&gt;net.nocono.mentalarithmetic.domain.model.Expression</title>
<path fill="none" stroke="black" d="M689.99,-186.97C699.02,-184.25 708.25,-181.51 717,-179 757.74,-167.29 804.21,-154.85 838.41,-145.86"/>
<polygon fill="black" stroke="black" points="839.37,-149.23 848.16,-143.31 837.6,-142.46 839.37,-149.23"/>
</g>
<!-- net.nocono.mentalarithmetic.domain.model.ThreeLengthExpression&#45;&gt;net.nocono.mentalarithmetic.domain.type.digit.DigitInteger -->
<g id="edge15" class="edge">
<title>net.nocono.mentalarithmetic.domain.model.ThreeLengthExpression&#45;&gt;net.nocono.mentalarithmetic.domain.type.digit.DigitInteger</title>
<path fill="none" stroke="black" d="M684.12,-186.95C694.88,-183.82 706.22,-180.95 717,-179 915.92,-142.96 970.75,-178.73 1171,-151 1171.47,-150.93 1171.95,-150.87 1172.43,-150.8"/>
<polygon fill="black" stroke="black" points="1173.25,-154.21 1182.59,-149.21 1172.17,-147.3 1173.25,-154.21"/>
</g>
<!-- net.nocono.mentalarithmetic.domain.model.ThreeLengthExpression&#45;&gt;net.nocono.mentalarithmetic.domain.type.operator.Operator -->
<g id="edge16" class="edge">
<title>net.nocono.mentalarithmetic.domain.model.ThreeLengthExpression&#45;&gt;net.nocono.mentalarithmetic.domain.type.operator.Operator</title>
<path fill="none" stroke="black" d="M576.52,-186.96C565.81,-183.95 554.62,-181.12 544,-179 405.56,-151.33 238.32,-139.42 160.61,-135.1"/>
<polygon fill="black" stroke="black" points="160.43,-131.59 150.26,-134.54 160.05,-138.58 160.43,-131.59"/>
</g>
<!-- net.nocono.mentalarithmetic.domain.model.TwoLengthExpression&#45;&gt;net.nocono.mentalarithmetic.domain.model.CalculationResult -->
<g id="edge9" class="edge">
<title>net.nocono.mentalarithmetic.domain.model.TwoLengthExpression&#45;&gt;net.nocono.mentalarithmetic.domain.model.CalculationResult</title>
<path fill="none" stroke="black" d="M804.6,-186.8C815.1,-161.67 834.14,-116.1 846.42,-86.72"/>
<polygon fill="black" stroke="black" points="849.68,-88 850.3,-77.43 843.22,-85.3 849.68,-88"/>
</g>
<!-- net.nocono.mentalarithmetic.domain.model.TwoLengthExpression&#45;&gt;net.nocono.mentalarithmetic.domain.model.Expression -->
<g id="edge10" class="edge">
<title>net.nocono.mentalarithmetic.domain.model.TwoLengthExpression&#45;&gt;net.nocono.mentalarithmetic.domain.model.Expression</title>
<path fill="none" stroke="black" d="M819.96,-186.83C831.17,-177.96 844.82,-167.16 856.94,-157.57"/>
<polygon fill="black" stroke="black" points="859.37,-160.11 865.04,-151.16 855.03,-154.62 859.37,-160.11"/>
</g>
<!-- net.nocono.mentalarithmetic.domain.model.TwoLengthExpression&#45;&gt;net.nocono.mentalarithmetic.domain.type.digit.DigitInteger -->
<g id="edge11" class="edge">
<title>net.nocono.mentalarithmetic.domain.model.TwoLengthExpression&#45;&gt;net.nocono.mentalarithmetic.domain.type.digit.DigitInteger</title>
<path fill="none" stroke="black" d="M861.07,-186.97C873.26,-183.98 885.97,-181.15 898,-179 1018.06,-157.51 1050.55,-170.18 1171,-151 1171.47,-150.92 1171.95,-150.85 1172.42,-150.77"/>
<polygon fill="black" stroke="black" points="1173.3,-154.17 1182.56,-149.02 1172.11,-147.27 1173.3,-154.17"/>
</g>
<!-- net.nocono.mentalarithmetic.domain.model.TwoLengthExpression&#45;&gt;net.nocono.mentalarithmetic.domain.type.operator.Operator -->
<g id="edge12" class="edge">
<title>net.nocono.mentalarithmetic.domain.model.TwoLengthExpression&#45;&gt;net.nocono.mentalarithmetic.domain.type.operator.Operator</title>
<path fill="none" stroke="black" d="M747.55,-186.91C737.55,-183.83 727.03,-180.98 717,-179 511.57,-138.35 259.99,-133.15 160.48,-132.82"/>
<polygon fill="black" stroke="black" points="160.22,-129.31 150.22,-132.8 160.21,-136.31 160.22,-129.31"/>
</g>
<!-- net.nocono.mentalarithmetic.domain.type.digit.SingleDigitInteger&#45;&gt;net.nocono.mentalarithmetic.domain.type.digit.DigitInteger -->
<g id="edge8" class="edge">
<title>net.nocono.mentalarithmetic.domain.type.digit.SingleDigitInteger&#45;&gt;net.nocono.mentalarithmetic.domain.type.digit.DigitInteger</title>
<path fill="none" stroke="black" d="M1461.56,-186.93C1453.74,-184.13 1445.68,-181.38 1438,-179 1404.65,-168.67 1367.36,-159.01 1335.12,-151.23"/>
<polygon fill="black" stroke="black" points="1335.82,-147.8 1325.28,-148.88 1334.19,-154.61 1335.82,-147.8"/>
</g>
<!-- net.nocono.mentalarithmetic.domain.type.digit.ThreeDigitInteger&#45;&gt;net.nocono.mentalarithmetic.domain.type.digit.DigitInteger -->
<g id="edge7" class="edge">
<title>net.nocono.mentalarithmetic.domain.type.digit.ThreeDigitInteger&#45;&gt;net.nocono.mentalarithmetic.domain.type.digit.DigitInteger</title>
<path fill="none" stroke="black" d="M1340.73,-186.83C1325.89,-177.62 1307.7,-166.33 1291.81,-156.47"/>
<polygon fill="black" stroke="black" points="1293.6,-153.46 1283.26,-151.16 1289.91,-159.41 1293.6,-153.46"/>
</g>
<!-- net.nocono.mentalarithmetic.domain.type.digit.TwoDigitInteger&#45;&gt;net.nocono.mentalarithmetic.domain.type.digit.DigitInteger -->
<g id="edge6" class="edge">
<title>net.nocono.mentalarithmetic.domain.type.digit.TwoDigitInteger&#45;&gt;net.nocono.mentalarithmetic.domain.type.digit.DigitInteger</title>
<path fill="none" stroke="black" d="M1242.04,-186.83C1243.75,-179.13 1245.78,-169.97 1247.69,-161.42"/>
<polygon fill="black" stroke="black" points="1251.16,-161.93 1249.91,-151.41 1244.32,-160.42 1251.16,-161.93"/>
</g>
<!-- net.nocono.mentalarithmetic.domain.type.operator.Priority -->
<g id="node18" class="node">
<title>net.nocono.mentalarithmetic.domain.type.operator.Priority</title>
<polygon fill="#eedd82" stroke="black" points="152,-77 80,-77 80,-39 152,-39 152,-77"/>
<text text-anchor="middle" x="116" y="-61.8" font-family="Times,serif" font-size="14.00">優先順位</text>
<text text-anchor="middle" x="116" y="-46.8" font-family="Times,serif" font-size="14.00">Priority</text>
</g>
<!-- net.nocono.mentalarithmetic.domain.type.operator.Operator&#45;&gt;net.nocono.mentalarithmetic.domain.type.operator.Priority -->
<g id="edge1" class="edge">
<title>net.nocono.mentalarithmetic.domain.type.operator.Operator&#45;&gt;net.nocono.mentalarithmetic.domain.type.operator.Priority</title>
<path fill="none" stroke="black" d="M92.94,-112.83C89.8,-105.05 88.8,-95.77 89.97,-87.13"/>
<polygon fill="black" stroke="black" points="93.37,-87.96 92.35,-77.41 86.57,-86.29 93.37,-87.96"/>
</g>
<!-- net.nocono.mentalarithmetic.domain.type.operator.Operator&#45;&gt;net.nocono.mentalarithmetic.domain.type.operator.Priority -->
<g id="edge2" class="edge">
<title>net.nocono.mentalarithmetic.domain.type.operator.Operator&#45;&gt;net.nocono.mentalarithmetic.domain.type.operator.Priority</title>
<path fill="none" stroke="black" d="M104.84,-112.83C103.24,-105.13 102.67,-95.97 103.16,-87.42"/>
<polygon fill="black" stroke="black" points="106.65,-87.75 104.3,-77.41 99.69,-86.95 106.65,-87.75"/>
</g>
<!-- net.nocono.mentalarithmetic.domain.type.operator.Operator&#45;&gt;net.nocono.mentalarithmetic.domain.type.operator.Priority -->
<g id="edge3" class="edge">
<title>net.nocono.mentalarithmetic.domain.type.operator.Operator&#45;&gt;net.nocono.mentalarithmetic.domain.type.operator.Priority</title>
<path fill="none" stroke="black" d="M116.75,-112.83C116.64,-105.13 116.51,-95.97 116.39,-87.42"/>
<polygon fill="black" stroke="black" points="119.89,-87.36 116.26,-77.41 112.9,-87.46 119.89,-87.36"/>
</g>
<!-- net.nocono.mentalarithmetic.domain.type.operator.Operator&#45;&gt;net.nocono.mentalarithmetic.domain.type.operator.Priority -->
<g id="edge4" class="edge">
<title>net.nocono.mentalarithmetic.domain.type.operator.Operator&#45;&gt;net.nocono.mentalarithmetic.domain.type.operator.Priority</title>
<path fill="none" stroke="black" d="M128.65,-112.83C130.05,-105.13 130.36,-95.97 129.62,-87.42"/>
<polygon fill="black" stroke="black" points="133.08,-86.82 128.21,-77.41 126.15,-87.81 133.08,-86.82"/>
</g>
<!-- net.nocono.mentalarithmetic.domain.type.operator.Operator&#45;&gt;net.nocono.mentalarithmetic.domain.type.operator.Priority -->
<g id="edge5" class="edge">
<title>net.nocono.mentalarithmetic.domain.type.operator.Operator&#45;&gt;net.nocono.mentalarithmetic.domain.type.operator.Priority</title>
<path fill="none" stroke="black" d="M140.56,-112.83C143.48,-105.05 144.22,-95.77 142.81,-87.13"/>
<polygon fill="black" stroke="black" points="146.17,-86.14 140.16,-77.41 139.41,-87.98 146.17,-86.14"/>
</g>
</g>
</svg>
