<?xml version="1.0" encoding="UTF-8" standalone="no"?>
<!DOCTYPE svg PUBLIC "-//W3C//DTD SVG 1.1//EN"
 "http://www.w3.org/Graphics/SVG/1.1/DTD/svg11.dtd">
<!-- Generated by graphviz version 2.48.0 (20210717.1556)
 -->
<!-- Title: 集中ビジネスルールツリー図 Pages: 1 -->
<svg width="748pt" height="571pt"
 viewBox="0.00 0.00 748.00 570.54" xmlns="http://www.w3.org/2000/svg" xmlns:xlink="http://www.w3.org/1999/xlink">
<g id="graph0" class="graph" transform="scale(1 1) rotate(0) translate(4 566.54)">
<title>集中ビジネスルールツリー図</title>
<polygon fill="white" stroke="transparent" points="-4,4 -4,-566.54 744,-566.54 744,4 -4,4"/>
<text text-anchor="middle" x="370" y="-7.8" font-family="Times,serif" font-size="14.00">集中ビジネスルールツリー図</text>
<!-- net.nocono.mentalarithmetic.domain.model.CalculationResult -->
<g id="node1" class="node">
<title>net.nocono.mentalarithmetic.domain.model.CalculationResult</title>
<polygon fill="#eedd82" stroke="black" points="740,-443 509,-443 509,-369 740,-369 740,-443"/>
<text text-anchor="middle" x="624.5" y="-415" font-family="Times,serif" font-size="30.00">計算結果</text>
<text text-anchor="middle" x="624.5" y="-382" font-family="Times,serif" font-size="30.00">CalculationResult</text>
</g>
<!-- net.nocono.mentalarithmetic.domain.model.CorrectResult -->
<g id="node2" class="node">
<title>net.nocono.mentalarithmetic.domain.model.CorrectResult</title>
<polygon fill="#eedd82" stroke="black" points="443,-97 217,-97 217,-23 443,-23 443,-97"/>
<text text-anchor="middle" x="330" y="-69" font-family="Times,serif" font-size="30.00">正解か不正解か</text>
<text text-anchor="middle" x="330" y="-36" font-family="Times,serif" font-size="30.00">CorrectResult</text>
</g>
<!-- net.nocono.mentalarithmetic.domain.model.Expression -->
<g id="node3" class="node">
<title>net.nocono.mentalarithmetic.domain.model.Expression</title>
<polygon fill="#eedd82" stroke="black" points="405,-319 255,-319 255,-245 405,-245 405,-319"/>
<text text-anchor="middle" x="330" y="-291" font-family="Times,serif" font-size="30.00">数式</text>
<text text-anchor="middle" x="330" y="-258" font-family="Times,serif" font-size="30.00">Expression</text>
</g>
<!-- net.nocono.mentalarithmetic.domain.model.Expression&#45;&gt;net.nocono.mentalarithmetic.domain.model.CalculationResult -->
<g id="edge17" class="edge">
<title>net.nocono.mentalarithmetic.domain.model.Expression&#45;&gt;net.nocono.mentalarithmetic.domain.model.CalculationResult</title>
<path fill="none" stroke="black" d="M405.18,-303.48C427.27,-310.56 451.36,-318.96 473,-328 498.16,-338.51 524.83,-351.63 548.61,-364.1"/>
<polygon fill="black" stroke="black" points="547.1,-367.26 557.57,-368.84 550.37,-361.07 547.1,-367.26"/>
</g>
<!-- net.nocono.mentalarithmetic.domain.model.Level -->
<g id="node4" class="node">
<title>net.nocono.mentalarithmetic.domain.model.Level</title>
<polygon fill="lemonchiffon" stroke="black" points="104.5,-431 46.5,-431 46.5,-393 104.5,-393 104.5,-431"/>
<text text-anchor="middle" x="75.5" y="-415.8" font-family="Times,serif" font-size="14.00">難易度</text>
<text text-anchor="middle" x="75.5" y="-400.8" font-family="Times,serif" font-size="14.00">Level</text>
</g>
<!-- net.nocono.mentalarithmetic.domain.model.Level&#45;&gt;net.nocono.mentalarithmetic.domain.model.Expression -->
<g id="edge12" class="edge">
<title>net.nocono.mentalarithmetic.domain.model.Level&#45;&gt;net.nocono.mentalarithmetic.domain.model.Expression</title>
<path fill="none" stroke="black" d="M104.5,-406.03C119.49,-401.78 137.56,-394.85 151,-384 174.02,-365.41 163.56,-346.06 187,-328 203.93,-314.96 224.68,-305.55 245.03,-298.78"/>
<polygon fill="black" stroke="black" points="246.17,-302.1 254.66,-295.76 244.07,-295.42 246.17,-302.1"/>
</g>
<!-- net.nocono.mentalarithmetic.domain.type.digit.DigitInteger -->
<g id="node10" class="node">
<title>net.nocono.mentalarithmetic.domain.type.digit.DigitInteger</title>
<polygon fill="#eedd82" stroke="black" points="473,-411 187,-411 187,-337 473,-337 473,-411"/>
<text text-anchor="middle" x="330" y="-383" font-family="Times,serif" font-size="30.00">桁数を指定した整数</text>
<text text-anchor="middle" x="330" y="-350" font-family="Times,serif" font-size="30.00">DigitInteger</text>
</g>
<!-- net.nocono.mentalarithmetic.domain.model.Level&#45;&gt;net.nocono.mentalarithmetic.domain.type.digit.DigitInteger -->
<g id="edge3" class="edge">
<title>net.nocono.mentalarithmetic.domain.model.Level&#45;&gt;net.nocono.mentalarithmetic.domain.type.digit.DigitInteger</title>
<path fill="none" stroke="black" d="M104.97,-407.71C123.47,-404.93 149.17,-401.06 176.6,-396.94"/>
<polygon fill="black" stroke="black" points="177.41,-400.35 186.78,-395.4 176.37,-393.43 177.41,-400.35"/>
</g>
<!-- net.nocono.mentalarithmetic.domain.type.operator.Operator -->
<g id="node15" class="node">
<title>net.nocono.mentalarithmetic.domain.type.operator.Operator</title>
<polygon fill="#eedd82" stroke="black" points="391.5,-503 268.5,-503 268.5,-429 391.5,-429 391.5,-503"/>
<text text-anchor="middle" x="330" y="-475" font-family="Times,serif" font-size="30.00">演算子</text>
<text text-anchor="middle" x="330" y="-442" font-family="Times,serif" font-size="30.00">Operator</text>
</g>
<!-- net.nocono.mentalarithmetic.domain.model.Level&#45;&gt;net.nocono.mentalarithmetic.domain.type.operator.Operator -->
<g id="edge9" class="edge">
<title>net.nocono.mentalarithmetic.domain.model.Level&#45;&gt;net.nocono.mentalarithmetic.domain.type.operator.Operator</title>
<path fill="none" stroke="black" d="M104.97,-418.09C141.91,-425.99 207.63,-440.04 258.36,-450.89"/>
<polygon fill="black" stroke="black" points="257.79,-454.35 268.3,-453.02 259.25,-447.5 257.79,-454.35"/>
</g>
<!-- net.nocono.mentalarithmetic.domain.model.Question -->
<g id="node5" class="node">
<title>net.nocono.mentalarithmetic.domain.model.Question</title>
<polygon fill="lemonchiffon" stroke="black" points="109,-146 42,-146 42,-108 109,-108 109,-146"/>
<text text-anchor="middle" x="75.5" y="-130.8" font-family="Times,serif" font-size="14.00">問題</text>
<text text-anchor="middle" x="75.5" y="-115.8" font-family="Times,serif" font-size="14.00">Question</text>
</g>
<!-- net.nocono.mentalarithmetic.domain.model.Question&#45;&gt;net.nocono.mentalarithmetic.domain.model.CalculationResult -->
<g id="edge18" class="edge">
<title>net.nocono.mentalarithmetic.domain.model.Question&#45;&gt;net.nocono.mentalarithmetic.domain.model.CalculationResult</title>
<path fill="none" stroke="black" d="M109.03,-124.47C192.57,-118.59 412.36,-107.14 473,-144 551.77,-191.87 593.31,-297.47 611.62,-358.99"/>
<polygon fill="black" stroke="black" points="608.33,-360.2 614.46,-368.83 615.05,-358.25 608.33,-360.2"/>
</g>
<!-- net.nocono.mentalarithmetic.domain.model.Question&#45;&gt;net.nocono.mentalarithmetic.domain.model.CorrectResult -->
<g id="edge21" class="edge">
<title>net.nocono.mentalarithmetic.domain.model.Question&#45;&gt;net.nocono.mentalarithmetic.domain.model.CorrectResult</title>
<path fill="none" stroke="black" d="M109.25,-118.31C134.38,-111.64 170.74,-101.99 206.68,-92.46"/>
<polygon fill="black" stroke="black" points="208.03,-95.72 216.8,-89.77 206.24,-88.95 208.03,-95.72"/>
</g>
<!-- net.nocono.mentalarithmetic.domain.model.Question&#45;&gt;net.nocono.mentalarithmetic.domain.model.Expression -->
<g id="edge13" class="edge">
<title>net.nocono.mentalarithmetic.domain.model.Question&#45;&gt;net.nocono.mentalarithmetic.domain.model.Expression</title>
<path fill="none" stroke="black" d="M109.18,-135.81C123.42,-140.97 139.45,-148.74 151,-160 177.76,-186.09 158.92,-211.33 187,-236 203.39,-250.4 224.35,-260.3 245.1,-267.11"/>
<polygon fill="black" stroke="black" points="244.35,-270.53 254.93,-270.11 246.39,-263.84 244.35,-270.53"/>
</g>
<!-- net.nocono.mentalarithmetic.domain.type.operator.ComparisonOperator -->
<g id="node14" class="node">
<title>net.nocono.mentalarithmetic.domain.type.operator.ComparisonOperator</title>
<polygon fill="#eedd82" stroke="black" points="465,-227 195,-227 195,-153 465,-153 465,-227"/>
<text text-anchor="middle" x="330" y="-199" font-family="Times,serif" font-size="30.00">比較演算子</text>
<text text-anchor="middle" x="330" y="-166" font-family="Times,serif" font-size="30.00">ComparisonOperator</text>
</g>
<!-- net.nocono.mentalarithmetic.domain.model.Question&#45;&gt;net.nocono.mentalarithmetic.domain.type.operator.ComparisonOperator -->
<g id="edge1" class="edge">
<title>net.nocono.mentalarithmetic.domain.model.Question&#45;&gt;net.nocono.mentalarithmetic.domain.type.operator.ComparisonOperator</title>
<path fill="none" stroke="black" d="M109.25,-135.17C129.24,-140.16 156.36,-146.92 184.71,-154"/>
<polygon fill="black" stroke="black" points="184.23,-157.49 194.78,-156.51 185.92,-150.69 184.23,-157.49"/>
</g>
<!-- net.nocono.mentalarithmetic.domain.model.QuestionGenerator -->
<g id="node6" class="node">
<title>net.nocono.mentalarithmetic.domain.model.QuestionGenerator</title>
<polygon fill="lemonchiffon" stroke="black" points="137,-207 14,-207 14,-169 137,-169 137,-207"/>
<text text-anchor="middle" x="75.5" y="-191.8" font-family="Times,serif" font-size="14.00">質問生成</text>
<text text-anchor="middle" x="75.5" y="-176.8" font-family="Times,serif" font-size="14.00">QuestionGenerator</text>
</g>
<!-- net.nocono.mentalarithmetic.domain.model.QuestionGenerator&#45;&gt;net.nocono.mentalarithmetic.domain.model.Expression -->
<g id="edge14" class="edge">
<title>net.nocono.mentalarithmetic.domain.model.QuestionGenerator&#45;&gt;net.nocono.mentalarithmetic.domain.model.Expression</title>
<path fill="none" stroke="black" d="M130.2,-207.1C137.27,-209.92 144.35,-212.93 151,-216 167.61,-223.69 170.21,-228.7 187,-236 205.4,-244 225.66,-251.37 244.97,-257.76"/>
<polygon fill="black" stroke="black" points="244.07,-261.14 254.66,-260.91 246.23,-254.49 244.07,-261.14"/>
</g>
<!-- net.nocono.mentalarithmetic.domain.model.QuestionGenerator&#45;&gt;net.nocono.mentalarithmetic.domain.type.operator.ComparisonOperator -->
<g id="edge2" class="edge">
<title>net.nocono.mentalarithmetic.domain.model.QuestionGenerator&#45;&gt;net.nocono.mentalarithmetic.domain.type.operator.ComparisonOperator</title>
<path fill="none" stroke="black" d="M137.3,-188.48C151.8,-188.6 167.9,-188.72 184.42,-188.85"/>
<polygon fill="black" stroke="black" points="184.72,-192.36 194.75,-188.94 184.78,-185.36 184.72,-192.36"/>
</g>
<!-- net.nocono.mentalarithmetic.domain.model.Result -->
<g id="node7" class="node">
<title>net.nocono.mentalarithmetic.domain.model.Result</title>
<polygon fill="lemonchiffon" stroke="black" points="102.5,-79 48.5,-79 48.5,-41 102.5,-41 102.5,-79"/>
<text text-anchor="middle" x="75.5" y="-63.8" font-family="Times,serif" font-size="14.00">結果</text>
<text text-anchor="middle" x="75.5" y="-48.8" font-family="Times,serif" font-size="14.00">Result</text>
</g>
<!-- net.nocono.mentalarithmetic.domain.model.Result&#45;&gt;net.nocono.mentalarithmetic.domain.model.CorrectResult -->
<g id="edge22" class="edge">
<title>net.nocono.mentalarithmetic.domain.model.Result&#45;&gt;net.nocono.mentalarithmetic.domain.model.CorrectResult</title>
<path fill="none" stroke="black" d="M102.57,-60C127.55,-60 167.15,-60 206.29,-60"/>
<polygon fill="black" stroke="black" points="206.76,-63.5 216.76,-60 206.76,-56.5 206.76,-63.5"/>
</g>
<!-- net.nocono.mentalarithmetic.domain.model.ThreeLengthExpression -->
<g id="node8" class="node">
<title>net.nocono.mentalarithmetic.domain.model.ThreeLengthExpression</title>
<polygon fill="lemonchiffon" stroke="black" points="151,-543 0,-543 0,-505 151,-505 151,-543"/>
<text text-anchor="middle" x="75.5" y="-527.8" font-family="Times,serif" font-size="14.00">数字が３個の数式</text>
<text text-anchor="middle" x="75.5" y="-512.8" font-family="Times,serif" font-size="14.00">ThreeLengthExpression</text>
</g>
<!-- net.nocono.mentalarithmetic.domain.model.ThreeLengthExpression&#45;&gt;net.nocono.mentalarithmetic.domain.model.CalculationResult -->
<g id="edge19" class="edge">
<title>net.nocono.mentalarithmetic.domain.model.ThreeLengthExpression&#45;&gt;net.nocono.mentalarithmetic.domain.model.CalculationResult</title>
<path fill="none" stroke="black" d="M150.12,-543.07C231.85,-560.54 366.31,-578.16 473,-538 519.18,-520.62 560.42,-481.92 588.01,-450.89"/>
<polygon fill="black" stroke="black" points="590.79,-453.03 594.72,-443.19 585.51,-448.43 590.79,-453.03"/>
</g>
<!-- net.nocono.mentalarithmetic.domain.model.ThreeLengthExpression&#45;&gt;net.nocono.mentalarithmetic.domain.model.Expression -->
<g id="edge15" class="edge">
<title>net.nocono.mentalarithmetic.domain.model.ThreeLengthExpression&#45;&gt;net.nocono.mentalarithmetic.domain.model.Expression</title>
<path fill="none" stroke="black" d="M141.17,-504.9C144.79,-502.3 148.11,-499.35 151,-496 200.84,-438.15 135.83,-384.68 187,-328 202.13,-311.24 223.42,-300.55 244.92,-293.76"/>
<polygon fill="black" stroke="black" points="246.16,-297.04 254.79,-290.9 244.21,-290.32 246.16,-297.04"/>
</g>
<!-- net.nocono.mentalarithmetic.domain.model.ThreeLengthExpression&#45;&gt;net.nocono.mentalarithmetic.domain.type.digit.DigitInteger -->
<g id="edge4" class="edge">
<title>net.nocono.mentalarithmetic.domain.model.ThreeLengthExpression&#45;&gt;net.nocono.mentalarithmetic.domain.type.digit.DigitInteger</title>
<path fill="none" stroke="black" d="M138.89,-504.97C143.24,-502.34 147.34,-499.37 151,-496 178.5,-470.69 158.92,-444.67 187,-420 188.01,-419.11 189.04,-418.24 190.09,-417.38"/>
<polygon fill="black" stroke="black" points="192.51,-419.94 198.42,-411.14 188.32,-414.34 192.51,-419.94"/>
</g>
<!-- net.nocono.mentalarithmetic.domain.model.ThreeLengthExpression&#45;&gt;net.nocono.mentalarithmetic.domain.type.operator.Operator -->
<g id="edge10" class="edge">
<title>net.nocono.mentalarithmetic.domain.model.ThreeLengthExpression&#45;&gt;net.nocono.mentalarithmetic.domain.type.operator.Operator</title>
<path fill="none" stroke="black" d="M151.23,-506.83C185.1,-499.05 224.94,-489.9 258.31,-482.24"/>
<polygon fill="black" stroke="black" points="259.49,-485.56 268.45,-479.91 257.92,-478.74 259.49,-485.56"/>
</g>
<!-- net.nocono.mentalarithmetic.domain.model.TwoLengthExpression -->
<g id="node9" class="node">
<title>net.nocono.mentalarithmetic.domain.model.TwoLengthExpression</title>
<polygon fill="lemonchiffon" stroke="black" points="147,-487 4,-487 4,-449 147,-449 147,-487"/>
<text text-anchor="middle" x="75.5" y="-471.8" font-family="Times,serif" font-size="14.00">数字が２個の数式</text>
<text text-anchor="middle" x="75.5" y="-456.8" font-family="Times,serif" font-size="14.00">TwoLengthExpression</text>
</g>
<!-- net.nocono.mentalarithmetic.domain.model.TwoLengthExpression&#45;&gt;net.nocono.mentalarithmetic.domain.model.CalculationResult -->
<g id="edge20" class="edge">
<title>net.nocono.mentalarithmetic.domain.model.TwoLengthExpression&#45;&gt;net.nocono.mentalarithmetic.domain.model.CalculationResult</title>
<path fill="none" stroke="black" d="M128.35,-487.04C135.98,-489.97 143.71,-493.01 151,-496 167.2,-502.64 169.87,-508.37 187,-512 311.34,-538.39 351.82,-550.39 473,-512 511.99,-499.65 549.6,-473.16 577.48,-449.75"/>
<polygon fill="black" stroke="black" points="579.76,-452.41 585.07,-443.25 575.2,-447.09 579.76,-452.41"/>
</g>
<!-- net.nocono.mentalarithmetic.domain.model.TwoLengthExpression&#45;&gt;net.nocono.mentalarithmetic.domain.model.Expression -->
<g id="edge16" class="edge">
<title>net.nocono.mentalarithmetic.domain.model.TwoLengthExpression&#45;&gt;net.nocono.mentalarithmetic.domain.model.Expression</title>
<path fill="none" stroke="black" d="M140.45,-448.79C144.28,-446.22 147.85,-443.3 151,-440 187.06,-402.14 150.07,-365.01 187,-328 202.71,-312.25 223.86,-301.89 245.02,-295.08"/>
<polygon fill="black" stroke="black" points="246.14,-298.4 254.73,-292.19 244.15,-291.69 246.14,-298.4"/>
</g>
<!-- net.nocono.mentalarithmetic.domain.model.TwoLengthExpression&#45;&gt;net.nocono.mentalarithmetic.domain.type.digit.DigitInteger -->
<g id="edge5" class="edge">
<title>net.nocono.mentalarithmetic.domain.model.TwoLengthExpression&#45;&gt;net.nocono.mentalarithmetic.domain.type.digit.DigitInteger</title>
<path fill="none" stroke="black" d="M130.2,-448.9C137.27,-446.08 144.35,-443.07 151,-440 167.61,-432.31 170.21,-427.3 187,-420 191.12,-418.21 195.34,-416.45 199.61,-414.72"/>
<polygon fill="black" stroke="black" points="201.04,-417.92 209.06,-411 198.47,-411.41 201.04,-417.92"/>
</g>
<!-- net.nocono.mentalarithmetic.domain.model.TwoLengthExpression&#45;&gt;net.nocono.mentalarithmetic.domain.type.operator.Operator -->
<g id="edge11" class="edge">
<title>net.nocono.mentalarithmetic.domain.model.TwoLengthExpression&#45;&gt;net.nocono.mentalarithmetic.domain.type.operator.Operator</title>
<path fill="none" stroke="black" d="M147.17,-467.44C181.83,-467.17 223.47,-466.84 258.15,-466.56"/>
<polygon fill="black" stroke="black" points="258.23,-470.06 268.2,-466.48 258.18,-463.06 258.23,-470.06"/>
</g>
<!-- net.nocono.mentalarithmetic.domain.type.digit.SingleDigitInteger -->
<g id="node11" class="node">
<title>net.nocono.mentalarithmetic.domain.type.digit.SingleDigitInteger</title>
<polygon fill="lemonchiffon" stroke="black" points="136,-263 15,-263 15,-225 136,-225 136,-263"/>
<text text-anchor="middle" x="75.5" y="-247.8" font-family="Times,serif" font-size="14.00">一桁の整数</text>
<text text-anchor="middle" x="75.5" y="-232.8" font-family="Times,serif" font-size="14.00">SingleDigitInteger</text>
</g>
<!-- net.nocono.mentalarithmetic.domain.type.digit.SingleDigitInteger&#45;&gt;net.nocono.mentalarithmetic.domain.type.digit.DigitInteger -->
<g id="edge6" class="edge">
<title>net.nocono.mentalarithmetic.domain.type.digit.SingleDigitInteger&#45;&gt;net.nocono.mentalarithmetic.domain.type.digit.DigitInteger</title>
<path fill="none" stroke="black" d="M136.18,-262.34C141.45,-265.15 146.49,-268.35 151,-272 174.02,-290.59 163.56,-309.94 187,-328 188.41,-329.09 189.85,-330.15 191.31,-331.19"/>
<polygon fill="black" stroke="black" points="189.66,-334.29 199.93,-336.86 193.5,-328.44 189.66,-334.29"/>
</g>
<!-- net.nocono.mentalarithmetic.domain.type.digit.ThreeDigitInteger -->
<g id="node12" class="node">
<title>net.nocono.mentalarithmetic.domain.type.digit.ThreeDigitInteger</title>
<polygon fill="lemonchiffon" stroke="black" points="134.5,-375 16.5,-375 16.5,-337 134.5,-337 134.5,-375"/>
<text text-anchor="middle" x="75.5" y="-359.8" font-family="Times,serif" font-size="14.00">三桁の整数</text>
<text text-anchor="middle" x="75.5" y="-344.8" font-family="Times,serif" font-size="14.00">ThreeDigitInteger</text>
</g>
<!-- net.nocono.mentalarithmetic.domain.type.digit.ThreeDigitInteger&#45;&gt;net.nocono.mentalarithmetic.domain.type.digit.DigitInteger -->
<g id="edge7" class="edge">
<title>net.nocono.mentalarithmetic.domain.type.digit.ThreeDigitInteger&#45;&gt;net.nocono.mentalarithmetic.domain.type.digit.DigitInteger</title>
<path fill="none" stroke="black" d="M134.75,-360.15C147.64,-361.07 161.89,-362.09 176.64,-363.14"/>
<polygon fill="black" stroke="black" points="176.69,-366.65 186.92,-363.87 177.19,-359.67 176.69,-366.65"/>
</g>
<!-- net.nocono.mentalarithmetic.domain.type.digit.TwoDigitInteger -->
<g id="node13" class="node">
<title>net.nocono.mentalarithmetic.domain.type.digit.TwoDigitInteger</title>
<polygon fill="lemonchiffon" stroke="black" points="130.5,-319 20.5,-319 20.5,-281 130.5,-281 130.5,-319"/>
<text text-anchor="middle" x="75.5" y="-303.8" font-family="Times,serif" font-size="14.00">二桁の整数</text>
<text text-anchor="middle" x="75.5" y="-288.8" font-family="Times,serif" font-size="14.00">TwoDigitInteger</text>
</g>
<!-- net.nocono.mentalarithmetic.domain.type.digit.TwoDigitInteger&#45;&gt;net.nocono.mentalarithmetic.domain.type.digit.DigitInteger -->
<g id="edge8" class="edge">
<title>net.nocono.mentalarithmetic.domain.type.digit.TwoDigitInteger&#45;&gt;net.nocono.mentalarithmetic.domain.type.digit.DigitInteger</title>
<path fill="none" stroke="black" d="M130.67,-315.87C149.16,-321.29 170.76,-327.62 192.76,-334.07"/>
<polygon fill="black" stroke="black" points="191.96,-337.49 202.54,-336.94 193.93,-330.77 191.96,-337.49"/>
</g>
</g>
</svg>
