<?xml version="1.0" encoding="UTF-8" standalone="no"?>
<!DOCTYPE svg PUBLIC "-//W3C//DTD SVG 1.1//EN"
 "http://www.w3.org/Graphics/SVG/1.1/DTD/svg11.dtd">
<!-- Generated by graphviz version 2.48.0 (20210717.1556)
 -->
<!-- Title: 区分使用図 Pages: 1 -->
<svg width="845pt" height="421pt"
 viewBox="0.00 0.00 844.61 421.00" xmlns="http://www.w3.org/2000/svg" xmlns:xlink="http://www.w3.org/1999/xlink">
<g id="graph0" class="graph" transform="scale(1 1) rotate(0) translate(4 417)">
<title>区分使用図</title>
<polygon fill="white" stroke="transparent" points="-4,4 -4,-417 840.61,-417 840.61,4 -4,4"/>
<text text-anchor="middle" x="418.31" y="-7.8" font-family="Times,serif" font-size="14.00">区分使用図</text>
<!-- net.nocono.mentalarithmetic.domain.model.Answer -->
<g id="node1" class="node">
<title>net.nocono.mentalarithmetic.domain.model.Answer</title>
<polygon fill="#eedd82" stroke="black" points="799.11,-413 743.11,-413 739.11,-409 739.11,-375 795.11,-375 799.11,-379 799.11,-413"/>
<polyline fill="none" stroke="black" points="795.11,-409 739.11,-409 "/>
<polyline fill="none" stroke="black" points="795.11,-409 795.11,-375 "/>
<polyline fill="none" stroke="black" points="795.11,-409 799.11,-413 "/>
<text text-anchor="middle" x="769.11" y="-397.8" font-family="Times,serif" font-size="14.00">解答</text>
<text text-anchor="middle" x="769.11" y="-382.8" font-family="Times,serif" font-size="14.00">Answer</text>
</g>
<!-- net.nocono.mentalarithmetic.domain.model.CorrectResult -->
<g id="node2" class="node">
<title>net.nocono.mentalarithmetic.domain.model.CorrectResult</title>
<polygon fill="#eedd82" stroke="black" points="826.11,-343 716.11,-343 712.11,-339 712.11,-305 822.11,-305 826.11,-309 826.11,-343"/>
<polyline fill="none" stroke="black" points="822.11,-339 712.11,-339 "/>
<polyline fill="none" stroke="black" points="822.11,-339 822.11,-305 "/>
<polyline fill="none" stroke="black" points="822.11,-339 826.11,-343 "/>
<text text-anchor="middle" x="769.11" y="-327.8" font-family="Times,serif" font-size="14.00">正解か不正解か</text>
<text text-anchor="middle" x="769.11" y="-312.8" font-family="Times,serif" font-size="14.00">CorrectResult</text>
</g>
<!-- net.nocono.mentalarithmetic.domain.model.Level -->
<g id="node3" class="node">
<title>net.nocono.mentalarithmetic.domain.model.Level</title>
<polygon fill="lemonchiffon" stroke="black" points="798.11,-141 744.11,-141 740.11,-137 740.11,-103 794.11,-103 798.11,-107 798.11,-141"/>
<polyline fill="none" stroke="black" points="794.11,-137 740.11,-137 "/>
<polyline fill="none" stroke="black" points="794.11,-137 794.11,-103 "/>
<polyline fill="none" stroke="black" points="794.11,-137 798.11,-141 "/>
<text text-anchor="middle" x="769.11" y="-125.8" font-family="Times,serif" font-size="14.00">難易度</text>
<text text-anchor="middle" x="769.11" y="-110.8" font-family="Times,serif" font-size="14.00">Level</text>
</g>
<!-- net.nocono.mentalarithmetic.domain.type.operator.Operator -->
<g id="node5" class="node">
<title>net.nocono.mentalarithmetic.domain.type.operator.Operator</title>
<polygon fill="lemonchiffon" stroke="black" points="802.11,-85 740.11,-85 736.11,-81 736.11,-47 798.11,-47 802.11,-51 802.11,-85"/>
<polyline fill="none" stroke="black" points="798.11,-81 736.11,-81 "/>
<polyline fill="none" stroke="black" points="798.11,-81 798.11,-47 "/>
<polyline fill="none" stroke="black" points="798.11,-81 802.11,-85 "/>
<text text-anchor="middle" x="769.11" y="-69.8" font-family="Times,serif" font-size="14.00">演算子</text>
<text text-anchor="middle" x="769.11" y="-54.8" font-family="Times,serif" font-size="14.00">Operator</text>
</g>
<!-- net.nocono.mentalarithmetic.domain.model.Level&#45;&gt;net.nocono.mentalarithmetic.domain.type.operator.Operator -->
<g id="edge4" class="edge">
<title>net.nocono.mentalarithmetic.domain.model.Level&#45;&gt;net.nocono.mentalarithmetic.domain.type.operator.Operator</title>
<path fill="none" stroke="black" d="M769.11,-102.76C769.11,-100.3 769.11,-97.84 769.11,-95.38"/>
<polygon fill="black" stroke="black" points="772.61,-95.25 769.11,-85.25 765.61,-95.25 772.61,-95.25"/>
</g>
<!-- net.nocono.mentalarithmetic.domain.model.ThreeLengthExpression -->
<g id="node11" class="node">
<title>net.nocono.mentalarithmetic.domain.model.ThreeLengthExpression</title>
<polygon fill="white" stroke="black" points="665.61,-61 514.61,-61 514.61,-23 665.61,-23 665.61,-61"/>
<text text-anchor="middle" x="590.11" y="-45.8" font-family="Times,serif" font-size="14.00">数字が３個の数式</text>
<text text-anchor="middle" x="590.11" y="-30.8" font-family="Times,serif" font-size="14.00">ThreeLengthExpression</text>
</g>
<!-- net.nocono.mentalarithmetic.domain.model.Level&#45;&gt;net.nocono.mentalarithmetic.domain.model.ThreeLengthExpression -->
<g id="edge9" class="edge">
<title>net.nocono.mentalarithmetic.domain.model.Level&#45;&gt;net.nocono.mentalarithmetic.domain.model.ThreeLengthExpression</title>
<path fill="none" stroke="black" d="M740.06,-111.56C727.99,-106.72 713.86,-100.58 701.61,-94 684.67,-84.89 682.72,-78.77 665.61,-70 662.35,-68.33 658.96,-66.7 655.5,-65.12"/>
<polygon fill="black" stroke="black" points="656.82,-61.88 646.25,-61.09 654.02,-68.3 656.82,-61.88"/>
</g>
<!-- net.nocono.mentalarithmetic.domain.model.TwoLengthExpression -->
<g id="node12" class="node">
<title>net.nocono.mentalarithmetic.domain.model.TwoLengthExpression</title>
<polygon fill="white" stroke="black" points="661.61,-117 518.61,-117 518.61,-79 661.61,-79 661.61,-117"/>
<text text-anchor="middle" x="590.11" y="-101.8" font-family="Times,serif" font-size="14.00">数字が２個の数式</text>
<text text-anchor="middle" x="590.11" y="-86.8" font-family="Times,serif" font-size="14.00">TwoLengthExpression</text>
</g>
<!-- net.nocono.mentalarithmetic.domain.model.Level&#45;&gt;net.nocono.mentalarithmetic.domain.model.TwoLengthExpression -->
<g id="edge1" class="edge">
<title>net.nocono.mentalarithmetic.domain.model.Level&#45;&gt;net.nocono.mentalarithmetic.domain.model.TwoLengthExpression</title>
<path fill="none" stroke="black" d="M739.92,-118.18C721.43,-115.67 696.25,-112.26 671.85,-108.95"/>
<polygon fill="black" stroke="black" points="672.21,-105.46 661.83,-107.59 671.27,-112.4 672.21,-105.46"/>
</g>
<!-- net.nocono.mentalarithmetic.domain.type.operator.ComparisonOperator -->
<g id="node4" class="node">
<title>net.nocono.mentalarithmetic.domain.type.operator.ComparisonOperator</title>
<polygon fill="lemonchiffon" stroke="black" points="836.61,-263 705.61,-263 701.61,-259 701.61,-225 832.61,-225 836.61,-229 836.61,-263"/>
<polyline fill="none" stroke="black" points="832.61,-259 701.61,-259 "/>
<polyline fill="none" stroke="black" points="832.61,-259 832.61,-225 "/>
<polyline fill="none" stroke="black" points="832.61,-259 836.61,-263 "/>
<text text-anchor="middle" x="769.11" y="-247.8" font-family="Times,serif" font-size="14.00">比較演算子</text>
<text text-anchor="middle" x="769.11" y="-232.8" font-family="Times,serif" font-size="14.00">ComparisonOperator</text>
</g>
<!-- net.nocono.mentalarithmetic.application.service.MentalArithmeticService.入力された解答の正誤を判定する(net.nocono.mentalarithmetic.domain.model.Question, net.nocono.mentalarithmetic.domain.model.Answer) -->
<g id="node6" class="node">
<title>net.nocono.mentalarithmetic.application.service.MentalArithmeticService.入力された解答の正誤を判定する(net.nocono.mentalarithmetic.domain.model.Question, net.nocono.mentalarithmetic.domain.model.Answer)</title>
<g id="a_node6"><a xlink:title="MentalArithmeticService.入力された解答の正誤を判定する(Question, Answer)">
<ellipse fill="#eedd82" stroke="black" cx="159.81" cy="-371" rx="159.61" ry="26.74"/>
<text text-anchor="middle" x="159.81" y="-374.8" font-family="Times,serif" font-size="14.00">MentalArithmeticService</text>
<text text-anchor="middle" x="159.81" y="-359.8" font-family="Times,serif" font-size="14.00">入力された解答の正誤を判定する</text>
</a>
</g>
</g>
<!-- net.nocono.mentalarithmetic.application.service.MentalArithmeticService.入力された解答の正誤を判定する(net.nocono.mentalarithmetic.domain.model.Question, net.nocono.mentalarithmetic.domain.model.Answer)&#45;&gt;net.nocono.mentalarithmetic.domain.model.Answer -->
<g id="edge13" class="edge">
<title>net.nocono.mentalarithmetic.application.service.MentalArithmeticService.入力された解答の正誤を判定する(net.nocono.mentalarithmetic.domain.model.Question, net.nocono.mentalarithmetic.domain.model.Answer)&#45;&gt;net.nocono.mentalarithmetic.domain.model.Answer</title>
<path fill="none" stroke="black" d="M305.17,-382.18C322.17,-383.26 339.27,-384.23 355.61,-385 492.69,-391.42 655.62,-393.27 728.94,-393.8"/>
<polygon fill="black" stroke="black" points="729.07,-397.3 739.09,-393.86 729.11,-390.3 729.07,-397.3"/>
</g>
<!-- net.nocono.mentalarithmetic.application.service.MentalArithmeticService.入力された解答の正誤を判定する(net.nocono.mentalarithmetic.domain.model.Question, net.nocono.mentalarithmetic.domain.model.Answer)&#45;&gt;net.nocono.mentalarithmetic.domain.model.CorrectResult -->
<g id="edge14" class="edge">
<title>net.nocono.mentalarithmetic.application.service.MentalArithmeticService.入力された解答の正誤を判定する(net.nocono.mentalarithmetic.domain.model.Question, net.nocono.mentalarithmetic.domain.model.Answer)&#45;&gt;net.nocono.mentalarithmetic.domain.model.CorrectResult</title>
<path fill="none" stroke="black" d="M318.58,-374.3C418.57,-374.12 550.32,-369.68 665.61,-352 677.51,-350.18 690,-347.46 702,-344.43"/>
<polygon fill="black" stroke="black" points="703.17,-347.75 711.95,-341.83 701.39,-340.98 703.17,-347.75"/>
</g>
<!-- net.nocono.mentalarithmetic.domain.model.Question -->
<g id="node8" class="node">
<title>net.nocono.mentalarithmetic.domain.model.Question</title>
<polygon fill="white" stroke="black" points="623.61,-287 556.61,-287 556.61,-249 623.61,-249 623.61,-287"/>
<text text-anchor="middle" x="590.11" y="-271.8" font-family="Times,serif" font-size="14.00">問題</text>
<text text-anchor="middle" x="590.11" y="-256.8" font-family="Times,serif" font-size="14.00">Question</text>
</g>
<!-- net.nocono.mentalarithmetic.application.service.MentalArithmeticService.入力された解答の正誤を判定する(net.nocono.mentalarithmetic.domain.model.Question, net.nocono.mentalarithmetic.domain.model.Answer)&#45;&gt;net.nocono.mentalarithmetic.domain.model.Question -->
<g id="edge15" class="edge">
<title>net.nocono.mentalarithmetic.application.service.MentalArithmeticService.入力された解答の正誤を判定する(net.nocono.mentalarithmetic.domain.model.Question, net.nocono.mentalarithmetic.domain.model.Answer)&#45;&gt;net.nocono.mentalarithmetic.domain.model.Question</title>
<path fill="none" stroke="black" d="M252.16,-349.03C342.83,-327.23 477.86,-294.75 546.19,-278.32"/>
<polygon fill="black" stroke="black" points="547.26,-281.66 556.17,-275.92 545.63,-274.86 547.26,-281.66"/>
</g>
<!-- net.nocono.mentalarithmetic.application.service.MentalArithmeticService.出題する(net.nocono.mentalarithmetic.domain.model.Level) -->
<g id="node7" class="node">
<title>net.nocono.mentalarithmetic.application.service.MentalArithmeticService.出題する(net.nocono.mentalarithmetic.domain.model.Level)</title>
<g id="a_node7"><a xlink:title="MentalArithmeticService.出題する(Level)">
<ellipse fill="#eedd82" stroke="black" cx="159.81" cy="-221" rx="112.36" ry="26.74"/>
<text text-anchor="middle" x="159.81" y="-224.8" font-family="Times,serif" font-size="14.00">MentalArithmeticService</text>
<text text-anchor="middle" x="159.81" y="-209.8" font-family="Times,serif" font-size="14.00">出題する</text>
</a>
</g>
</g>
<!-- net.nocono.mentalarithmetic.application.service.MentalArithmeticService.出題する(net.nocono.mentalarithmetic.domain.model.Level)&#45;&gt;net.nocono.mentalarithmetic.domain.model.Level -->
<g id="edge16" class="edge">
<title>net.nocono.mentalarithmetic.application.service.MentalArithmeticService.出題する(net.nocono.mentalarithmetic.domain.model.Level)&#45;&gt;net.nocono.mentalarithmetic.domain.model.Level</title>
<path fill="none" stroke="black" d="M249.38,-204.76C320.88,-191.82 424.1,-173.53 514.61,-159 590.87,-146.76 680.31,-134.1 729.97,-127.22"/>
<polygon fill="black" stroke="black" points="730.51,-130.68 739.94,-125.84 729.55,-123.75 730.51,-130.68"/>
</g>
<!-- net.nocono.mentalarithmetic.application.service.MentalArithmeticService.出題する(net.nocono.mentalarithmetic.domain.model.Level)&#45;&gt;net.nocono.mentalarithmetic.domain.model.Question -->
<g id="edge17" class="edge">
<title>net.nocono.mentalarithmetic.application.service.MentalArithmeticService.出題する(net.nocono.mentalarithmetic.domain.model.Level)&#45;&gt;net.nocono.mentalarithmetic.domain.model.Question</title>
<path fill="none" stroke="black" d="M254.29,-235.63C286.36,-240.33 322.51,-245.28 355.61,-249 422.12,-256.48 499.61,-262.19 546.47,-265.32"/>
<polygon fill="black" stroke="black" points="546.36,-268.82 556.57,-265.99 546.82,-261.84 546.36,-268.82"/>
</g>
<!-- net.nocono.mentalarithmetic.domain.model.QuestionGenerator -->
<g id="node9" class="node">
<title>net.nocono.mentalarithmetic.domain.model.QuestionGenerator</title>
<polygon fill="white" stroke="black" points="478.61,-240 355.61,-240 355.61,-202 478.61,-202 478.61,-240"/>
<text text-anchor="middle" x="417.11" y="-224.8" font-family="Times,serif" font-size="14.00">質問生成</text>
<text text-anchor="middle" x="417.11" y="-209.8" font-family="Times,serif" font-size="14.00">QuestionGenerator</text>
</g>
<!-- net.nocono.mentalarithmetic.application.service.MentalArithmeticService.出題する(net.nocono.mentalarithmetic.domain.model.Level)&#45;&gt;net.nocono.mentalarithmetic.domain.model.QuestionGenerator -->
<g id="edge18" class="edge">
<title>net.nocono.mentalarithmetic.application.service.MentalArithmeticService.出題する(net.nocono.mentalarithmetic.domain.model.Level)&#45;&gt;net.nocono.mentalarithmetic.domain.model.QuestionGenerator</title>
<path fill="none" stroke="black" d="M272.42,-221C297.2,-221 322.8,-221 345.41,-221"/>
<polygon fill="black" stroke="black" points="345.57,-224.5 355.57,-221 345.57,-217.5 345.57,-224.5"/>
</g>
<!-- net.nocono.mentalarithmetic.domain.model.Question&#45;&gt;net.nocono.mentalarithmetic.domain.model.Answer -->
<g id="edge10" class="edge">
<title>net.nocono.mentalarithmetic.domain.model.Question&#45;&gt;net.nocono.mentalarithmetic.domain.model.Answer</title>
<path fill="none" stroke="black" d="M623.88,-275.38C637.81,-279.7 653.57,-286.28 665.61,-296 688.63,-314.59 680.61,-331.16 701.61,-352 710.01,-360.33 720.34,-367.83 730.33,-374.11"/>
<polygon fill="black" stroke="black" points="728.59,-377.15 738.97,-379.31 732.2,-371.15 728.59,-377.15"/>
</g>
<!-- net.nocono.mentalarithmetic.domain.model.Question&#45;&gt;net.nocono.mentalarithmetic.domain.model.CorrectResult -->
<g id="edge7" class="edge">
<title>net.nocono.mentalarithmetic.domain.model.Question&#45;&gt;net.nocono.mentalarithmetic.domain.model.CorrectResult</title>
<path fill="none" stroke="black" d="M623.99,-278.4C645.98,-285.36 675.68,-294.76 702.41,-303.21"/>
<polygon fill="black" stroke="black" points="701.51,-306.6 712.1,-306.28 703.62,-299.92 701.51,-306.6"/>
</g>
<!-- net.nocono.mentalarithmetic.domain.model.Question&#45;&gt;net.nocono.mentalarithmetic.domain.type.operator.ComparisonOperator -->
<g id="edge8" class="edge">
<title>net.nocono.mentalarithmetic.domain.model.Question&#45;&gt;net.nocono.mentalarithmetic.domain.type.operator.ComparisonOperator</title>
<path fill="none" stroke="black" d="M623.99,-263.54C642.97,-260.97 667.7,-257.62 691.29,-254.42"/>
<polygon fill="black" stroke="black" points="691.88,-257.87 701.32,-253.06 690.94,-250.93 691.88,-257.87"/>
</g>
<!-- net.nocono.mentalarithmetic.domain.model.QuestionGenerator&#45;&gt;net.nocono.mentalarithmetic.domain.model.Level -->
<g id="edge11" class="edge">
<title>net.nocono.mentalarithmetic.domain.model.QuestionGenerator&#45;&gt;net.nocono.mentalarithmetic.domain.model.Level</title>
<path fill="none" stroke="black" d="M478.85,-207.59C529.24,-196.03 602.59,-178.22 665.61,-159 687.34,-152.38 711.24,-143.83 730.48,-136.61"/>
<polygon fill="black" stroke="black" points="731.97,-139.79 740.09,-132.98 729.5,-133.24 731.97,-139.79"/>
</g>
<!-- net.nocono.mentalarithmetic.domain.model.QuestionGenerator&#45;&gt;net.nocono.mentalarithmetic.domain.type.operator.ComparisonOperator -->
<g id="edge5" class="edge">
<title>net.nocono.mentalarithmetic.domain.model.QuestionGenerator&#45;&gt;net.nocono.mentalarithmetic.domain.type.operator.ComparisonOperator</title>
<path fill="none" stroke="black" d="M478.68,-224.98C537.64,-228.85 627.48,-234.76 691.41,-238.96"/>
<polygon fill="black" stroke="black" points="691.23,-242.45 701.43,-239.62 691.69,-235.47 691.23,-242.45"/>
</g>
<!-- net.nocono.mentalarithmetic.domain.model.QuestionGenerator&#45;&gt;net.nocono.mentalarithmetic.domain.model.Question -->
<g id="edge6" class="edge">
<title>net.nocono.mentalarithmetic.domain.model.QuestionGenerator&#45;&gt;net.nocono.mentalarithmetic.domain.model.Question</title>
<path fill="none" stroke="black" d="M478.88,-237.7C501.32,-243.87 526.25,-250.72 546.71,-256.35"/>
<polygon fill="black" stroke="black" points="545.8,-259.72 556.37,-259 547.65,-252.98 545.8,-259.72"/>
</g>
<!-- net.nocono.mentalarithmetic.domain.model.Result -->
<g id="node10" class="node">
<title>net.nocono.mentalarithmetic.domain.model.Result</title>
<polygon fill="white" stroke="black" points="617.11,-343 563.11,-343 563.11,-305 617.11,-305 617.11,-343"/>
<text text-anchor="middle" x="590.11" y="-327.8" font-family="Times,serif" font-size="14.00">結果</text>
<text text-anchor="middle" x="590.11" y="-312.8" font-family="Times,serif" font-size="14.00">Result</text>
</g>
<!-- net.nocono.mentalarithmetic.domain.model.Result&#45;&gt;net.nocono.mentalarithmetic.domain.model.CorrectResult -->
<g id="edge2" class="edge">
<title>net.nocono.mentalarithmetic.domain.model.Result&#45;&gt;net.nocono.mentalarithmetic.domain.model.CorrectResult</title>
<path fill="none" stroke="black" d="M617.23,-324C639.42,-324 672.27,-324 701.65,-324"/>
<polygon fill="black" stroke="black" points="701.87,-327.5 711.87,-324 701.87,-320.5 701.87,-327.5"/>
</g>
<!-- net.nocono.mentalarithmetic.domain.model.ThreeLengthExpression&#45;&gt;net.nocono.mentalarithmetic.domain.type.operator.Operator -->
<g id="edge3" class="edge">
<title>net.nocono.mentalarithmetic.domain.model.ThreeLengthExpression&#45;&gt;net.nocono.mentalarithmetic.domain.type.operator.Operator</title>
<path fill="none" stroke="black" d="M665.66,-52.11C686.29,-54.91 707.96,-57.84 726.03,-60.29"/>
<polygon fill="black" stroke="black" points="725.56,-63.76 735.94,-61.64 726.5,-56.83 725.56,-63.76"/>
</g>
<!-- net.nocono.mentalarithmetic.domain.model.TwoLengthExpression&#45;&gt;net.nocono.mentalarithmetic.domain.type.operator.Operator -->
<g id="edge12" class="edge">
<title>net.nocono.mentalarithmetic.domain.model.TwoLengthExpression&#45;&gt;net.nocono.mentalarithmetic.domain.type.operator.Operator</title>
<path fill="none" stroke="black" d="M661.83,-85.21C683.54,-81.29 706.74,-77.1 725.91,-73.63"/>
<polygon fill="black" stroke="black" points="726.6,-77.06 735.82,-71.84 725.36,-70.17 726.6,-77.06"/>
</g>
</g>
</svg>
