<?xml version="1.0" encoding="UTF-8" standalone="no"?>
<!DOCTYPE svg PUBLIC "-//W3C//DTD SVG 1.1//EN"
 "http://www.w3.org/Graphics/SVG/1.1/DTD/svg11.dtd">
<!-- Generated by graphviz version 2.48.0 (20210717.1556)
 -->
<!-- Title: 区分図 Pages: 1 -->
<svg width="499pt" height="403pt"
 viewBox="0.00 0.00 499.00 403.00" xmlns="http://www.w3.org/2000/svg" xmlns:xlink="http://www.w3.org/1999/xlink">
<g id="graph0" class="graph" transform="scale(1 1) rotate(0) translate(4 376)">
<title>区分図</title>
<polygon fill="white" stroke="transparent" points="-4,27 -4,-376 495,-376 495,27 -4,27"/>
<text text-anchor="middle" x="245.5" y="15.2" font-family="Times,serif" font-size="14.00">区分図</text>
<g id="clust1" class="cluster">
<title>cluster_net.nocono.mentalarithmetic.domain.model</title>
<polygon fill="none" stroke="lightgray" points="299.74,0.36 299.74,-243.64 490.74,-243.64 490.74,0.36 299.74,0.36"/>
<text text-anchor="middle" x="395.24" y="-228.44" font-family="Times,serif" font-size="14.00">model</text>
</g>
<g id="clust2" class="cluster">
<title>cluster_net.nocono.mentalarithmetic.domain.type</title>
<polygon fill="none" stroke="lightgray" points="0.24,0.36 0.24,-371.64 256.24,-371.64 256.24,0.36 0.24,0.36"/>
<text text-anchor="middle" x="128.24" y="-356.44" font-family="Times,serif" font-size="14.00">type</text>
</g>
<g id="clust3" class="cluster">
<title>cluster_net.nocono.mentalarithmetic.domain.type.operator</title>
<polygon fill="none" stroke="lightgray" points="8.48,-7.78 8.48,-340.78 248.48,-340.78 248.48,-7.78 8.48,-7.78"/>
<text text-anchor="middle" x="128.48" y="-325.58" font-family="Times,serif" font-size="14.00">operator</text>
</g>
<!-- net.nocono.mentalarithmetic.domain.model.Answer -->
<g id="node1" class="node">
<title>net.nocono.mentalarithmetic.domain.model.Answer</title>
<polygon fill="lemonchiffon" stroke="black" points="401.98,-191.28 337.98,-191.28 337.98,-107.28 401.98,-107.28 401.98,-191.28"/>
<text text-anchor="start" x="355.98" y="-174.08" font-family="Times,serif" font-size="14.00">解答</text>
<text text-anchor="start" x="347.98" y="-159.08" font-family="Times,serif" font-size="14.00">Answer</text>
<polygon fill="none" stroke="black" points="345.98,-132.28 345.98,-153.28 393.98,-153.28 393.98,-132.28 345.98,-132.28"/>
<text text-anchor="start" x="355.98" y="-139.08" font-family="Times,serif" font-size="14.00">はい</text>
<polygon fill="none" stroke="black" points="345.98,-111.28 345.98,-132.28 393.98,-132.28 393.98,-111.28 345.98,-111.28"/>
<text text-anchor="start" x="348.98" y="-118.08" font-family="Times,serif" font-size="14.00">いいえ</text>
</g>
<!-- net.nocono.mentalarithmetic.domain.model.CorrectResult -->
<g id="node2" class="node">
<title>net.nocono.mentalarithmetic.domain.model.CorrectResult</title>
<polygon fill="lemonchiffon" stroke="black" points="425.98,-91.28 307.98,-91.28 307.98,-7.28 425.98,-7.28 425.98,-91.28"/>
<text text-anchor="start" x="317.98" y="-74.08" font-family="Times,serif" font-size="14.00">正解か不正解か</text>
<text text-anchor="start" x="327.98" y="-59.08" font-family="Times,serif" font-size="14.00">CorrectResult</text>
<polygon fill="none" stroke="black" points="315.98,-32.28 315.98,-53.28 417.98,-53.28 417.98,-32.28 315.98,-32.28"/>
<text text-anchor="start" x="352.98" y="-39.08" font-family="Times,serif" font-size="14.00">正解</text>
<polygon fill="none" stroke="black" points="315.98,-11.28 315.98,-32.28 417.98,-32.28 417.98,-11.28 315.98,-11.28"/>
<text text-anchor="start" x="345.98" y="-18.08" font-family="Times,serif" font-size="14.00">不正解</text>
</g>
<!-- net.nocono.mentalarithmetic.domain.model.Level -->
<g id="node3" class="node">
<title>net.nocono.mentalarithmetic.domain.model.Level</title>
<polygon fill="#eedd82" stroke="black" points="482.48,-212.78 417.48,-212.78 417.48,-107.78 482.48,-107.78 482.48,-212.78"/>
<text text-anchor="start" x="429.48" y="-195.08" font-family="Times,serif" font-size="14.00">難易度</text>
<text text-anchor="start" x="434.48" y="-180.08" font-family="Times,serif" font-size="14.00">Level</text>
<polygon fill="none" stroke="black" points="425.98,-153.28 425.98,-174.28 474.98,-174.28 474.98,-153.28 425.98,-153.28"/>
<text text-anchor="start" x="436.48" y="-160.08" font-family="Times,serif" font-size="14.00">Easy</text>
<polygon fill="none" stroke="black" points="425.98,-132.28 425.98,-153.28 474.98,-153.28 474.98,-132.28 425.98,-132.28"/>
<text text-anchor="start" x="428.98" y="-139.08" font-family="Times,serif" font-size="14.00">Normal</text>
<polygon fill="none" stroke="black" points="425.98,-111.28 425.98,-132.28 474.98,-132.28 474.98,-111.28 425.98,-111.28"/>
<text text-anchor="start" x="436.48" y="-118.08" font-family="Times,serif" font-size="14.00">Hard</text>
</g>
<!-- net.nocono.mentalarithmetic.domain.type.operator.ComparisonOperator -->
<g id="node4" class="node">
<title>net.nocono.mentalarithmetic.domain.type.operator.ComparisonOperator</title>
<polygon fill="#eedd82" stroke="black" points="155.21,-162.92 16.21,-162.92 16.21,-15.92 155.21,-15.92 155.21,-162.92"/>
<text text-anchor="start" x="51.21" y="-145.22" font-family="Times,serif" font-size="14.00">比較演算子</text>
<text text-anchor="start" x="26.71" y="-130.22" font-family="Times,serif" font-size="14.00">ComparisonOperator</text>
<polygon fill="none" stroke="black" points="24.71,-103.42 24.71,-124.42 147.71,-124.42 147.71,-103.42 24.71,-103.42"/>
<text text-anchor="start" x="58.21" y="-110.22" font-family="Times,serif" font-size="14.00">イコール</text>
<polygon fill="none" stroke="black" points="24.71,-82.42 24.71,-103.42 147.71,-103.42 147.71,-82.42 24.71,-82.42"/>
<text text-anchor="start" x="72.21" y="-89.22" font-family="Times,serif" font-size="14.00">以上</text>
<polygon fill="none" stroke="black" points="24.71,-61.42 24.71,-82.42 147.71,-82.42 147.71,-61.42 24.71,-61.42"/>
<text text-anchor="start" x="51.21" y="-68.22" font-family="Times,serif" font-size="14.00">より大きい</text>
<polygon fill="none" stroke="black" points="24.71,-40.42 24.71,-61.42 147.71,-61.42 147.71,-40.42 24.71,-40.42"/>
<text text-anchor="start" x="72.21" y="-47.22" font-family="Times,serif" font-size="14.00">以下</text>
<polygon fill="none" stroke="black" points="24.71,-19.42 24.71,-40.42 147.71,-40.42 147.71,-19.42 24.71,-19.42"/>
<text text-anchor="start" x="51.21" y="-26.22" font-family="Times,serif" font-size="14.00">より小さい</text>
</g>
<!-- net.nocono.mentalarithmetic.domain.type.operator.Operator -->
<g id="node5" class="node">
<title>net.nocono.mentalarithmetic.domain.type.operator.Operator</title>
<polygon fill="#eedd82" stroke="black" points="240.71,-309.42 170.71,-309.42 170.71,-183.42 240.71,-183.42 240.71,-309.42"/>
<text text-anchor="start" x="184.71" y="-292.22" font-family="Times,serif" font-size="14.00">演算子</text>
<text text-anchor="start" x="180.71" y="-277.22" font-family="Times,serif" font-size="14.00">Operator</text>
<polygon fill="none" stroke="black" points="178.71,-250.42 178.71,-271.42 232.71,-271.42 232.71,-250.42 178.71,-250.42"/>
<text text-anchor="start" x="191.71" y="-257.22" font-family="Times,serif" font-size="14.00">足す</text>
<polygon fill="none" stroke="black" points="178.71,-229.42 178.71,-250.42 232.71,-250.42 232.71,-229.42 178.71,-229.42"/>
<text text-anchor="start" x="191.71" y="-236.22" font-family="Times,serif" font-size="14.00">引く</text>
<polygon fill="none" stroke="black" points="178.71,-208.42 178.71,-229.42 232.71,-229.42 232.71,-208.42 178.71,-208.42"/>
<text text-anchor="start" x="184.71" y="-215.22" font-family="Times,serif" font-size="14.00">掛ける</text>
<polygon fill="none" stroke="black" points="178.71,-187.42 178.71,-208.42 232.71,-208.42 232.71,-187.42 178.71,-187.42"/>
<text text-anchor="start" x="191.71" y="-194.22" font-family="Times,serif" font-size="14.00">割る</text>
</g>
</g>
</svg>
