<?xml version="1.0" encoding="UTF-8" standalone="no"?>
<!DOCTYPE svg PUBLIC "-//W3C//DTD SVG 1.1//EN"
 "http://www.w3.org/Graphics/SVG/1.1/DTD/svg11.dtd">
<!-- Generated by graphviz version 2.48.0 (20210717.1556)
 -->
<!-- Title: パッケージ関連図 Pages: 1 -->
<svg width="402pt" height="143pt"
 viewBox="0.00 0.00 402.00 143.00" xmlns="http://www.w3.org/2000/svg" xmlns:xlink="http://www.w3.org/1999/xlink">
<g id="graph0" class="graph" transform="scale(1 1) rotate(0) translate(4 139)">
<title>パッケージ関連図</title>
<polygon fill="white" stroke="transparent" points="-4,4 -4,-139 398,-139 398,4 -4,4"/>
<text text-anchor="middle" x="197" y="-7.8" font-family="Times,serif" font-size="14.00">パッケージ関連図</text>
<!-- summary -->
<g id="node1" class="node">
<title>summary</title>
<polygon fill="none" stroke="black" points="109,-135 0,-135 0,-97 115,-97 115,-129 109,-135"/>
<polyline fill="none" stroke="black" points="109,-135 109,-129 "/>
<polyline fill="none" stroke="black" points="115,-129 109,-129 "/>
<text text-anchor="start" x="8" y="-119.8" font-family="Times,serif" font-size="14.00">パッケージ数: 2</text>
<text text-anchor="start" x="8" y="-104.8" font-family="Times,serif" font-size="14.00">関連数: 1</text>
</g>
<!-- net.nocono.mentalarithmetic.domain.model -->
<g id="node2" class="node">
<title>net.nocono.mentalarithmetic.domain.model</title>
<polygon fill="#eedd82" stroke="black" points="394,-135 133,-135 133,-97 394,-97 394,-135"/>
<text text-anchor="middle" x="263.5" y="-119.8" font-family="Times,serif" font-size="14.00">ビジネスルールを表現する複合型</text>
<text text-anchor="middle" x="263.5" y="-104.8" font-family="Times,serif" font-size="14.00">net.nocono.mentalarithmetic.domain.model</text>
</g>
<!-- net.nocono.mentalarithmetic.domain.type -->
<g id="node3" class="node">
<title>net.nocono.mentalarithmetic.domain.type</title>
<polygon fill="#eedd82" stroke="black" points="388.5,-61 138.5,-61 138.5,-23 388.5,-23 388.5,-61"/>
<text text-anchor="middle" x="263.5" y="-45.8" font-family="Times,serif" font-size="14.00">ビジネスルールを表現する基本型</text>
<text text-anchor="middle" x="263.5" y="-30.8" font-family="Times,serif" font-size="14.00">net.nocono.mentalarithmetic.domain.type</text>
</g>
<!-- net.nocono.mentalarithmetic.domain.model&#45;&gt;net.nocono.mentalarithmetic.domain.type -->
<g id="edge1" class="edge">
<title>net.nocono.mentalarithmetic.domain.model&#45;&gt;net.nocono.mentalarithmetic.domain.type</title>
<path fill="none" stroke="black" d="M263.5,-96.83C263.5,-89.13 263.5,-79.97 263.5,-71.42"/>
<polygon fill="black" stroke="black" points="267,-71.41 263.5,-61.41 260,-71.41 267,-71.41"/>
</g>
</g>
</svg>
