<?xml version="1.0" encoding="UTF-8" standalone="no"?>
<!DOCTYPE svg PUBLIC "-//W3C//DTD SVG 1.1//EN"
 "http://www.w3.org/Graphics/SVG/1.1/DTD/svg11.dtd">
<!-- Generated by graphviz version 2.48.0 (20210717.1556)
 -->
<!-- Title: パッケージ関連図 Pages: 1 -->
<svg width="567pt" height="177pt"
 viewBox="0.00 0.00 566.50 177.00" xmlns="http://www.w3.org/2000/svg" xmlns:xlink="http://www.w3.org/1999/xlink">
<g id="graph0" class="graph" transform="scale(1 1) rotate(0) translate(4 173)">
<title>パッケージ関連図</title>
<polygon fill="white" stroke="transparent" points="-4,4 -4,-173 562.5,-173 562.5,4 -4,4"/>
<text text-anchor="middle" x="279.25" y="-7.8" font-family="Times,serif" font-size="14.00">パッケージ関連図</text>
<g id="clust1" class="cluster">
<title>cluster_net.nocono.mentalarithmetic.domain.type</title>
<polygon fill="lemonchiffon" stroke="#eedd82" stroke-width="2" points="49.5,-31 49.5,-123 299.5,-123 299.5,-31 49.5,-31"/>
<text text-anchor="middle" x="174.5" y="-107.8" font-family="Times,serif" font-size="14.00">ビジネスルールを表現する基本型</text>
<text text-anchor="middle" x="174.5" y="-92.8" font-family="Times,serif" font-size="14.00">net.nocono.mentalarithmetic.domain.type</text>
</g>
<!-- summary -->
<g id="node1" class="node">
<title>summary</title>
<polygon fill="none" stroke="black" points="109,-169 0,-169 0,-131 115,-131 115,-163 109,-169"/>
<polyline fill="none" stroke="black" points="109,-169 109,-163 "/>
<polyline fill="none" stroke="black" points="115,-163 109,-163 "/>
<text text-anchor="start" x="8" y="-153.8" font-family="Times,serif" font-size="14.00">パッケージ数: 4</text>
<text text-anchor="start" x="8" y="-138.8" font-family="Times,serif" font-size="14.00">関連数: 3</text>
</g>
<!-- net.nocono.mentalarithmetic.domain.model -->
<g id="node2" class="node">
<title>net.nocono.mentalarithmetic.domain.model</title>
<polygon fill="#eedd82" stroke="black" points="394,-169 133,-169 133,-131 394,-131 394,-169"/>
<text text-anchor="middle" x="263.5" y="-153.8" font-family="Times,serif" font-size="14.00">ビジネスルールを表現する複合型</text>
<text text-anchor="middle" x="263.5" y="-138.8" font-family="Times,serif" font-size="14.00">net.nocono.mentalarithmetic.domain.model</text>
</g>
<!-- net.nocono.mentalarithmetic.domain.type.digit -->
<g id="node3" class="node">
<title>net.nocono.mentalarithmetic.domain.type.digit</title>
<polygon fill="#eedd82" stroke="black" points="290.5,-77 236.5,-77 236.5,-39 290.5,-39 290.5,-77"/>
<text text-anchor="middle" x="263.5" y="-61.8" font-family="Times,serif" font-size="14.00">数字</text>
<text text-anchor="middle" x="263.5" y="-46.8" font-family="Times,serif" font-size="14.00">digit</text>
</g>
<!-- net.nocono.mentalarithmetic.domain.model&#45;&gt;net.nocono.mentalarithmetic.domain.type.digit -->
<g id="edge1" class="edge">
<title>net.nocono.mentalarithmetic.domain.model&#45;&gt;net.nocono.mentalarithmetic.domain.type.digit</title>
<path fill="none" stroke="black" d="M263.5,-130.79C263.5,-118.34 263.5,-101.61 263.5,-87.42"/>
<polygon fill="black" stroke="black" points="267,-87.19 263.5,-77.19 260,-87.19 267,-87.19"/>
</g>
<!-- net.nocono.mentalarithmetic.domain.type.operator -->
<g id="node4" class="node">
<title>net.nocono.mentalarithmetic.domain.type.operator</title>
<polygon fill="#eedd82" stroke="black" points="218,-77 155,-77 155,-39 218,-39 218,-77"/>
<text text-anchor="middle" x="186.5" y="-61.8" font-family="Times,serif" font-size="14.00">演算子</text>
<text text-anchor="middle" x="186.5" y="-46.8" font-family="Times,serif" font-size="14.00">operator</text>
</g>
<!-- net.nocono.mentalarithmetic.domain.model&#45;&gt;net.nocono.mentalarithmetic.domain.type.operator -->
<g id="edge2" class="edge">
<title>net.nocono.mentalarithmetic.domain.model&#45;&gt;net.nocono.mentalarithmetic.domain.type.operator</title>
<path fill="none" stroke="black" d="M235.86,-130.72C232.9,-128.28 230.04,-125.69 227.5,-123 217.1,-112 207.78,-98 200.67,-85.9"/>
<polygon fill="black" stroke="black" points="203.66,-84.08 195.68,-77.1 197.57,-87.53 203.66,-84.08"/>
</g>
<!-- net.nocono.mentalarithmetic.domain.type -->
<g id="node5" class="node">
<title>net.nocono.mentalarithmetic.domain.type</title>
<polygon fill="#eedd82" stroke="black" points="558.5,-77 308.5,-77 308.5,-39 558.5,-39 558.5,-77"/>
<text text-anchor="middle" x="433.5" y="-61.8" font-family="Times,serif" font-size="14.00">ビジネスルールを表現する基本型</text>
<text text-anchor="middle" x="433.5" y="-46.8" font-family="Times,serif" font-size="14.00">net.nocono.mentalarithmetic.domain.type</text>
</g>
<!-- net.nocono.mentalarithmetic.domain.model&#45;&gt;net.nocono.mentalarithmetic.domain.type -->
<g id="edge3" class="edge">
<title>net.nocono.mentalarithmetic.domain.model&#45;&gt;net.nocono.mentalarithmetic.domain.type</title>
<path fill="none" stroke="black" d="M297.9,-130.79C324.6,-116.65 361.78,-96.97 390.45,-81.79"/>
<polygon fill="black" stroke="black" points="392.24,-84.8 399.44,-77.03 388.96,-78.62 392.24,-84.8"/>
</g>
</g>
</svg>
